<?xml version="1.0" standalone="no"?>
<!DOCTYPE svg PUBLIC "-//W3C//DTD SVG 20010904//EN"
 "http://www.w3.org/TR/2001/REC-SVG-20010904/DTD/svg10.dtd">
<svg version="1.0" xmlns="http://www.w3.org/2000/svg"
 width="66.000000pt" height="76.000000pt" viewBox="0 0 66.000000 76.000000"
 preserveAspectRatio="xMidYMid meet">
<metadata>
Created by potrace 1.10, written by Peter Selinger 2001-2011
</metadata>
<g transform="translate(0.000000,76.000000) scale(0.050000,-0.050000)"
fill="#000000" stroke="none">
<path d="M490 1340 c-33 -22 -121 -63 -195 -92 -281 -108 -290 -254 -51 -863
98 -249 91 -245 406 -245 340 0 350 7 440 329 25 88 65 224 88 301 88 292 49
378 -235 514 -210 101 -357 119 -453 56z m455 -146 c248 -119 260 -163 144
-504 -26 -77 -66 -204 -88 -282 -45 -156 -87 -208 -168 -208 -46 0 -53 8 -53
60 0 40 -10 60 -30 60 -20 0 -30 -20 -30 -60 0 -55 -6 -60 -70 -60 -64 0 -70
5 -70 60 0 40 -10 60 -30 60 -20 0 -30 -20 -30 -60 0 -135 -139 -63 -188 96
-15 52 -43 128 -61 170 -18 43 -41 115 -50 160 -9 46 -32 137 -50 202 -43 159
29 290 161 293 21 0 88 28 148 60 145 78 220 70 465 -47z"/>
</g>
</svg>
