<?xml version="1.0" standalone="no"?>
<!DOCTYPE svg PUBLIC "-//W3C//DTD SVG 20010904//EN"
 "http://www.w3.org/TR/2001/REC-SVG-20010904/DTD/svg10.dtd">
<svg version="1.0" xmlns="http://www.w3.org/2000/svg"
 width="121.000000pt" height="147.000000pt" viewBox="0 0 121.000000 147.000000"
 preserveAspectRatio="xMidYMid meet">
<metadata>
Created by potrace 1.10, written by Peter Selinger 2001-2011
</metadata>
<g transform="translate(0.000000,147.000000) scale(0.050000,-0.050000)"
fill="#000000" stroke="none">
<path d="M711 2573 c-63 -67 -96 -152 -202 -523 -28 -99 -71 -238 -95 -310
-37 -114 -43 -186 -50 -582 -8 -500 2 -570 98 -678 l62 -70 703 -5 c804 -6
745 -19 851 183 l62 118 0 406 c0 405 -7 470 -92 848 -17 72 -51 175 -76 230
-232 499 -152 450 -733 450 l-464 0 -64 -67z m293 -98 c5 -50 15 -65 46 -65
31 0 41 15 46 65 l7 65 137 0 137 0 7 -65 c5 -50 15 -65 46 -65 31 0 41 15 46
65 6 60 12 65 77 65 105 0 135 -25 207 -174 36 -75 82 -167 101 -206 228 -462
249 -1478 33 -1621 -61 -40 -1219 -54 -1292 -15 -157 84 -200 704 -80 1153
191 714 260 863 397 863 74 0 79 -4 85 -65z"/>
</g>
</svg>
