<?xml version="1.0" standalone="no"?>
<!DOCTYPE svg PUBLIC "-//W3C//DTD SVG 20010904//EN"
 "http://www.w3.org/TR/2001/REC-SVG-20010904/DTD/svg10.dtd">
<svg version="1.0" xmlns="http://www.w3.org/2000/svg"
 width="66.000000pt" height="76.000000pt" viewBox="0 0 66.000000 76.000000"
 preserveAspectRatio="xMidYMid meet">
<metadata>
Created by potrace 1.10, written by Peter Selinger 2001-2011
</metadata>
<g transform="translate(0.000000,76.000000) scale(0.050000,-0.050000)"
fill="#000000" stroke="none">
<path d="M357 1360 c-62 -37 -250 -573 -287 -824 -18 -118 46 -197 206 -256
63 -24 156 -66 208 -94 128 -70 235 -58 461 53 284 138 321 219 233 511 -23
77 -63 213 -88 301 -53 191 -96 280 -149 308 -48 26 -540 26 -584 1z m163
-100 c0 -40 10 -60 30 -60 20 0 30 20 30 60 0 55 6 60 70 60 64 0 70 -5 70
-60 0 -40 10 -60 30 -60 20 0 30 20 30 60 0 52 7 60 53 60 81 0 123 -52 168
-208 22 -78 62 -205 88 -282 116 -341 104 -385 -142 -503 -254 -122 -308 -127
-463 -49 -67 34 -138 62 -157 62 -126 0 -199 136 -156 292 18 65 40 151 48
192 36 177 164 474 208 482 87 17 93 14 93 -46z"/>
</g>
</svg>
