<?xml version="1.0" standalone="no"?>
<!DOCTYPE svg PUBLIC "-//W3C//DTD SVG 20010904//EN"
 "http://www.w3.org/TR/2001/REC-SVG-20010904/DTD/svg10.dtd">
<svg version="1.0" xmlns="http://www.w3.org/2000/svg"
 width="121.000000pt" height="147.000000pt" viewBox="0 0 121.000000 147.000000"
 preserveAspectRatio="xMidYMid meet">
<metadata>
Created by potrace 1.10, written by Peter Selinger 2001-2011
</metadata>
<g transform="translate(0.000000,147.000000) scale(0.050000,-0.050000)"
fill="#000000" stroke="none">
<path d="M551 2525 c-151 -38 -191 -184 -190 -685 1 -455 1 -456 117 -850 139
-471 166 -546 223 -614 l55 -66 471 -6 c552 -7 528 -14 626 192 179 379 173
360 255 770 23 111 32 271 32 562 l0 406 -62 118 c-105 199 -52 187 -818 185
-369 -1 -688 -6 -709 -12z m1343 -124 c216 -143 195 -1159 -33 -1621 -19 -38
-65 -131 -101 -206 -72 -149 -102 -174 -207 -174 -65 0 -71 5 -77 65 -9 93
-83 93 -92 0 l-7 -65 -137 0 -137 0 -7 65 c-9 93 -83 93 -92 0 -6 -61 -11 -65
-85 -65 -137 0 -206 149 -397 863 -120 449 -77 1069 80 1153 73 39 1231 25
1292 -15z"/>
</g>
</svg>
