<?xml version="1.0" standalone="no"?>
<!DOCTYPE svg PUBLIC "-//W3C//DTD SVG 20010904//EN"
 "http://www.w3.org/TR/2001/REC-SVG-20010904/DTD/svg10.dtd">
<svg version="1.0" xmlns="http://www.w3.org/2000/svg"
 width="654.000000pt" height="621.000000pt" viewBox="0 0 654.000000 621.000000"
 preserveAspectRatio="xMidYMid meet">
<metadata>
Created by potrace 1.10, written by Peter Selinger 2001-2011
</metadata>
<g transform="translate(0.000000,621.000000) scale(0.100000,-0.100000)"
fill="#000000" stroke="none">
<path d="M917 5735 c-22 -7 -49 -22 -60 -33 -12 -10 -29 -22 -38 -25 -30 -10
-95 -120 -113 -191 -9 -38 -25 -85 -36 -106 -10 -20 -26 -67 -34 -104 -9 -36
-25 -84 -35 -105 -11 -21 -29 -75 -41 -121 -12 -46 -29 -99 -39 -119 -10 -20
-26 -69 -35 -110 -10 -41 -27 -97 -40 -125 -13 -28 -29 -75 -35 -105 -6 -29
-24 -83 -40 -120 -16 -36 -32 -86 -36 -111 -4 -25 -20 -75 -36 -111 -15 -36
-33 -87 -39 -114 -6 -27 -24 -78 -40 -114 -15 -36 -33 -100 -39 -141 -7 -41
-20 -103 -31 -137 -53 -172 -53 -603 0 -798 10 -38 26 -112 35 -164 9 -52 22
-106 30 -120 7 -14 25 -61 39 -105 14 -43 33 -90 42 -103 8 -14 24 -49 34 -79
11 -30 28 -67 39 -82 11 -15 31 -52 45 -82 14 -30 36 -69 49 -87 31 -45 61
-90 98 -145 17 -27 35 -48 40 -48 4 0 15 -12 23 -27 50 -92 414 -412 499 -439
12 -4 36 -17 52 -29 17 -12 48 -28 70 -35 22 -7 59 -23 82 -36 23 -13 65 -29
95 -35 29 -6 88 -22 131 -35 164 -51 489 -58 647 -14 41 11 111 29 155 41 44
11 96 29 115 41 19 11 59 29 88 39 29 10 65 27 80 37 15 11 44 25 64 31 20 7
54 24 74 37 20 14 61 34 90 45 29 11 64 29 78 40 14 11 47 26 73 34 42 12 56
12 102 0 29 -7 63 -23 75 -34 11 -11 43 -29 70 -40 26 -12 60 -29 75 -39 14
-10 52 -29 83 -41 32 -13 62 -29 68 -36 6 -8 42 -24 78 -36 37 -12 78 -28 92
-37 14 -9 81 -29 150 -45 69 -16 152 -36 185 -43 134 -32 544 -27 633 7 15 6
74 23 132 39 113 30 237 81 298 124 21 14 43 26 49 26 6 0 32 15 56 34 25 19
59 42 76 50 16 9 36 24 43 34 7 9 24 25 38 34 14 9 62 51 106 95 73 69 104
104 201 218 27 32 63 83 90 129 10 15 28 42 40 60 13 17 36 58 51 91 16 33 36
66 45 73 9 8 24 37 33 65 9 29 27 70 40 92 12 22 28 63 34 90 6 28 22 75 36
105 13 30 35 109 49 175 14 66 32 149 40 185 21 91 31 424 16 572 -6 64 -20
145 -31 180 -10 35 -26 100 -34 145 -9 46 -24 100 -35 121 -11 22 -27 70 -36
108 -9 38 -27 93 -41 123 -13 30 -31 83 -39 118 -8 35 -24 84 -35 108 -11 24
-27 75 -36 112 -8 37 -26 93 -39 123 -13 30 -32 84 -40 119 -9 36 -27 85 -40
110 -12 25 -28 73 -35 106 -7 33 -23 80 -35 105 -12 25 -30 78 -39 119 -9 40
-25 90 -36 111 -11 21 -27 68 -36 106 -20 79 -78 172 -127 203 -18 11 -43 28
-56 38 -24 17 -131 18 -2200 20 -1826 2 -2182 0 -2214 -12z m973 -605 c18 -18
20 -33 20 -172 0 -165 8 -212 44 -255 12 -15 25 -36 29 -45 3 -9 23 -29 44
-42 21 -14 48 -33 60 -42 26 -19 115 -29 176 -20 94 14 209 120 238 218 5 18
9 102 9 185 0 140 2 155 20 173 20 20 33 20 578 20 466 0 561 -2 578 -14 17
-13 19 -31 24 -198 4 -156 8 -188 23 -209 10 -13 27 -39 39 -57 11 -19 37 -44
57 -58 20 -13 47 -32 60 -41 20 -14 45 -18 122 -18 l96 0 58 41 c32 23 76 67
99 99 l41 58 5 184 c5 168 7 186 24 199 16 11 76 14 317 14 164 0 305 -3 314
-6 23 -9 81 -129 95 -199 7 -33 23 -80 35 -105 12 -25 30 -78 39 -119 9 -40
25 -90 36 -111 10 -20 28 -74 40 -120 12 -46 30 -100 40 -120 10 -20 26 -67
34 -104 9 -37 27 -91 40 -119 13 -29 29 -79 36 -112 7 -33 21 -78 33 -100 11
-22 40 -119 65 -215 l45 -175 0 -210 c0 -165 -4 -222 -17 -265 -9 -30 -29
-109 -45 -175 -16 -66 -41 -142 -55 -169 -14 -27 -26 -57 -27 -65 -1 -36 -123
-242 -223 -378 -34 -47 -174 -183 -221 -216 -22 -15 -54 -37 -72 -50 -133 -92
-282 -144 -456 -160 -140 -13 -313 1 -397 31 -30 11 -82 28 -115 37 -33 9 -72
25 -87 36 -15 10 -52 28 -82 39 -30 12 -59 27 -65 34 -7 8 -37 24 -69 37 -31
12 -66 30 -77 40 -11 9 -40 25 -65 35 -25 9 -60 28 -77 41 -18 13 -50 30 -70
37 -21 8 -60 25 -87 40 -75 40 -156 37 -252 -9 -40 -19 -79 -35 -86 -35 -8 0
-29 -11 -48 -25 -19 -14 -59 -34 -89 -46 -31 -11 -63 -27 -72 -35 -9 -8 -44
-25 -79 -39 -35 -14 -71 -31 -80 -40 -9 -8 -36 -21 -60 -30 -24 -9 -64 -27
-87 -41 -24 -14 -73 -35 -111 -48 -37 -13 -87 -32 -112 -42 -37 -15 -74 -18
-210 -18 -148 0 -171 2 -225 23 -33 12 -89 31 -124 42 -36 10 -81 29 -100 42
-20 13 -54 34 -76 47 -57 32 -94 63 -198 167 -108 109 -146 153 -178 208 -12
22 -33 53 -46 68 -13 16 -23 34 -23 41 0 7 -15 37 -33 68 -19 30 -42 79 -51
109 -10 30 -26 68 -37 85 -10 17 -28 73 -39 125 -11 52 -27 119 -35 149 -40
144 -42 474 -4 615 10 39 28 108 40 155 11 46 29 101 39 120 10 20 28 74 40
120 12 46 30 100 40 120 10 20 26 67 34 104 9 37 26 88 37 114 12 26 30 79 40
119 10 40 27 89 37 110 11 21 27 71 36 112 9 40 26 90 36 111 11 21 29 74 41
117 24 87 51 147 82 181 20 22 22 22 324 22 290 0 304 -1 323 -20z"/>
</g>
</svg>
