<?xml version="1.0" standalone="no"?>
<!DOCTYPE svg PUBLIC "-//W3C//DTD SVG 20010904//EN"
 "http://www.w3.org/TR/2001/REC-SVG-20010904/DTD/svg10.dtd">
<svg version="1.0" xmlns="http://www.w3.org/2000/svg"
 width="218.000000pt" height="207.000000pt" viewBox="0 0 218.000000 207.000000"
 preserveAspectRatio="xMidYMid meet">
<metadata>
Created by potrace 1.10, written by Peter Selinger 2001-2011
</metadata>
<g transform="translate(0.000000,207.000000) scale(0.100000,-0.100000)"
fill="#000000" stroke="none">
<path d="M605 1631 c-97 -28 -155 -62 -235 -138 -179 -169 -269 -453 -215
-679 15 -64 70 -242 110 -354 12 -36 36 -108 53 -160 19 -59 40 -105 57 -122
l26 -28 730 0 c787 0 770 -1 796 52 7 12 31 82 54 153 23 72 63 195 89 275 27
80 53 169 59 198 15 74 14 178 -4 264 -19 91 -27 113 -78 218 -33 68 -59 102
-127 170 -91 91 -150 127 -256 154 -133 34 -248 14 -422 -74 -44 -22 -83 -40
-86 -40 -3 0 -52 22 -109 49 -165 80 -309 100 -442 62z m246 -195 c25 -8 99
-41 164 -75 66 -34 126 -61 134 -61 8 0 82 32 164 72 120 57 162 73 208 76
181 13 353 -149 404 -382 28 -126 19 -186 -68 -448 -42 -125 -81 -237 -87
-248 -10 -19 -19 -20 -118 -18 l-107 3 -3 50 c-3 74 -10 94 -39 121 -30 27
-71 31 -112 9 -36 -18 -43 -35 -50 -115 l-6 -65 -195 0 -195 0 -3 67 c-3 60
-6 71 -33 98 -42 42 -96 42 -138 0 -27 -27 -30 -38 -33 -98 l-3 -67 -107 -3
c-98 -2 -108 -1 -117 17 -15 27 -135 391 -155 467 -60 233 80 527 284 597 57
20 152 21 211 3z"/>
</g>
</svg>
