<?xml version="1.0" standalone="no"?>
<!DOCTYPE svg PUBLIC "-//W3C//DTD SVG 20010904//EN"
 "http://www.w3.org/TR/2001/REC-SVG-20010904/DTD/svg10.dtd">
<svg version="1.0" xmlns="http://www.w3.org/2000/svg"
 width="900.000000pt" height="900.000000pt" viewBox="0 0 900.000000 900.000000"
 preserveAspectRatio="xMidYMid meet">
<metadata>
Created by potrace 1.10, written by Peter Selinger 2001-2011
</metadata>
<g transform="translate(0.000000,900.000000) scale(0.100000,-0.100000)"
fill="#6aa84f" stroke="none">
<path d="M4315 8985 c-6 -9 -35 -20 -70 -25 -33 -5 -91 -19 -130 -30 -38 -12
-83 -25 -100 -30 -38 -11 -92 -30 -130 -46 -16 -7 -55 -22 -85 -34 -111 -45
-389 -179 -419 -203 -14 -12 -47 -32 -71 -43 -8 -4 -33 -19 -55 -33 -56 -36
-77 -49 -100 -61 -75 -39 -286 -192 -431 -312 -206 -170 -385 -379 -465 -544
-58 -120 -73 -220 -65 -439 9 -233 21 -417 34 -495 6 -36 18 -117 27 -180 16
-108 28 -169 60 -300 95 -385 222 -688 403 -959 62 -93 161 -223 191 -251 3
-3 39 -40 79 -82 l72 -76 0 -143 c0 -159 23 -552 39 -669 6 -41 18 -131 26
-200 9 -69 22 -163 30 -210 7 -47 21 -132 30 -190 9 -58 23 -134 30 -170 8
-36 21 -105 30 -155 16 -90 35 -186 61 -300 7 -33 20 -94 30 -135 32 -146 46
-206 59 -260 8 -30 21 -86 30 -125 8 -38 22 -92 30 -120 7 -27 21 -79 30 -115
25 -99 59 -221 90 -330 9 -30 23 -80 32 -110 8 -30 21 -73 28 -95 7 -22 20
-67 30 -100 10 -33 23 -76 30 -95 7 -19 18 -51 24 -70 7 -19 16 -48 21 -65 12
-44 34 -104 120 -335 73 -196 207 -484 274 -590 80 -126 167 -212 249 -248 15
-7 61 -12 102 -12 95 0 153 29 237 118 78 84 130 165 212 332 79 160 80 162
141 310 26 63 53 130 61 148 8 18 14 38 14 45 0 7 6 23 13 37 7 14 41 113 76
220 35 107 69 211 76 230 7 19 20 62 30 95 65 224 97 337 121 425 22 86 43
164 59 225 18 66 40 153 60 240 9 39 22 95 30 125 7 30 21 91 30 135 10 44 23
107 30 140 8 33 20 94 29 135 8 41 22 107 31 146 8 40 15 81 15 93 0 12 6 47
14 79 26 102 79 452 120 787 17 131 35 454 39 661 l2 132 106 109 c122 126
246 285 324 415 77 129 185 359 228 488 8 25 20 56 25 70 16 39 63 211 85 310
43 187 66 343 78 515 35 545 14 754 -94 930 -109 176 -327 404 -542 567 -151
114 -262 189 -450 301 -11 7 -38 23 -60 37 -97 61 -382 197 -540 257 -138 53
-299 99 -377 108 -32 4 -48 11 -48 21 0 22 -331 21 -345 -1z m317 -310 c140
-27 287 -73 468 -149 59 -25 276 -131 325 -159 207 -119 279 -165 415 -261 47
-34 87 -63 90 -66 3 -3 39 -32 80 -65 193 -153 367 -347 430 -481 29 -62 31
-75 38 -223 10 -224 -11 -566 -50 -786 -5 -33 -13 -80 -17 -105 -4 -25 -13
-65 -20 -90 -7 -25 -20 -72 -28 -105 -43 -162 -137 -410 -199 -521 -13 -24
-35 -64 -48 -88 -27 -48 -140 -218 -159 -238 -7 -7 -32 -38 -57 -68 -25 -30
-97 -105 -160 -167 l-115 -111 -7 -284 c-3 -155 -9 -326 -12 -378 -10 -149
-55 -519 -78 -635 -5 -27 -13 -81 -18 -120 -5 -38 -14 -97 -20 -130 -6 -33
-18 -96 -26 -140 -19 -105 -42 -218 -89 -440 -16 -75 -26 -122 -55 -240 -7
-27 -16 -68 -20 -90 -4 -22 -12 -60 -19 -85 -7 -25 -19 -72 -27 -105 -8 -33
-21 -81 -29 -106 -8 -26 -15 -54 -15 -64 0 -10 -6 -38 -14 -64 -8 -25 -21 -71
-30 -101 -8 -30 -22 -80 -31 -110 -8 -30 -22 -79 -30 -107 -39 -140 -49 -171
-60 -203 -7 -19 -21 -62 -30 -95 -10 -33 -23 -76 -30 -95 -7 -19 -22 -64 -34
-100 -17 -54 -44 -132 -96 -275 -7 -20 -44 -113 -85 -215 -24 -59 -95 -215
-109 -241 -5 -8 -22 -39 -37 -68 -42 -75 -46 -82 -83 -133 -47 -65 -59 -67
-101 -19 -45 52 -131 208 -193 351 -16 36 -34 79 -42 95 -14 31 -23 55 -76
195 -17 47 -38 100 -45 118 -8 18 -14 39 -14 47 0 8 -6 29 -14 47 -23 54 -43
110 -62 173 -9 33 -30 101 -46 150 -39 122 -53 169 -73 245 -10 36 -23 85 -31
110 -34 112 -58 202 -118 448 -8 31 -21 84 -29 117 -9 33 -23 94 -32 135 -9
41 -23 102 -30 135 -18 78 -40 189 -60 295 -9 47 -22 117 -30 155 -8 39 -21
104 -29 145 -8 41 -22 109 -31 150 -8 41 -15 86 -15 100 0 14 -6 61 -14 105
-8 44 -22 132 -30 195 -8 63 -20 151 -26 195 -18 127 -40 539 -30 549 5 5 55
-14 122 -47 109 -54 138 -66 258 -106 295 -97 705 -136 1010 -96 369 49 449
84 457 197 5 69 -18 116 -71 142 -36 18 -48 18 -130 8 -50 -6 -109 -15 -131
-21 -60 -15 -223 -33 -235 -26 -7 4 -10 149 -10 428 0 390 -2 425 -19 463 -27
60 -67 84 -136 84 -61 0 -94 -17 -127 -68 -16 -25 -18 -63 -18 -457 0 -237 -4
-436 -9 -444 -17 -27 -276 14 -478 76 -62 19 -115 39 -119 44 -3 5 -12 9 -20
9 -22 0 -159 70 -244 124 -188 121 -366 298 -494 494 -62 94 -117 187 -135
227 -5 11 -25 56 -46 99 -64 136 -130 328 -179 521 -37 148 -76 352 -76 402 0
18 -7 75 -16 125 -12 69 -17 167 -18 378 -1 267 0 288 19 325 90 180 344 437
618 626 112 77 219 147 242 159 11 6 34 19 50 30 89 57 388 208 480 241 11 4
45 17 75 29 118 45 249 84 335 99 33 6 69 12 80 15 47 9 150 5 227 -9z"/>
<path d="M4544 8253 c-45 -93 -89 -188 -99 -213 -11 -25 -24 -52 -29 -60 -6
-8 -19 -31 -28 -50 -9 -19 -33 -69 -54 -110 -48 -96 -65 -132 -98 -200 -15
-30 -31 -62 -36 -70 -23 -39 -109 -220 -120 -256 -7 -21 -18 -46 -24 -54 -6
-8 -26 -46 -45 -85 -18 -38 -37 -77 -41 -85 -5 -8 -25 -49 -45 -90 -20 -41
-41 -84 -47 -95 -34 -62 -108 -214 -108 -223 0 -5 -7 -15 -15 -22 -8 -7 -15
-20 -15 -29 0 -10 -83 -184 -185 -387 -102 -203 -185 -373 -185 -379 0 -5 -49
-109 -110 -229 -104 -209 -109 -221 -95 -243 30 -45 59 -25 106 71 16 33 34
68 39 76 5 8 32 62 60 120 28 58 55 112 59 120 5 8 16 31 24 50 41 96 82 187
92 200 5 8 18 31 27 50 9 19 28 58 41 85 49 103 128 261 137 275 16 26 70 140
70 148 0 6 148 314 170 352 30 52 200 398 200 406 0 6 83 177 185 380 102 203
185 373 185 377 0 5 32 73 71 152 39 79 69 152 67 162 -2 13 -14 19 -38 21
l-35 2 -81 -167z"/>
<path d="M4054 8323 c-10 -21 -29 -52 -41 -68 -12 -17 -27 -41 -33 -55 -6 -14
-26 -52 -44 -85 -19 -33 -46 -85 -61 -115 -15 -30 -37 -68 -49 -85 -12 -16
-38 -64 -59 -105 -21 -41 -47 -88 -57 -105 -10 -16 -33 -59 -50 -95 -18 -36
-40 -74 -49 -85 -10 -11 -26 -40 -36 -65 -10 -25 -28 -58 -40 -75 -11 -16 -39
-66 -60 -110 -22 -44 -49 -93 -61 -110 -12 -16 -34 -57 -49 -90 -16 -33 -37
-73 -49 -89 -24 -36 -56 -97 -56 -109 0 -4 -11 -23 -24 -40 -14 -18 -30 -43
-35 -57 -6 -14 -23 -45 -36 -69 -14 -24 -25 -48 -25 -53 0 -5 -11 -24 -24 -41
-13 -18 -36 -59 -51 -92 -15 -33 -34 -67 -41 -75 -6 -8 -31 -51 -54 -95 -23
-44 -47 -87 -54 -95 -20 -25 -56 -106 -56 -127 0 -23 18 -43 40 -43 17 0 71
67 90 111 6 13 22 44 35 68 14 24 25 50 25 57 0 7 6 17 13 21 7 4 31 44 52 88
21 44 44 87 51 95 7 8 31 51 54 95 23 44 46 85 51 92 9 10 30 49 137 254 22
42 51 94 66 117 14 23 26 46 26 51 0 5 7 14 15 21 8 7 15 19 15 28 0 8 11 29
23 46 13 17 41 67 62 111 22 44 44 85 50 90 6 6 20 30 30 55 10 25 25 52 32
61 7 8 13 19 13 22 0 4 11 24 23 45 26 41 75 130 144 262 25 47 49 90 55 97 5
6 29 51 54 99 25 49 51 95 58 104 23 26 59 110 59 137 0 26 -17 43 -44 43 -9
0 -24 -17 -35 -37z"/>
<path d="M5108 8328 c-15 -12 -68 -119 -112 -228 -4 -8 -17 -35 -31 -59 -14
-24 -25 -48 -25 -54 0 -5 -27 -65 -60 -132 -33 -67 -60 -127 -60 -133 0 -6
-18 -45 -40 -86 -21 -42 -49 -99 -61 -128 -29 -71 -49 -113 -81 -171 -16 -26
-28 -54 -28 -61 0 -7 -20 -54 -45 -104 -25 -50 -45 -95 -45 -100 0 -5 -7 -15
-15 -22 -8 -7 -15 -25 -15 -41 0 -15 -4 -31 -10 -34 -11 -7 -93 -175 -105
-215 -4 -14 -27 -62 -51 -108 -24 -46 -44 -91 -44 -101 0 -10 -7 -24 -15 -31
-8 -7 -15 -17 -15 -22 0 -5 -18 -46 -40 -90 -22 -45 -40 -87 -40 -93 0 -6 -8
-26 -19 -45 -10 -19 -32 -62 -50 -94 -17 -32 -31 -65 -31 -72 0 -7 -25 -61
-55 -120 -30 -59 -55 -112 -55 -118 0 -6 -23 -56 -50 -111 -28 -55 -50 -103
-50 -107 0 -7 -60 -134 -79 -168 -5 -8 -16 -31 -24 -50 -22 -52 -60 -135 -102
-225 -20 -44 -46 -98 -56 -121 -22 -47 -24 -75 -7 -92 20 -20 43 -14 64 16 19
26 80 157 118 252 3 8 17 33 31 55 13 22 24 47 25 56 0 9 27 70 60 135 33 65
60 124 60 130 0 6 11 31 25 55 14 24 28 51 31 59 6 14 13 29 59 135 17 39 57
121 89 180 9 17 16 35 16 41 0 7 25 61 55 120 30 60 55 114 55 120 0 6 21 54
48 106 26 51 53 109 61 128 23 61 83 180 92 186 5 3 9 18 9 33 0 16 7 34 15
41 8 7 15 16 15 21 0 9 53 124 131 285 27 55 49 105 49 110 0 6 25 59 55 119
30 61 55 114 55 118 0 5 29 68 65 141 36 72 65 136 65 142 0 6 11 31 24 55 42
76 66 125 66 136 0 5 24 59 54 119 29 60 59 126 65 146 7 21 17 40 22 43 11 7
12 26 1 41 -12 19 -47 25 -64 12z"/>
<path d="M3499 8143 c-27 -34 -59 -82 -59 -90 0 -4 -20 -39 -45 -76 -25 -38
-45 -71 -45 -73 0 -2 -12 -23 -27 -47 -25 -39 -36 -58 -82 -142 -9 -17 -24
-41 -34 -55 -37 -52 -67 -101 -67 -109 0 -4 -12 -26 -28 -47 -15 -21 -32 -50
-39 -64 -6 -14 -26 -45 -44 -70 -19 -25 -42 -61 -52 -80 -24 -47 -47 -87 -80
-137 -15 -24 -27 -45 -27 -47 0 -3 -13 -24 -29 -48 -16 -24 -37 -59 -48 -78
-10 -19 -31 -54 -46 -78 -38 -58 -34 -96 9 -100 33 -3 41 6 97 108 11 19 25
42 32 50 13 15 105 169 105 175 0 2 14 24 30 48 17 25 30 49 30 55 0 5 7 12
15 16 8 3 15 12 15 19 0 8 14 33 30 55 17 23 30 46 30 52 0 6 14 29 30 52 17
22 30 45 30 50 0 4 14 27 30 50 17 22 30 45 30 49 0 5 20 38 45 75 25 36 45
68 45 71 0 2 27 49 60 103 33 54 60 101 60 104 0 3 14 25 30 48 17 22 30 47
30 54 0 7 6 17 13 21 10 7 37 55 37 68 0 2 -7 11 -16 19 -20 21 -47 20 -65 -1z"/>
<path d="M5552 7988 c-6 -6 -12 -15 -12 -19 0 -9 -50 -122 -96 -214 -19 -38
-34 -74 -34 -78 0 -5 -25 -59 -55 -121 -30 -61 -55 -116 -55 -122 0 -11 -33
-78 -47 -97 -6 -7 -27 -52 -47 -102 -21 -49 -56 -123 -77 -164 -22 -41 -39
-80 -39 -87 0 -7 -20 -51 -44 -98 -25 -48 -54 -111 -65 -140 -10 -29 -30 -72
-44 -97 -13 -24 -28 -55 -32 -69 -4 -14 -32 -74 -61 -133 -30 -60 -54 -114
-54 -121 0 -7 -11 -33 -24 -57 -39 -71 -63 -120 -84 -174 -11 -27 -39 -86 -61
-130 -23 -44 -41 -85 -41 -93 0 -7 -13 -37 -30 -67 -16 -30 -30 -59 -30 -64 0
-17 46 -42 64 -35 15 6 116 198 116 220 0 8 27 63 66 133 13 24 24 49 24 56 0
6 20 51 45 100 25 50 45 95 45 102 0 6 21 54 48 105 26 52 53 110 61 129 24
60 83 179 92 185 5 3 9 16 9 29 0 13 13 46 28 72 15 26 45 88 66 136 20 49 55
122 77 163 21 41 39 80 39 87 0 7 20 52 45 102 25 49 45 94 45 100 0 11 63
140 78 158 5 7 13 23 17 37 3 14 24 62 46 107 21 46 39 87 39 92 0 5 7 14 15
21 8 7 15 22 15 34 0 12 7 32 16 44 8 12 14 35 12 50 -2 22 -9 28 -33 30 -17
2 -36 -3 -43 -10z"/>
<path d="M5943 7778 c-17 -27 -43 -83 -43 -91 0 -5 -17 -43 -38 -85 -22 -43
-42 -90 -46 -107 -4 -16 -13 -37 -20 -45 -7 -8 -20 -35 -31 -60 -10 -25 -31
-72 -46 -105 -16 -33 -29 -64 -29 -68 0 -5 -20 -49 -45 -99 -25 -50 -45 -97
-45 -104 0 -7 -13 -35 -29 -62 -16 -27 -32 -60 -36 -73 -3 -13 -24 -61 -46
-106 -21 -46 -39 -86 -39 -91 0 -5 -13 -35 -30 -67 -16 -32 -30 -65 -30 -72 0
-7 -14 -39 -31 -71 -17 -31 -37 -77 -46 -102 -8 -25 -21 -52 -27 -60 -7 -8
-34 -67 -61 -130 -27 -63 -54 -122 -62 -131 -7 -8 -13 -23 -13 -32 0 -10 -13
-43 -30 -74 -16 -31 -30 -62 -30 -69 0 -7 -15 -41 -32 -76 -18 -35 -39 -80
-46 -99 -8 -18 -27 -60 -43 -92 -16 -31 -29 -62 -29 -67 0 -9 -68 -159 -106
-233 -20 -40 -18 -56 10 -69 39 -17 53 -4 92 79 20 43 43 91 50 106 8 16 14
34 14 42 0 7 7 18 15 25 8 7 15 21 15 32 0 10 13 42 29 71 15 29 32 63 36 77
4 14 25 63 47 110 23 47 46 99 53 115 39 92 60 138 96 208 21 43 39 84 39 90
0 6 16 45 36 86 20 42 40 85 44 96 4 11 21 49 38 85 16 36 38 85 48 110 10 25
24 52 31 61 7 8 13 23 13 32 0 9 16 46 35 84 19 37 35 72 35 76 0 4 23 55 50
112 28 57 50 108 50 111 0 14 50 113 60 119 6 3 10 19 10 35 0 16 4 31 9 34
12 8 51 88 51 104 0 7 14 38 30 69 17 31 30 60 30 65 0 5 20 51 45 102 25 52
45 99 45 105 0 7 7 23 16 36 24 37 12 75 -26 75 -16 0 -32 -6 -37 -12z"/>
<path d="M6287 7256 c-19 -15 -57 -82 -57 -101 0 -6 -25 -60 -55 -120 -30 -61
-55 -114 -55 -118 0 -5 -17 -46 -39 -90 -21 -45 -45 -98 -54 -117 -40 -92 -79
-170 -88 -175 -5 -4 -9 -17 -9 -30 0 -13 -13 -46 -28 -72 -15 -26 -36 -68 -46
-93 -10 -25 -41 -91 -67 -146 -27 -56 -49 -105 -49 -110 0 -5 -18 -47 -41 -94
-23 -47 -48 -100 -55 -117 -25 -58 -48 -106 -76 -156 -16 -26 -28 -54 -28 -61
0 -7 -20 -54 -45 -104 -25 -50 -45 -94 -45 -99 0 -5 -20 -49 -45 -98 -25 -50
-45 -95 -45 -102 0 -6 -20 -50 -45 -99 -25 -48 -45 -91 -45 -96 0 -5 -14 -38
-32 -74 -36 -74 -32 -99 17 -99 26 0 33 8 66 75 34 70 83 174 114 245 52 120
81 182 92 196 7 8 13 22 13 31 0 8 27 69 60 136 33 66 60 125 60 131 0 6 18
44 39 86 22 41 42 88 46 104 3 16 13 35 21 42 8 6 14 15 14 20 0 5 13 37 29
72 16 34 37 82 47 107 10 25 31 67 46 93 15 26 28 59 28 72 0 13 4 26 9 29 10
7 94 177 106 215 4 13 23 53 41 89 19 36 34 70 34 77 0 6 25 60 55 119 30 59
55 112 55 118 0 12 23 59 66 137 13 24 24 52 24 61 0 9 7 25 15 36 21 28 19
71 -4 84 -24 12 -22 12 -44 -4z"/>
<path d="M4239 5193 c-8 -10 -32 -54 -54 -98 -21 -44 -47 -90 -56 -103 -10
-13 -27 -44 -39 -70 -12 -26 -26 -57 -32 -68 -15 -32 6 -66 39 -62 19 2 33 18
60 68 20 36 46 83 59 105 21 37 52 99 68 135 4 8 13 26 21 39 28 50 -30 97
-66 54z"/>
</g>
</svg>
