<?xml version="1.0" standalone="no"?>
<!DOCTYPE svg PUBLIC "-//W3C//DTD SVG 20010904//EN"
 "http://www.w3.org/TR/2001/REC-SVG-20010904/DTD/svg10.dtd">
<svg version="1.0" xmlns="http://www.w3.org/2000/svg"
 width="900.000000pt" height="900.000000pt" viewBox="0 0 900.000000 900.000000"
 preserveAspectRatio="xMidYMid meet">
<metadata>
Created by potrace 1.10, written by Peter Selinger 2001-2011
</metadata>
<g transform="translate(0.000000,900.000000) scale(0.100000,-0.100000)"
fill="#6aa84f" stroke="none">
<path d="M4420 8987 c0 -6 -22 -22 -49 -35 -57 -26 -154 -125 -216 -221 -67
-103 -172 -318 -250 -511 -26 -63 -53 -130 -61 -148 -8 -18 -14 -38 -14 -45 0
-7 -6 -23 -13 -37 -7 -14 -41 -113 -76 -220 -35 -107 -69 -211 -76 -230 -7
-19 -20 -62 -30 -95 -10 -33 -24 -82 -32 -110 -8 -27 -21 -70 -27 -95 -7 -25
-20 -70 -29 -100 -14 -51 -27 -99 -64 -240 -8 -30 -20 -77 -28 -105 -19 -72
-41 -160 -59 -235 -8 -36 -22 -96 -31 -135 -25 -107 -58 -258 -89 -405 -8 -41
-22 -107 -31 -146 -8 -40 -15 -81 -15 -93 0 -12 -6 -47 -14 -79 -26 -102 -79
-452 -120 -787 -17 -131 -35 -454 -39 -661 l-2 -132 -106 -109 c-116 -121
-284 -335 -322 -413 -4 -8 -23 -42 -42 -75 -69 -124 -151 -304 -188 -415 -8
-25 -20 -56 -25 -70 -16 -41 -62 -206 -85 -310 -43 -187 -66 -343 -78 -515
-35 -545 -14 -754 94 -930 109 -176 327 -404 542 -567 151 -114 262 -189 450
-301 11 -7 38 -23 60 -37 149 -95 520 -259 705 -313 208 -61 272 -70 465 -64
168 5 225 13 340 47 39 12 84 25 100 29 46 12 223 82 325 128 83 38 293 144
309 156 14 12 47 32 71 43 8 4 33 19 55 33 56 36 77 49 100 61 11 6 32 18 47
28 417 272 726 573 849 828 57 118 73 220 65 434 -7 222 -23 446 -35 495 -6
22 -11 57 -11 78 0 106 -82 465 -156 692 -60 182 -91 258 -181 434 -86 169
-259 424 -332 491 -3 3 -39 40 -78 82 l-73 76 0 143 c0 159 -23 552 -39 669
-6 41 -18 131 -26 200 -9 69 -22 163 -30 210 -7 47 -21 132 -30 190 -9 58 -23
134 -30 170 -8 36 -21 106 -30 155 -16 92 -36 189 -62 305 -8 36 -20 92 -28
125 -39 177 -47 215 -60 265 -7 30 -21 87 -30 125 -8 39 -22 93 -30 120 -7 28
-21 79 -30 115 -25 99 -59 221 -90 330 -9 30 -23 80 -32 110 -8 30 -21 73 -28
95 -7 22 -20 67 -30 100 -10 33 -23 76 -30 95 -7 19 -18 51 -24 70 -7 19 -16
49 -21 65 -10 37 -35 109 -74 213 -8 20 -28 75 -46 122 -76 204 -203 477 -275
590 -78 124 -177 223 -243 244 -12 4 -22 14 -22 22 0 11 -17 14 -80 14 -58 0
-80 -4 -80 -13z m123 -359 c58 -72 129 -208 232 -443 14 -32 24 -58 76 -195
17 -47 38 -100 45 -118 8 -18 14 -39 14 -47 0 -8 6 -29 14 -47 20 -48 41 -106
59 -163 8 -27 35 -115 60 -195 25 -80 53 -174 62 -210 10 -36 23 -85 31 -110
28 -94 49 -173 87 -325 9 -33 22 -87 30 -120 36 -142 46 -184 62 -255 9 -41
22 -102 30 -135 17 -78 40 -189 60 -295 9 -47 22 -116 30 -155 8 -38 21 -104
29 -145 8 -41 22 -109 31 -150 8 -41 15 -86 15 -100 0 -14 6 -61 14 -105 8
-44 22 -132 30 -195 8 -63 20 -151 26 -195 18 -127 40 -539 30 -549 -5 -5 -55
14 -122 47 -109 54 -138 66 -258 106 -295 97 -705 136 -1010 96 -369 -49 -449
-84 -457 -197 -5 -69 18 -116 71 -142 36 -18 48 -18 130 -8 50 6 109 15 131
21 60 15 223 33 235 26 7 -4 10 -149 10 -428 0 -390 2 -425 19 -463 27 -60 67
-84 136 -84 61 0 94 17 127 68 16 25 18 63 18 457 0 237 4 436 9 444 17 27
276 -14 478 -76 62 -19 115 -39 119 -44 3 -5 12 -9 20 -9 22 0 159 -70 244
-124 188 -121 366 -298 494 -494 62 -94 117 -187 135 -227 5 -11 25 -56 46
-99 64 -136 130 -328 179 -521 37 -148 76 -352 76 -402 0 -18 7 -75 16 -125
12 -69 17 -167 18 -378 1 -267 0 -288 -19 -325 -90 -180 -344 -437 -618 -626
-114 -79 -219 -148 -242 -159 -11 -5 -27 -14 -35 -20 -100 -67 -378 -205 -530
-265 -25 -9 -56 -22 -70 -27 -137 -54 -312 -96 -435 -105 -147 -10 -366 44
-645 161 -59 25 -276 131 -325 159 -136 78 -201 117 -260 155 -71 46 -236 162
-245 172 -3 3 -33 28 -68 54 -100 76 -290 264 -353 348 -31 43 -71 107 -89
144 -29 62 -31 76 -38 223 -11 234 7 521 49 781 22 137 26 156 38 200 7 25 20
72 28 105 66 250 198 553 309 708 19 26 34 50 34 53 0 6 57 82 70 94 3 3 25
30 50 60 25 30 97 105 160 167 l115 111 7 284 c3 155 9 326 12 378 15 225 80
697 142 1025 37 197 98 491 116 560 6 22 14 58 18 80 4 22 13 63 20 90 6 28
18 76 26 108 35 144 46 185 59 228 8 26 15 54 15 64 0 10 6 38 14 64 8 25 21
71 30 101 8 30 22 80 31 110 8 30 22 79 30 108 39 139 49 170 60 202 7 19 21
62 30 95 10 33 23 76 30 95 7 19 22 64 34 100 17 54 44 132 96 275 7 20 44
113 85 215 48 118 114 254 159 330 11 19 24 42 28 50 18 40 87 120 104 120 4
0 23 -19 42 -42z"/>
<path d="M4851 4173 c-22 -42 -66 -121 -87 -158 -21 -37 -52 -98 -68 -135 -4
-8 -13 -26 -21 -39 -17 -30 -5 -65 24 -69 32 -5 45 10 92 106 24 48 51 97 60
110 10 13 27 44 39 70 12 26 26 57 32 68 22 47 -46 92 -71 47z"/>
<path d="M3694 4088 c-24 -37 -68 -130 -86 -178 -11 -30 -27 -62 -34 -71 -8
-8 -14 -20 -14 -26 0 -6 -6 -24 -14 -40 -8 -15 -29 -62 -47 -103 -18 -41 -39
-82 -46 -91 -7 -8 -13 -22 -13 -31 0 -8 -27 -69 -60 -136 -33 -66 -60 -125
-60 -131 0 -6 -18 -44 -39 -86 -22 -41 -42 -88 -46 -104 -3 -16 -13 -35 -21
-42 -8 -6 -14 -15 -14 -20 0 -5 -13 -37 -29 -72 -16 -34 -37 -82 -47 -107 -10
-25 -31 -67 -46 -93 -15 -26 -28 -59 -28 -72 0 -13 -4 -26 -9 -29 -10 -7 -95
-178 -106 -216 -4 -14 -19 -45 -32 -69 -14 -25 -33 -68 -44 -95 -10 -28 -39
-91 -64 -139 -25 -48 -45 -94 -45 -101 0 -7 -11 -33 -24 -57 -46 -83 -66 -125
-66 -140 0 -8 -7 -24 -15 -35 -35 -46 -2 -109 44 -85 18 10 61 86 61 107 0 6
25 59 55 119 30 61 55 114 55 118 0 5 17 46 39 90 21 45 45 98 54 117 40 92
79 170 88 175 5 4 9 17 9 30 0 13 13 46 28 72 15 26 36 68 46 93 10 25 41 91
67 146 27 56 49 105 49 110 0 5 18 47 41 94 23 47 48 100 55 118 25 57 48 105
77 155 15 26 27 54 27 61 0 7 20 54 45 104 25 50 45 94 45 99 0 5 20 49 45 98
25 50 45 95 45 102 0 6 20 50 45 99 25 48 45 91 45 96 0 5 14 38 32 74 24 50
29 69 21 82 -13 21 -58 28 -69 10z"/>
<path d="M5324 3973 c-10 -16 -34 -62 -53 -103 -18 -41 -53 -115 -77 -165 -25
-49 -44 -95 -44 -101 0 -6 -27 -65 -60 -130 -33 -65 -60 -123 -60 -129 0 -11
-32 -77 -47 -98 -5 -7 -18 -32 -28 -57 -50 -120 -75 -174 -129 -275 -9 -16
-16 -35 -16 -41 0 -7 -25 -61 -55 -120 -30 -60 -55 -114 -55 -120 0 -6 -21
-54 -47 -106 -27 -51 -54 -109 -62 -128 -23 -61 -83 -180 -92 -186 -5 -3 -9
-18 -9 -34 0 -16 -4 -31 -9 -35 -9 -5 -63 -113 -92 -185 -8 -19 -35 -77 -61
-130 -26 -52 -48 -100 -48 -106 0 -5 -25 -59 -55 -119 -30 -61 -55 -114 -55
-120 0 -5 -29 -68 -65 -139 -36 -70 -65 -134 -65 -140 0 -7 -11 -33 -25 -57
-31 -57 -65 -129 -65 -140 0 -4 -20 -48 -45 -96 -25 -48 -55 -112 -66 -143
-11 -30 -25 -60 -31 -67 -24 -29 20 -71 59 -56 14 5 70 118 117 233 4 8 17 35
31 59 14 24 25 48 25 54 0 5 27 65 60 132 33 67 60 127 60 133 0 6 18 45 40
86 21 42 49 99 61 128 29 71 49 113 82 171 15 26 27 54 27 62 0 7 27 67 60
133 33 65 60 128 60 140 0 11 4 24 10 27 11 7 93 175 105 215 4 14 27 62 51
108 24 46 44 91 44 101 0 10 7 24 15 31 8 7 15 17 15 22 0 5 18 46 40 90 22
45 40 87 40 93 0 6 8 26 19 45 10 19 32 62 50 94 17 32 31 65 31 72 0 7 25 61
55 120 30 59 55 112 55 118 0 6 23 56 50 111 28 55 50 103 50 107 0 7 60 134
79 168 5 8 16 31 24 50 22 52 60 135 102 225 20 44 46 98 56 121 22 47 24 75
7 92 -20 20 -43 14 -64 -15z"/>
<path d="M4076 3728 c-8 -13 -26 -50 -41 -83 -15 -33 -33 -73 -41 -88 -8 -16
-14 -34 -14 -42 0 -7 -7 -18 -15 -25 -8 -7 -15 -21 -15 -32 0 -10 -13 -42 -29
-71 -15 -29 -32 -63 -36 -77 -4 -14 -25 -63 -47 -110 -23 -47 -46 -98 -53
-115 -39 -92 -60 -138 -96 -208 -21 -43 -39 -84 -39 -90 0 -6 -16 -45 -36 -86
-20 -42 -40 -85 -44 -96 -4 -11 -21 -49 -38 -85 -16 -36 -38 -85 -48 -110 -10
-25 -24 -52 -31 -61 -7 -8 -13 -23 -13 -32 0 -9 -16 -46 -35 -84 -19 -37 -35
-72 -35 -76 0 -4 -22 -55 -50 -112 -27 -57 -50 -108 -50 -111 0 -14 -50 -113
-60 -119 -6 -3 -10 -19 -10 -35 0 -16 -4 -31 -9 -34 -12 -8 -51 -88 -51 -104
0 -7 -13 -38 -30 -69 -16 -31 -30 -60 -30 -65 0 -5 -20 -51 -45 -102 -25 -52
-45 -99 -45 -105 0 -7 -7 -23 -16 -36 -10 -16 -14 -34 -10 -51 6 -21 12 -25
38 -22 25 2 36 12 54 43 13 22 23 46 24 53 0 8 17 48 38 90 22 43 42 91 46
107 4 17 13 37 20 45 7 8 20 35 31 60 10 25 31 72 46 105 16 33 29 64 29 68 0
5 20 49 45 99 25 50 45 97 45 104 0 7 13 35 29 62 16 27 32 60 36 73 3 13 24
61 46 106 21 46 39 86 39 91 0 5 14 35 30 67 17 32 30 65 30 72 0 7 14 39 31
71 17 31 37 77 46 102 8 25 21 52 27 60 7 8 30 56 51 105 43 104 75 175 116
260 16 33 29 65 29 72 0 6 15 40 33 75 17 35 38 80 45 99 8 18 27 60 43 92 16
31 29 62 29 67 0 9 68 159 106 233 19 38 18 54 -5 67 -30 16 -49 12 -65 -12z"/>
<path d="M5755 3614 c-9 -9 -30 -44 -46 -78 -16 -33 -34 -68 -39 -76 -23 -39
-160 -323 -161 -333 0 -7 -18 -46 -39 -87 -21 -41 -51 -100 -65 -130 -15 -30
-35 -71 -45 -90 -9 -19 -40 -82 -69 -140 -28 -58 -56 -112 -61 -120 -17 -28
-80 -161 -80 -169 0 -8 -134 -284 -160 -331 -33 -59 -200 -399 -200 -406 0 -6
-83 -177 -185 -380 -102 -203 -185 -373 -185 -377 0 -5 -32 -73 -71 -152 -39
-79 -69 -152 -67 -162 2 -13 14 -19 38 -21 l35 -2 81 167 c45 93 89 188 99
213 11 25 24 52 29 60 6 8 19 31 28 50 9 19 33 69 54 110 48 96 65 132 98 200
15 30 31 62 36 70 22 36 108 219 120 255 7 22 18 47 24 55 6 8 26 47 45 85 18
39 37 77 41 85 5 8 25 49 45 90 20 41 41 84 47 95 34 62 108 214 108 223 0 5
7 15 15 22 8 7 15 20 15 29 0 10 83 184 185 387 102 203 185 374 185 379 0 6
49 109 110 229 104 209 109 221 95 243 -18 27 -37 29 -60 7z"/>
<path d="M4388 3268 c-16 -13 -108 -197 -108 -216 0 -5 -11 -29 -24 -53 -42
-75 -66 -125 -66 -135 0 -5 -20 -50 -45 -99 -25 -50 -45 -95 -45 -102 0 -6
-21 -54 -47 -105 -27 -52 -54 -110 -62 -129 -24 -60 -83 -179 -92 -185 -5 -3
-9 -16 -9 -29 0 -13 -13 -46 -28 -72 -15 -26 -45 -88 -66 -136 -20 -49 -55
-122 -77 -163 -21 -41 -39 -80 -39 -87 0 -7 -20 -52 -45 -102 -25 -49 -45 -94
-45 -100 0 -11 -63 -140 -78 -158 -5 -7 -13 -23 -17 -37 -3 -14 -24 -62 -46
-107 -21 -46 -39 -87 -39 -92 0 -5 -7 -14 -15 -21 -8 -7 -15 -22 -15 -34 0
-12 -7 -32 -16 -44 -8 -12 -14 -35 -12 -50 3 -23 7 -27 37 -27 38 0 38 0 82
100 16 39 46 102 65 140 19 39 34 74 34 78 0 5 25 59 55 121 30 61 55 117 55
122 0 6 11 31 24 55 33 60 59 114 86 179 12 30 40 88 61 129 22 41 39 80 39
87 0 7 20 51 44 98 25 48 54 111 65 140 10 29 30 72 44 97 13 24 28 55 32 69
4 14 32 74 61 133 30 60 54 114 54 121 0 7 11 33 24 57 39 71 63 120 84 174
11 28 39 86 61 130 23 44 41 85 41 92 0 7 15 40 33 74 l32 60 -24 20 c-27 22
-32 23 -53 7z"/>
<path d="M6032 2846 c-17 -24 -36 -54 -42 -67 -6 -13 -22 -44 -35 -68 -14 -24
-25 -50 -25 -57 0 -7 -6 -17 -13 -21 -7 -4 -31 -44 -52 -88 -21 -44 -44 -87
-51 -95 -7 -8 -31 -51 -54 -95 -23 -44 -46 -85 -51 -92 -9 -10 -30 -49 -137
-254 -22 -42 -51 -94 -66 -117 -14 -23 -26 -46 -26 -51 0 -5 -7 -14 -15 -21
-8 -7 -15 -19 -15 -28 0 -8 -11 -29 -23 -46 -13 -17 -41 -67 -62 -111 -21 -44
-42 -81 -46 -83 -4 -2 -17 -24 -29 -50 -12 -26 -26 -54 -31 -62 -5 -8 -12 -22
-16 -30 -4 -8 -18 -33 -32 -55 -14 -22 -39 -67 -57 -100 -17 -33 -52 -100 -79
-150 -26 -49 -51 -95 -57 -102 -5 -6 -29 -51 -54 -99 -25 -49 -51 -95 -58
-104 -23 -26 -58 -110 -58 -137 0 -26 16 -43 43 -43 9 0 24 17 35 38 10 20 29
51 41 67 12 17 27 41 33 55 6 14 26 52 44 85 19 33 46 85 61 115 15 30 37 69
49 85 12 17 38 64 59 105 21 41 47 89 57 105 10 17 33 59 50 95 18 36 40 74
49 85 10 11 26 40 36 65 10 25 28 59 40 75 11 17 39 66 60 110 22 44 49 94 61
110 12 17 34 57 49 90 16 33 37 73 49 89 24 36 56 97 56 109 0 4 11 23 24 40
14 18 30 43 35 57 6 14 23 45 36 69 14 24 25 48 25 53 0 5 11 24 24 41 13 18
36 59 51 92 15 33 34 67 41 75 6 8 31 51 54 95 23 44 47 87 54 95 20 25 56
106 56 127 0 23 -18 43 -40 43 -9 0 -31 -20 -48 -44z"/>
<path d="M6169 2143 c-12 -21 -31 -54 -42 -73 -11 -19 -25 -42 -32 -50 -13
-15 -105 -169 -105 -175 0 -2 -13 -24 -30 -48 -16 -25 -30 -50 -30 -55 0 -6
-6 -15 -12 -19 -12 -7 -23 -25 -67 -108 -9 -16 -29 -48 -44 -70 -15 -22 -27
-43 -27 -47 0 -5 -13 -27 -30 -50 -16 -22 -30 -45 -30 -49 0 -4 -19 -36 -42
-71 -24 -35 -51 -79 -60 -98 -10 -19 -38 -66 -62 -105 -25 -38 -45 -73 -46
-78 0 -4 -13 -26 -30 -49 -16 -22 -30 -47 -30 -54 0 -7 -6 -17 -13 -21 -18
-12 -37 -60 -31 -78 7 -17 47 -30 63 -21 12 8 71 94 71 104 0 4 20 38 45 75
25 38 45 72 45 76 0 3 12 24 27 46 15 22 36 56 46 75 45 83 55 98 95 158 23
35 42 67 42 71 0 4 12 26 28 47 15 21 32 50 39 64 6 14 26 45 44 70 19 25 42
61 52 80 23 45 47 85 78 135 14 22 29 47 33 55 8 17 21 38 59 97 15 24 27 45
27 47 0 3 14 25 31 50 40 60 38 100 -7 104 -27 3 -35 -2 -55 -35z"/>
</g>
</svg>
