<?xml version="1.0" standalone="no"?>
<!DOCTYPE svg PUBLIC "-//W3C//DTD SVG 20010904//EN"
 "http://www.w3.org/TR/2001/REC-SVG-20010904/DTD/svg10.dtd">
<svg version="1.0" xmlns="http://www.w3.org/2000/svg"
 width="900.000000pt" height="900.000000pt" viewBox="0 0 900.000000 900.000000"
 preserveAspectRatio="xMidYMid meet">
<metadata>
Created by potrace 1.10, written by Peter Selinger 2001-2011
</metadata>
<g transform="translate(0.000000,900.000000) scale(0.100000,-0.100000)"
fill="#6aa84f" stroke="none">
<path d="M3883 8988 c2 -15 -103 -25 -268 -27 -55 -1 -131 -6 -170 -12 -38 -5
-122 -14 -185 -19 -232 -18 -703 -92 -856 -136 -28 -8 -58 -14 -67 -14 -29 0
-85 -41 -107 -77 l-21 -35 4 -1047 c2 -719 7 -1060 14 -1091 6 -25 19 -88 29
-140 9 -52 22 -111 29 -130 7 -19 21 -64 31 -100 10 -36 31 -94 46 -128 15
-35 28 -68 28 -73 0 -11 62 -138 105 -214 19 -33 39 -69 45 -80 46 -89 208
-293 325 -410 127 -127 125 -124 125 -230 -1 -115 35 -489 76 -790 41 -304
123 -786 179 -1055 8 -36 21 -103 30 -150 9 -47 23 -112 30 -145 8 -33 21 -94
31 -135 15 -71 25 -113 61 -270 14 -63 26 -113 59 -242 8 -35 22 -90 31 -123
8 -33 21 -82 28 -110 8 -27 21 -79 31 -115 39 -152 65 -245 89 -325 24 -77 43
-140 60 -200 10 -33 24 -75 31 -93 8 -18 14 -39 14 -47 0 -8 6 -29 14 -47 8
-18 28 -78 46 -133 17 -55 37 -116 44 -135 67 -176 76 -198 108 -268 15 -34
28 -64 28 -66 0 -3 20 -47 44 -98 24 -51 47 -100 50 -108 4 -8 12 -24 19 -35
7 -11 26 -45 44 -75 62 -106 169 -214 246 -248 50 -22 162 -15 222 13 115 55
225 205 348 475 19 41 49 107 67 145 18 39 36 81 41 95 4 14 17 50 29 80 11
30 28 73 36 95 20 57 141 419 160 485 10 30 23 73 29 95 24 75 60 201 88 305
23 84 43 159 60 220 14 51 21 79 60 235 9 33 23 88 31 123 35 138 45 180 61
257 17 78 31 140 55 240 7 28 15 64 17 80 2 17 10 59 18 95 8 36 21 101 30
145 22 111 41 207 60 295 8 41 15 84 15 95 0 11 6 52 14 90 8 39 22 113 30
165 9 52 22 136 30 185 8 50 22 146 30 215 9 69 23 172 31 230 9 58 15 128 15
155 1 28 7 95 15 150 8 55 15 156 15 223 l0 124 113 116 c133 139 200 220 295
362 82 123 189 331 222 430 5 14 18 50 30 80 11 30 25 71 29 90 5 19 19 71 30
115 12 44 26 114 31 155 6 41 15 98 20 125 5 28 9 495 9 1062 1 1005 1 1012
-20 1047 -21 35 -77 76 -106 76 -9 0 -39 6 -67 14 -153 44 -624 118 -856 136
-63 5 -146 14 -185 19 -38 6 -115 11 -170 12 -165 2 -270 12 -268 27 2 9 -124
12 -607 12 -483 0 -609 -3 -607 -12z m1438 -342 c90 -9 243 -23 339 -31 239
-22 533 -62 657 -91 34 -8 73 -14 87 -14 59 0 56 44 56 -843 0 -945 -7 -1067
-67 -1302 -24 -94 -43 -154 -76 -235 -44 -112 -117 -257 -154 -307 -12 -17
-23 -34 -23 -37 0 -8 -100 -146 -140 -191 -19 -22 -96 -102 -171 -177 -160
-159 -141 -102 -164 -489 -8 -135 -19 -279 -24 -320 -6 -41 -17 -135 -26 -209
-9 -74 -23 -175 -30 -225 -8 -49 -22 -137 -31 -195 -9 -58 -22 -139 -29 -180
-7 -41 -21 -118 -30 -170 -9 -52 -22 -128 -30 -167 -24 -119 -43 -213 -60
-303 -9 -47 -23 -113 -31 -147 -16 -70 -34 -151 -58 -263 -10 -41 -23 -100
-31 -130 -7 -30 -21 -86 -30 -125 -9 -38 -23 -96 -30 -127 -40 -157 -48 -187
-61 -235 -8 -29 -20 -77 -28 -105 -8 -29 -22 -82 -31 -118 -10 -36 -23 -83
-30 -105 -12 -38 -27 -91 -58 -200 -25 -88 -79 -259 -92 -295 -7 -19 -22 -64
-34 -100 -11 -36 -29 -90 -41 -120 -12 -30 -32 -86 -45 -125 -53 -160 -191
-456 -261 -560 -57 -86 -65 -87 -117 -7 -25 37 -69 117 -98 177 -56 118 -61
128 -109 250 -18 44 -36 89 -41 100 -5 11 -14 34 -19 50 -5 17 -25 75 -45 130
-20 55 -40 114 -45 130 -4 17 -25 84 -47 150 -22 66 -48 149 -58 185 -9 36
-23 83 -30 105 -7 22 -20 67 -29 100 -9 33 -23 83 -31 110 -13 49 -26 99 -58
220 -32 122 -46 182 -62 250 -9 39 -23 93 -31 121 -8 28 -14 59 -14 69 0 10
-6 41 -14 69 -8 28 -22 85 -31 126 -9 41 -23 102 -30 135 -23 100 -43 196 -60
285 -19 99 -37 191 -60 310 -38 196 -44 230 -60 330 -20 130 -40 256 -59 380
-9 52 -23 158 -31 235 -9 77 -22 196 -30 266 -18 151 -19 199 -4 199 7 0 33
-12 58 -27 47 -28 78 -44 161 -81 114 -52 164 -72 176 -72 7 0 28 -6 46 -14
63 -27 217 -66 363 -92 140 -26 566 -25 705 0 228 41 401 92 457 133 31 24 63
86 63 124 0 33 -38 96 -73 123 -40 31 -114 35 -189 11 -164 -52 -249 -70 -365
-80 l-82 -7 -3 469 c-3 443 -4 471 -22 498 -41 63 -106 90 -173 73 -44 -11
-72 -32 -99 -73 -18 -27 -19 -52 -21 -330 -2 -165 -3 -376 -3 -469 l0 -168
-82 6 c-113 9 -285 48 -366 82 -18 8 -38 14 -45 14 -13 0 -226 89 -243 102 -6
4 -32 19 -58 33 -67 36 -232 147 -291 196 -148 125 -349 354 -431 494 -48 81
-51 88 -78 143 -90 182 -145 347 -180 537 -30 159 -36 366 -36 1167 0 885 -3
838 58 838 15 0 43 4 61 10 35 10 191 35 396 64 61 9 184 22 275 30 91 8 224
21 295 27 215 21 483 27 1031 24 373 -3 569 -8 685 -19z"/>
<path d="M5111 8524 c-12 -15 -21 -34 -21 -43 0 -14 -21 -63 -76 -174 -8 -16
-14 -33 -14 -38 0 -5 -13 -37 -29 -71 -15 -35 -38 -88 -51 -118 -12 -30 -26
-59 -31 -64 -5 -6 -9 -17 -9 -26 0 -8 -13 -42 -30 -73 -16 -32 -30 -64 -30
-71 0 -7 -11 -33 -24 -58 -13 -25 -27 -59 -30 -76 -4 -17 -13 -36 -21 -42 -8
-6 -17 -25 -21 -42 -3 -18 -17 -51 -30 -74 -13 -24 -24 -49 -24 -56 0 -7 -13
-40 -29 -73 -48 -99 -78 -168 -90 -207 -7 -21 -17 -40 -22 -43 -5 -4 -9 -13
-9 -21 0 -7 -13 -43 -30 -77 -16 -35 -30 -67 -30 -71 0 -4 -13 -34 -30 -68
-16 -33 -30 -65 -30 -72 0 -6 -13 -38 -29 -71 -16 -33 -37 -80 -46 -105 -10
-25 -30 -73 -46 -107 -16 -35 -29 -68 -29 -76 0 -7 -6 -21 -13 -32 -7 -11 -22
-42 -32 -70 -10 -27 -24 -59 -32 -70 -7 -11 -13 -27 -13 -37 0 -9 -13 -40 -30
-68 -16 -28 -30 -59 -30 -68 0 -10 -6 -26 -13 -37 -7 -11 -19 -36 -27 -55 -13
-35 -42 -102 -86 -198 -13 -29 -24 -56 -24 -61 0 -5 -13 -36 -30 -69 -16 -34
-30 -65 -30 -70 0 -6 -13 -37 -30 -70 -16 -34 -30 -67 -30 -74 0 -8 -6 -22
-13 -33 -8 -11 -22 -42 -32 -70 -10 -27 -22 -54 -26 -60 -4 -5 -19 -40 -34
-77 -31 -80 -27 -108 15 -108 31 0 44 17 74 90 10 25 29 68 42 97 13 28 24 55
24 59 0 7 11 31 69 155 17 37 31 76 31 87 0 12 5 24 10 27 12 7 50 88 50 107
0 7 7 22 15 32 8 11 15 27 15 35 0 9 12 41 26 71 14 30 37 78 50 106 13 28 24
56 24 62 0 6 11 32 25 58 14 26 25 52 25 59 0 7 14 37 30 68 17 31 30 65 30
75 0 10 4 22 9 28 5 5 35 70 66 144 31 74 61 139 66 144 5 6 9 17 9 25 0 9 14
43 30 76 16 33 30 65 30 72 0 16 39 91 51 99 5 3 9 17 9 31 0 15 6 34 14 42 8
9 21 39 31 66 9 28 23 60 31 72 8 12 14 29 14 38 0 9 14 40 30 70 17 30 30 59
30 66 0 12 42 106 75 172 8 16 15 33 15 38 0 5 13 37 29 71 15 35 38 88 51
118 12 30 26 59 31 64 5 6 9 18 9 28 0 10 14 44 30 75 17 31 30 61 30 68 0 7
11 32 24 57 13 25 27 59 30 76 4 17 13 36 21 42 8 6 17 25 21 42 3 18 17 51
30 74 13 24 24 49 24 57 0 8 13 39 29 69 16 30 33 71 36 92 13 64 -35 90 -74
40z"/>
<path d="M2925 8503 c-6 -5 -44 -75 -85 -158 -40 -82 -84 -164 -97 -181 -13
-17 -23 -38 -23 -47 0 -9 -4 -18 -9 -21 -5 -3 -34 -57 -64 -120 -58 -118 -63
-150 -24 -160 22 -5 66 26 68 48 0 10 10 30 59 121 5 11 19 34 30 50 10 17 31
55 46 85 47 97 118 240 151 305 22 43 14 79 -17 83 -14 1 -30 -1 -35 -5z"/>
<path d="M4494 8493 c-9 -25 -41 -97 -70 -158 -13 -28 -24 -56 -24 -63 0 -7
-12 -34 -26 -59 -14 -26 -35 -72 -46 -102 -11 -31 -27 -63 -34 -72 -8 -8 -14
-20 -14 -26 0 -11 -65 -163 -116 -271 -19 -40 -34 -78 -34 -85 0 -7 -6 -21
-14 -32 -7 -11 -22 -45 -34 -76 -11 -30 -32 -76 -46 -102 -14 -25 -26 -55 -26
-66 0 -11 -4 -22 -9 -25 -11 -7 -51 -88 -51 -103 0 -6 -13 -38 -30 -71 -16
-34 -30 -65 -30 -70 0 -4 -12 -33 -28 -63 -15 -30 -36 -76 -46 -104 -10 -27
-29 -68 -41 -91 -13 -22 -26 -54 -29 -72 -4 -17 -13 -36 -21 -42 -8 -6 -17
-24 -20 -40 -4 -16 -22 -60 -41 -99 -19 -38 -34 -73 -34 -78 0 -4 -16 -39 -35
-78 -19 -38 -35 -76 -35 -83 0 -7 -13 -38 -30 -69 -16 -31 -30 -61 -30 -66 0
-15 -40 -96 -51 -103 -5 -3 -9 -18 -9 -34 0 -16 -4 -31 -9 -35 -10 -6 -47 -82
-71 -145 -8 -19 -20 -44 -27 -55 -7 -11 -13 -25 -13 -32 0 -6 -20 -55 -45
-107 -25 -53 -45 -101 -45 -106 0 -6 -7 -21 -15 -33 -13 -20 -13 -25 1 -45 8
-12 26 -22 39 -22 24 0 41 27 84 136 10 27 28 66 38 85 11 19 23 47 27 64 4
16 12 35 18 42 15 19 48 86 48 99 0 7 14 39 30 72 17 34 30 65 30 70 0 4 14
35 30 67 17 32 30 64 30 70 0 6 14 37 31 70 17 33 38 80 46 105 8 25 21 52 29
61 8 8 14 27 14 42 0 14 4 28 9 31 11 7 41 69 69 141 11 28 32 72 46 99 14 27
26 54 26 61 0 7 14 37 30 68 17 31 30 62 30 69 0 16 39 96 51 104 5 3 9 17 9
31 0 15 6 34 14 42 7 9 22 39 32 66 10 28 31 74 46 104 16 30 28 60 28 66 0 7
13 36 28 66 16 30 37 77 47 104 10 28 22 55 26 60 4 6 17 37 30 70 12 33 27
67 34 75 7 8 21 38 31 65 10 28 31 74 46 102 15 29 28 61 28 71 0 10 4 22 9
28 5 5 26 50 47 99 21 50 44 99 51 110 7 11 13 26 13 35 0 16 30 81 48 103 5
7 13 23 16 37 4 14 12 35 19 48 15 32 -1 56 -42 60 -23 2 -33 -1 -37 -15z"/>
<path d="M3372 8493 c-12 -5 -112 -202 -112 -221 0 -5 -11 -29 -24 -53 -26
-47 -75 -145 -108 -219 -11 -25 -47 -99 -79 -165 -32 -66 -67 -142 -78 -170
-11 -27 -45 -99 -75 -159 -31 -61 -56 -113 -56 -118 0 -7 -61 -136 -80 -168
-17 -30 -70 -145 -70 -153 0 -5 -13 -35 -30 -69 -16 -33 -30 -68 -30 -79 0
-25 34 -43 58 -30 17 9 95 157 138 261 10 25 45 96 76 159 32 63 58 122 58
131 0 10 7 23 15 30 8 7 15 17 15 22 0 6 25 62 56 126 31 65 71 149 89 187 54
114 75 158 101 204 13 24 24 49 24 56 0 6 25 60 56 121 30 60 64 132 75 159
11 28 27 65 37 83 17 33 17 34 -7 53 -24 20 -28 21 -49 12z"/>
<path d="M3873 8468 c-5 -7 -19 -33 -30 -58 -12 -25 -40 -83 -62 -130 -23 -47
-41 -90 -41 -94 0 -5 -20 -50 -45 -102 -25 -51 -45 -97 -45 -102 0 -5 -15 -38
-34 -73 -18 -35 -39 -82 -46 -104 -7 -22 -18 -47 -24 -55 -7 -8 -20 -35 -30
-60 -11 -25 -38 -86 -62 -136 -24 -49 -44 -96 -44 -102 0 -7 -13 -38 -30 -69
-16 -31 -30 -62 -30 -69 0 -7 -13 -36 -30 -64 -16 -28 -30 -55 -30 -60 0 -4
-6 -21 -14 -37 -8 -15 -31 -66 -52 -113 -20 -47 -54 -122 -75 -166 -22 -45
-39 -86 -39 -91 0 -5 -20 -49 -45 -99 -24 -49 -45 -94 -45 -99 0 -6 -17 -44
-38 -86 -21 -41 -42 -88 -46 -104 -4 -17 -12 -35 -18 -42 -15 -19 -48 -86 -48
-99 0 -7 -11 -35 -25 -62 -29 -58 -30 -68 -11 -88 19 -19 40 -18 59 4 19 21
67 111 67 126 0 6 16 43 35 81 19 39 35 74 35 79 0 5 17 46 39 90 39 82 92
195 116 251 7 17 22 50 33 75 11 25 30 68 42 95 13 28 40 87 61 132 22 44 39
85 39 91 0 5 18 44 40 86 22 42 40 80 40 86 0 15 70 159 81 165 5 4 9 19 9 35
0 16 4 31 9 34 11 7 51 88 51 103 0 6 20 50 45 99 25 48 45 93 45 100 0 7 16
43 35 81 19 37 35 72 35 76 0 5 18 46 39 90 21 45 48 102 59 127 38 85 74 165
90 197 14 31 14 34 -3 53 -21 23 -48 26 -62 8z"/>
<path d="M5649 8448 c-9 -7 -24 -35 -34 -63 -10 -27 -24 -59 -32 -70 -7 -11
-13 -26 -13 -35 0 -8 -13 -42 -29 -75 -26 -54 -73 -162 -106 -240 -21 -52 -33
-79 -58 -135 -13 -30 -32 -77 -42 -103 -10 -26 -22 -50 -26 -53 -5 -3 -9 -12
-9 -21 0 -20 -38 -101 -51 -109 -5 -3 -9 -18 -9 -34 0 -16 -4 -31 -9 -34 -11
-7 -51 -88 -51 -103 0 -5 -13 -35 -30 -66 -16 -31 -30 -65 -30 -75 0 -10 -4
-22 -9 -27 -5 -6 -41 -86 -80 -180 -40 -93 -83 -193 -97 -220 -13 -28 -24 -56
-24 -63 0 -7 -13 -37 -30 -67 -16 -30 -30 -62 -30 -72 0 -10 -7 -27 -15 -37
-8 -10 -22 -42 -31 -70 -9 -28 -23 -58 -30 -67 -8 -8 -14 -23 -14 -33 0 -9
-13 -41 -30 -71 -16 -30 -30 -60 -30 -67 0 -12 -15 -47 -71 -163 -10 -22 -19
-45 -19 -51 0 -21 38 -46 58 -39 21 6 62 74 62 102 0 9 6 24 13 32 7 9 21 36
31 61 10 25 28 68 41 95 12 28 28 67 34 87 7 21 17 40 22 43 5 4 9 13 9 21 0
7 14 43 30 77 17 35 30 67 30 71 0 4 14 34 30 68 17 33 30 65 30 71 0 15 40
96 51 103 5 3 9 15 9 27 0 13 6 31 13 42 8 11 22 43 32 70 10 28 25 59 32 70
7 11 13 25 13 33 0 18 38 99 50 107 5 3 10 18 10 32 0 15 6 34 14 42 7 9 23
43 35 76 13 33 26 64 30 70 4 5 18 38 31 73 12 34 27 65 31 68 5 3 9 12 9 20
0 8 14 42 30 76 17 33 30 64 30 69 0 9 44 108 76 172 8 16 14 34 14 42 0 7 7
18 15 25 8 7 15 21 15 32 0 10 14 43 30 73 17 30 30 60 30 68 0 8 11 34 24 59
13 25 27 59 30 76 4 17 14 36 21 42 8 7 17 27 21 46 3 19 10 37 15 40 13 8 11
48 -3 62 -15 15 -40 15 -59 0z"/>
<path d="M6128 8345 c-10 -13 -18 -31 -18 -39 0 -8 -13 -41 -30 -73 -16 -31
-30 -62 -30 -68 0 -6 -13 -38 -30 -70 -16 -32 -30 -63 -30 -67 0 -5 -13 -36
-30 -70 -16 -33 -30 -64 -30 -69 0 -9 -36 -90 -91 -204 -16 -33 -29 -66 -29
-73 0 -7 -13 -37 -30 -67 -16 -30 -30 -63 -30 -73 0 -11 -7 -25 -15 -32 -8 -7
-15 -19 -15 -27 0 -9 -20 -58 -45 -110 -25 -52 -45 -98 -45 -102 0 -5 -13 -36
-30 -69 -16 -34 -30 -67 -30 -74 0 -8 -6 -22 -14 -33 -7 -11 -23 -46 -34 -77
-12 -32 -26 -66 -31 -75 -5 -10 -17 -38 -27 -63 -10 -25 -23 -52 -30 -60 -6
-8 -19 -37 -29 -65 -9 -27 -23 -60 -31 -72 -8 -12 -14 -29 -14 -38 0 -9 -13
-40 -30 -70 -16 -30 -30 -60 -30 -68 0 -8 -11 -35 -25 -61 -13 -25 -34 -70
-46 -99 -40 -99 -46 -112 -77 -177 -18 -36 -32 -71 -32 -77 0 -7 -13 -38 -30
-70 -16 -31 -30 -63 -30 -70 0 -16 -39 -91 -51 -99 -5 -3 -9 -17 -9 -31 0 -15
-6 -34 -14 -42 -7 -9 -23 -43 -35 -76 -13 -33 -26 -64 -30 -70 -4 -5 -16 -32
-26 -60 -10 -27 -31 -74 -47 -104 -15 -30 -28 -58 -28 -64 0 -6 -13 -39 -30
-74 -16 -34 -30 -68 -30 -73 0 -6 -7 -22 -16 -36 -16 -23 -15 -26 1 -44 10
-11 28 -20 41 -20 22 0 45 37 84 140 8 19 20 44 27 55 7 11 13 26 13 34 0 18
39 99 51 107 5 3 9 18 9 34 0 16 4 31 9 34 11 7 51 88 51 103 0 5 14 35 30 66
17 31 30 65 30 75 0 10 4 22 9 28 5 5 21 38 36 74 30 72 69 160 91 203 8 16
14 34 14 42 0 7 7 18 15 25 8 7 15 21 15 32 0 10 11 39 25 64 14 25 25 50 25
56 0 6 9 29 19 52 10 23 37 79 59 126 21 47 45 102 51 122 7 21 17 40 22 43 5
4 9 13 9 21 0 7 14 43 30 77 17 35 30 67 30 71 0 4 18 44 40 88 22 45 40 86
40 91 0 8 33 83 76 172 13 28 24 56 24 63 0 7 12 34 26 59 14 26 35 72 46 102
12 31 27 65 34 76 8 11 14 26 14 34 0 9 14 45 32 81 17 36 36 79 43 95 26 64
34 82 69 156 20 41 36 81 36 88 0 7 14 36 30 66 17 30 30 62 30 72 0 10 7 27
15 37 8 10 22 42 31 70 9 28 22 58 28 66 17 22 42 81 51 118 13 59 -42 86 -77
37z"/>
<path d="M6348 7545 c-12 -14 -30 -46 -41 -72 -11 -27 -32 -75 -48 -108 -16
-33 -29 -65 -29 -71 0 -7 -7 -17 -15 -24 -8 -7 -15 -20 -15 -29 0 -9 -27 -70
-60 -136 -33 -66 -60 -125 -60 -131 0 -6 -20 -50 -45 -98 -25 -49 -45 -96 -45
-106 0 -11 -4 -21 -9 -24 -8 -6 -31 -50 -66 -131 -7 -16 -38 -82 -69 -146 -31
-64 -56 -121 -56 -125 0 -5 -23 -54 -50 -109 -28 -55 -50 -104 -50 -110 0 -5
-18 -46 -41 -90 -22 -44 -52 -107 -66 -140 -14 -33 -40 -91 -58 -130 -19 -38
-37 -81 -40 -95 -4 -14 -12 -30 -17 -37 -16 -20 -78 -147 -78 -161 0 -7 -14
-38 -31 -70 -25 -47 -28 -61 -19 -80 8 -18 17 -23 37 -20 22 2 34 15 60 63 37
69 53 103 53 115 0 4 18 43 40 86 22 43 40 83 40 89 0 5 27 64 60 130 33 66
60 127 60 136 0 9 7 22 15 29 8 7 15 18 15 24 0 7 12 37 28 67 15 30 36 77 46
104 11 28 31 70 46 95 14 25 34 65 44 90 10 25 31 73 47 107 16 35 29 67 29
72 0 5 7 14 15 21 8 7 15 20 15 30 0 10 20 57 45 106 25 48 45 91 45 96 0 6
27 64 60 130 33 67 60 129 60 138 0 10 7 23 15 30 8 7 15 16 15 21 0 5 13 37
29 72 16 34 37 82 47 107 10 25 31 67 46 93 15 26 28 54 28 62 0 9 9 32 20 52
25 47 25 65 2 86 -24 22 -28 22 -54 -8z"/>
<path d="M4238 5333 c-15 -18 -58 -104 -58 -116 0 -4 -14 -36 -31 -72 -29 -62
-30 -67 -15 -90 9 -14 23 -25 31 -25 13 0 44 37 58 70 4 8 11 22 16 30 26 47
41 80 41 95 0 9 9 28 20 42 24 31 25 46 4 67 -20 21 -47 20 -66 -1z"/>
</g>
</svg>
