<?xml version="1.0" standalone="no"?>
<!DOCTYPE svg PUBLIC "-//W3C//DTD SVG 20010904//EN"
 "http://www.w3.org/TR/2001/REC-SVG-20010904/DTD/svg10.dtd">
<svg version="1.0" xmlns="http://www.w3.org/2000/svg"
 width="900.000000pt" height="900.000000pt" viewBox="0 0 900.000000 900.000000"
 preserveAspectRatio="xMidYMid meet">
<metadata>
Created by potrace 1.10, written by Peter Selinger 2001-2011
</metadata>
<g transform="translate(0.000000,900.000000) scale(0.100000,-0.100000)"
fill="#6aa84f" stroke="none">
<path d="M3160 7844 c-14 -2 -59 -9 -100 -15 -123 -17 -271 -62 -400 -120 -47
-22 -92 -44 -100 -49 -8 -6 -25 -14 -38 -20 -12 -5 -50 -28 -83 -50 -33 -22
-63 -40 -65 -40 -25 0 -207 -168 -310 -285 -115 -133 -153 -190 -222 -330 -50
-103 -60 -127 -92 -230 -56 -181 -66 -291 -51 -550 9 -145 16 -186 61 -375 21
-85 56 -192 76 -233 8 -16 14 -35 14 -44 0 -8 6 -27 14 -41 8 -15 29 -63 46
-107 18 -44 38 -93 46 -110 7 -16 25 -57 39 -90 15 -33 35 -78 45 -100 10 -22
31 -67 45 -100 39 -88 59 -132 94 -208 17 -37 31 -69 31 -72 0 -2 15 -37 34
-77 53 -113 144 -204 236 -236 21 -8 108 -12 244 -11 255 0 354 9 388 35 30
22 78 87 96 129 16 37 52 215 52 258 0 17 6 56 14 86 8 31 22 108 31 171 9 63
23 132 31 153 38 101 50 128 86 204 73 150 205 302 318 368 84 48 162 77 265
101 71 16 130 18 500 17 446 0 507 -5 660 -55 284 -92 476 -320 526 -623 8
-51 18 -148 45 -455 18 -210 33 -257 96 -321 62 -62 73 -64 423 -64 245 0 284
2 310 17 17 9 40 21 52 27 28 13 108 93 125 125 59 113 159 322 192 401 7 17
20 46 28 65 51 114 120 297 137 365 5 17 20 65 35 108 14 42 26 85 26 93 0 9
7 37 15 63 34 108 64 263 86 437 12 98 6 401 -10 494 -20 115 -84 305 -132
390 -4 8 -18 35 -31 60 -78 158 -267 372 -454 518 -23 18 -44 32 -47 32 -3 0
-31 18 -63 39 -113 75 -392 201 -444 201 -8 0 -32 6 -55 14 -110 38 -468 55
-585 27 -199 -48 -219 -56 -550 -226 -160 -82 -321 -135 -410 -135 -113 0
-292 68 -570 217 -202 108 -359 150 -585 157 -77 3 -151 3 -165 0z m344 -130
c134 -30 211 -58 353 -129 77 -39 147 -76 155 -81 13 -10 196 -88 268 -114 97
-34 285 -37 385 -5 76 25 265 106 307 132 49 30 222 116 273 136 52 19 133 43
216 62 75 17 319 20 386 5 24 -6 71 -14 105 -20 111 -17 293 -80 378 -130 8
-5 33 -19 55 -31 172 -93 368 -265 494 -433 37 -50 70 -98 74 -106 4 -8 16
-28 27 -45 11 -16 25 -41 30 -55 6 -13 22 -46 36 -73 13 -27 24 -55 24 -62 0
-8 6 -29 14 -47 26 -63 66 -215 66 -253 0 -6 -15 -15 -32 -20 -18 -6 -37 -19
-43 -31 -5 -11 -44 -66 -85 -123 -41 -56 -102 -139 -134 -184 -33 -45 -73
-101 -90 -124 -17 -23 -41 -57 -54 -75 -12 -18 -59 -81 -102 -140 -44 -59 -80
-112 -80 -117 0 -6 -6 -14 -13 -18 -8 -4 -22 -21 -33 -38 -10 -16 -44 -64 -75
-105 -31 -41 -77 -106 -104 -145 -26 -38 -54 -74 -61 -78 -8 -4 -14 -13 -14
-18 0 -6 -26 -45 -58 -87 -32 -42 -80 -108 -107 -147 -27 -38 -57 -82 -68 -96
-21 -29 -16 -69 8 -69 18 0 98 104 335 436 41 58 134 187 207 287 73 100 160
220 193 267 87 121 322 446 365 503 21 27 41 45 47 41 23 -15 -2 -359 -38
-524 -8 -36 -14 -74 -14 -85 0 -11 -7 -33 -15 -49 -8 -15 -15 -41 -15 -57 0
-17 -7 -46 -15 -66 -8 -19 -15 -44 -15 -54 0 -10 -6 -33 -14 -51 -8 -18 -29
-80 -47 -138 -18 -58 -35 -109 -39 -115 -3 -5 -16 -37 -29 -70 -78 -206 -165
-400 -259 -579 -22 -43 -99 -102 -156 -120 -46 -15 -89 -17 -288 -14 -349 5
-339 -6 -368 413 -23 324 -61 507 -131 625 -5 8 -13 24 -18 35 -22 46 -123
165 -193 225 -41 36 -110 83 -154 104 -105 53 -101 51 -169 71 -150 45 -176
47 -620 51 -396 5 -439 3 -540 -15 -152 -27 -249 -65 -366 -143 -84 -55 -200
-174 -251 -254 -24 -38 -49 -78 -56 -89 -6 -11 -17 -30 -22 -43 -5 -13 -21
-46 -34 -75 -34 -76 -86 -236 -86 -269 0 -29 -28 -190 -46 -260 -8 -32 -14
-73 -14 -92 0 -55 -36 -193 -59 -225 -40 -55 -67 -61 -303 -61 -254 0 -284 7
-363 85 -38 39 -58 71 -84 135 -31 77 -58 141 -111 255 -10 22 -30 66 -44 98
-14 31 -37 81 -50 110 -28 62 -122 286 -143 342 -8 22 -20 49 -26 60 -5 11
-14 33 -18 50 -4 16 -18 62 -32 100 -13 39 -31 97 -40 130 -9 33 -24 89 -34
125 -15 54 -17 107 -18 325 0 272 -2 254 47 400 5 17 13 44 17 60 4 17 19 55
33 85 14 30 28 62 32 70 4 8 12 24 19 35 7 11 25 43 41 70 83 142 234 307 386
421 209 156 383 235 650 295 103 23 365 25 464 3z"/>
<path d="M3225 7643 c-14 -16 -76 -84 -137 -153 -61 -69 -136 -153 -167 -187
-31 -34 -77 -85 -102 -115 -26 -29 -100 -112 -165 -184 -66 -72 -140 -155
-166 -185 -26 -30 -120 -136 -210 -235 -90 -100 -188 -210 -218 -244 -30 -35
-70 -77 -88 -96 -38 -37 -39 -67 -4 -72 16 -3 32 7 55 34 38 44 231 259 291
324 22 24 51 57 63 73 12 16 46 55 75 86 47 49 145 158 294 326 25 28 73 82
109 120 101 112 377 419 408 455 30 35 33 50 15 68 -17 17 -24 15 -53 -15z"/>
<path d="M5645 7524 c-9 -14 -23 -33 -31 -42 -8 -9 -48 -60 -89 -112 -40 -52
-80 -102 -87 -110 -7 -8 -42 -53 -78 -100 -36 -46 -71 -91 -78 -100 -41 -47
-149 -185 -159 -202 -6 -12 -15 -23 -20 -27 -5 -3 -38 -44 -74 -89 -35 -46
-93 -121 -129 -166 -36 -46 -101 -129 -145 -186 -44 -57 -100 -126 -123 -154
-24 -28 -48 -61 -53 -73 -5 -13 -13 -23 -18 -23 -12 0 -20 -35 -11 -50 4 -7
16 -10 26 -8 16 3 254 291 270 328 4 8 14 22 23 31 22 22 68 79 150 184 39 50
79 101 90 115 11 14 43 54 71 90 71 91 82 104 158 198 37 46 72 91 77 100 6
10 20 28 32 42 25 30 159 200 226 287 49 65 53 93 12 93 -13 0 -30 -11 -40
-26z"/>
<path d="M3458 7454 c-40 -48 -89 -103 -108 -124 -19 -21 -53 -59 -75 -85 -22
-26 -95 -111 -162 -189 -68 -78 -138 -159 -157 -181 -60 -70 -217 -249 -250
-285 -17 -19 -38 -44 -46 -56 -17 -24 -122 -144 -192 -220 -27 -28 -48 -54
-48 -58 0 -7 -46 -59 -117 -130 -18 -18 -33 -36 -33 -40 0 -4 -47 -59 -105
-124 -82 -90 -105 -123 -103 -141 2 -14 9 -26 16 -29 17 -5 44 23 277 293 24
28 81 93 126 146 46 52 104 119 129 149 43 51 244 283 332 384 24 26 58 63 76
81 17 17 32 35 32 39 0 4 54 69 120 144 66 75 137 157 159 182 21 25 74 86
118 135 121 138 138 162 123 180 -7 8 -18 15 -26 15 -7 0 -46 -39 -86 -86z"/>
<path d="M2583 7460 c-21 -23 -59 -63 -85 -90 -27 -26 -48 -50 -48 -54 0 -4
-77 -91 -170 -194 -94 -103 -192 -212 -219 -242 -27 -30 -68 -76 -91 -102 -31
-35 -40 -52 -35 -68 10 -31 29 -24 77 26 24 25 64 67 91 93 26 27 47 51 47 55
0 4 75 89 168 190 92 101 190 210 218 242 28 32 68 78 89 101 65 74 25 115
-42 43z"/>
<path d="M6098 7444 c-24 -31 -81 -103 -128 -161 -47 -58 -91 -116 -98 -129
-7 -13 -17 -24 -23 -24 -5 0 -9 -4 -9 -10 0 -5 -8 -18 -17 -28 -10 -10 -63
-76 -118 -147 -120 -155 -238 -304 -317 -402 -32 -40 -58 -76 -58 -81 0 -4 -8
-15 -17 -24 -35 -31 -73 -76 -73 -86 0 -5 -7 -16 -17 -23 -17 -15 -163 -205
-163 -213 0 -3 9 -10 20 -16 15 -8 26 -7 45 6 14 9 25 21 25 28 0 6 23 38 52
71 28 33 75 92 104 130 29 39 94 122 144 185 49 63 117 149 149 190 32 41 68
86 79 100 12 14 53 66 91 115 38 50 75 97 83 105 7 8 42 53 78 100 36 46 71
91 78 100 53 62 150 188 167 217 16 29 17 36 5 43 -27 17 -38 11 -82 -46z"/>
<path d="M5049 7348 c-24 -28 -60 -72 -79 -98 -19 -25 -43 -54 -52 -65 -15
-17 -60 -74 -139 -175 -10 -14 -47 -59 -80 -100 -34 -41 -82 -102 -108 -135
-25 -33 -57 -70 -70 -83 -13 -12 -29 -31 -35 -41 -9 -16 -82 -109 -170 -216
-42 -52 -109 -136 -169 -213 -32 -41 -67 -84 -78 -95 -24 -26 -24 -30 -1 -51
18 -15 20 -15 43 7 23 21 68 78 167 206 24 31 47 58 52 59 6 2 10 8 10 13 0 6
12 21 27 35 14 13 31 33 37 43 6 10 38 51 71 91 33 40 65 81 72 92 6 12 15 23
20 27 7 5 284 347 355 438 14 19 42 53 61 76 128 152 161 201 153 222 -11 29
-43 15 -87 -37z"/>
<path d="M3884 7312 c-12 -9 -25 -24 -30 -33 -8 -15 -53 -68 -141 -169 -18
-21 -33 -41 -33 -45 0 -4 -15 -23 -32 -40 -52 -52 -88 -93 -88 -100 0 -3 -42
-55 -92 -114 -51 -59 -109 -128 -129 -152 -21 -24 -66 -78 -100 -119 -35 -42
-80 -95 -99 -119 -19 -25 -74 -91 -122 -147 -49 -57 -88 -106 -88 -110 0 -4
-15 -21 -32 -39 -18 -18 -45 -47 -60 -66 -16 -19 -70 -84 -120 -145 -51 -61
-109 -131 -129 -155 -21 -24 -66 -78 -100 -119 -35 -42 -80 -95 -99 -119 -19
-24 -68 -83 -108 -130 -52 -63 -72 -93 -70 -110 6 -52 29 -38 113 64 22 27 79
95 128 152 48 56 87 105 87 109 0 4 15 22 33 39 51 52 87 93 87 100 0 3 42 55
93 114 50 59 108 127 127 151 19 23 64 77 98 119 35 42 80 96 100 121 21 24
76 90 125 147 48 56 87 105 87 109 0 4 15 22 33 39 51 52 87 93 87 99 0 4 41
55 90 114 50 59 101 121 114 137 13 17 55 66 92 111 38 44 87 102 109 129 22
26 59 70 83 98 45 54 49 66 30 85 -15 15 -19 15 -44 -6z"/>
<path d="M6418 7206 c-21 -25 -38 -49 -38 -55 0 -5 -6 -14 -13 -18 -13 -8
-323 -391 -342 -422 -10 -16 -47 -60 -75 -89 -8 -9 -19 -23 -25 -33 -5 -9 -37
-49 -70 -89 -33 -40 -65 -81 -72 -92 -6 -12 -15 -23 -20 -27 -9 -6 -265 -326
-302 -377 -13 -18 -19 -37 -15 -47 13 -34 44 -17 102 59 12 16 50 63 83 104
34 41 82 102 107 135 26 33 50 62 54 65 4 3 27 31 50 61 42 54 100 127 158
199 26 31 96 120 151 190 10 14 47 59 80 100 34 41 82 102 107 135 26 33 51
65 58 70 32 28 105 138 102 153 -6 33 -42 24 -80 -22z"/>
<path d="M4351 7218 c-11 -13 -48 -57 -82 -98 -34 -41 -71 -86 -83 -100 -11
-13 -25 -32 -31 -41 -5 -10 -26 -35 -45 -56 -20 -21 -67 -76 -105 -123 -38
-47 -73 -90 -79 -96 -6 -6 -29 -32 -51 -59 -128 -153 -228 -274 -249 -300 -23
-29 -147 -176 -189 -225 -12 -13 -26 -32 -32 -41 -5 -10 -26 -35 -45 -56 -20
-21 -67 -76 -105 -123 -38 -47 -73 -90 -79 -96 -6 -6 -29 -32 -51 -59 -128
-153 -228 -274 -249 -300 -23 -29 -147 -176 -189 -225 -12 -13 -26 -32 -32
-41 -5 -9 -33 -43 -62 -75 -116 -132 -172 -208 -161 -221 6 -7 18 -13 28 -13
18 0 33 17 280 315 108 131 129 156 178 214 68 81 222 266 246 296 13 17 55
66 92 111 74 87 95 111 234 279 108 131 129 156 178 214 64 76 221 265 246
296 13 17 54 66 91 110 37 44 80 96 96 115 38 46 204 245 253 304 64 76 65 78
52 98 -15 24 -30 23 -55 -4z"/>
<path d="M6692 7028 c-6 -6 -12 -18 -12 -25 0 -6 -6 -16 -13 -20 -8 -4 -34
-37 -59 -73 -80 -115 -231 -315 -245 -323 -7 -4 -13 -13 -13 -18 0 -9 -172
-244 -302 -412 -29 -38 -56 -76 -59 -86 -4 -9 -18 -28 -33 -41 -14 -14 -26
-29 -26 -34 0 -4 -26 -41 -57 -81 -130 -165 -144 -196 -91 -195 18 1 56 46
178 210 85 116 181 243 212 283 32 39 58 77 58 84 0 7 6 16 13 20 14 9 107
130 107 139 0 4 12 20 26 38 14 17 104 137 200 266 116 155 174 241 172 255
-3 23 -37 32 -56 13z"/>
<path d="M6897 6696 c-21 -24 -37 -48 -37 -54 0 -5 -13 -22 -30 -38 -16 -16
-30 -32 -30 -36 0 -7 -196 -273 -302 -411 -29 -38 -55 -74 -57 -80 -2 -7 -8
-16 -15 -22 -17 -15 -76 -92 -76 -99 0 -3 -19 -31 -42 -61 -24 -30 -72 -94
-108 -142 -36 -48 -68 -92 -73 -98 -109 -140 -207 -283 -205 -300 5 -33 44
-31 62 3 9 17 19 32 23 34 5 1 36 41 70 88 35 47 126 171 203 275 77 105 147
199 155 210 40 55 139 186 175 231 22 28 40 55 40 59 0 8 58 84 76 100 7 6 13
15 15 22 2 6 28 42 57 80 184 239 204 274 156 281 -14 2 -32 -11 -57 -42z"/>
<path d="M6983 5703 c-4 -10 -68 -100 -142 -200 -75 -99 -145 -194 -156 -209
-11 -15 -30 -40 -42 -55 -13 -15 -23 -32 -23 -38 0 -7 -7 -14 -15 -17 -8 -4
-15 -10 -15 -15 0 -5 -7 -17 -15 -26 -9 -10 -72 -94 -140 -188 -68 -93 -148
-201 -177 -238 -29 -38 -56 -77 -60 -87 -4 -10 -12 -21 -18 -25 -8 -5 -8 -11
1 -21 22 -27 47 -15 91 44 24 31 53 71 65 87 13 17 44 61 70 98 25 38 57 78
70 90 12 12 23 26 23 31 0 5 18 32 41 60 78 98 315 422 322 439 3 9 11 17 17
17 5 0 10 5 10 10 0 6 8 19 18 29 9 10 28 35 42 55 14 20 40 57 58 81 43 59
46 89 9 93 -19 2 -29 -2 -34 -15z"/>
<path d="M3012 5006 c-45 -52 -82 -100 -82 -105 0 -6 -6 -14 -13 -18 -30 -19
-168 -195 -163 -209 11 -30 86 -3 86 31 0 4 15 22 33 40 17 17 50 53 72 80 22
26 75 89 118 139 79 93 93 128 51 134 -15 2 -41 -21 -102 -92z"/>
<path d="M4155 5695 c-69 -8 -138 -23 -185 -40 -264 -98 -464 -327 -541 -620
-15 -59 -16 -76 -29 -440 -5 -154 -13 -293 -18 -309 -4 -16 -20 -39 -35 -50
-26 -19 -47 -20 -370 -26 -225 -5 -352 -11 -372 -19 -54 -20 -69 -65 -67 -199
1 -64 8 -165 17 -224 8 -60 22 -159 30 -220 35 -256 56 -397 90 -598 8 -47 21
-137 30 -200 24 -173 54 -357 85 -515 7 -33 16 -80 20 -105 10 -64 41 -183 75
-295 6 -22 20 -67 30 -100 20 -67 103 -273 119 -294 13 -16 32 -49 45 -76 5
-11 17 -29 28 -40 10 -11 38 -44 62 -73 23 -29 71 -69 105 -90 l61 -37 126 0
c107 0 130 3 146 17 11 10 24 18 30 18 18 0 116 102 154 160 33 51 91 180 102
225 3 11 14 54 25 95 29 108 50 330 57 600 8 352 38 547 117 760 27 73 109
200 156 240 92 79 149 103 247 104 69 0 88 -4 140 -29 74 -37 160 -121 206
-200 42 -72 99 -206 99 -233 0 -10 6 -38 14 -63 39 -127 62 -351 71 -704 10
-397 62 -616 192 -812 38 -57 90 -108 155 -150 41 -27 48 -28 169 -28 107 0
130 3 146 17 11 10 24 18 30 18 21 0 143 123 186 188 67 102 131 232 163 332
9 30 23 71 29 90 13 34 31 101 59 218 8 31 20 80 26 107 7 28 16 70 20 95 4
25 12 72 18 105 12 63 31 183 57 346 8 53 15 116 15 140 0 24 5 62 10 84 5 22
14 76 20 120 28 220 57 436 76 560 35 230 46 294 59 370 8 44 15 114 15 155
-1 133 -21 140 -405 141 -320 1 -375 6 -409 38 -35 33 -44 105 -51 421 -8 349
-18 405 -102 575 -100 200 -279 349 -510 425 -107 34 -619 50 -838 25z m618
-116 c176 -10 194 -13 255 -40 245 -110 399 -301 453 -564 6 -27 14 -199 18
-380 7 -320 8 -332 29 -368 29 -46 71 -81 126 -105 38 -17 80 -20 369 -27 253
-6 329 -10 338 -21 11 -13 6 -46 -27 -191 -8 -34 -14 -77 -14 -94 0 -18 -7
-71 -14 -118 -25 -148 -38 -234 -46 -301 -4 -36 -13 -96 -19 -135 -6 -38 -18
-126 -26 -195 -9 -69 -22 -163 -30 -210 -8 -47 -17 -116 -20 -155 -3 -38 -10
-92 -15 -120 -5 -27 -16 -97 -25 -155 -9 -58 -23 -132 -30 -165 -8 -33 -21
-98 -30 -145 -17 -81 -27 -122 -60 -235 -118 -401 -272 -614 -458 -633 -71 -7
-124 18 -194 91 -162 169 -210 390 -228 1042 -3 110 -12 241 -21 290 -25 147
-45 238 -60 273 -8 18 -14 39 -14 47 0 15 -13 47 -66 160 -53 112 -160 226
-265 282 -165 88 -376 57 -514 -75 -103 -98 -151 -177 -220 -362 -63 -170
-101 -476 -109 -870 -5 -229 -13 -302 -50 -460 -20 -83 -40 -138 -54 -152 -7
-7 -12 -18 -12 -26 0 -21 -66 -115 -113 -163 -155 -155 -359 -71 -500 206 -42
83 -77 161 -77 173 0 6 -6 26 -14 44 -7 18 -20 56 -29 83 -44 149 -53 182 -92
370 -9 44 -23 105 -31 136 -8 30 -14 68 -14 84 0 28 -18 140 -46 285 -8 42
-14 92 -14 113 0 21 -6 68 -14 105 -8 37 -22 119 -31 182 -9 63 -22 156 -30
205 -68 433 -94 678 -78 755 l9 45 334 11 c377 12 380 12 454 89 29 30 45 56
50 82 9 49 25 430 26 594 0 159 14 208 117 404 27 51 176 189 249 231 94 53
156 74 255 83 127 12 411 12 622 0z"/>
<path d="M7941 178 c-9 -23 2 -58 18 -58 4 0 14 11 21 25 11 20 11 27 0 40
-17 21 -29 19 -39 -7z"/>
<path d="M8210 179 c-13 -24 -8 -34 15 -26 16 7 21 47 5 47 -5 0 -14 -9 -20
-21z"/>
<path d="M8330 184 c0 -9 5 -14 12 -12 18 6 21 28 4 28 -9 0 -16 -7 -16 -16z"/>
</g>
</svg>
