<?xml version="1.0" standalone="no"?>
<!DOCTYPE svg PUBLIC "-//W3C//DTD SVG 20010904//EN"
 "http://www.w3.org/TR/2001/REC-SVG-20010904/DTD/svg10.dtd">
<svg version="1.0" xmlns="http://www.w3.org/2000/svg"
 width="900.000000pt" height="900.000000pt" viewBox="0 0 900.000000 900.000000"
 preserveAspectRatio="xMidYMid meet">
<metadata>
Created by potrace 1.10, written by Peter Selinger 2001-2011
</metadata>
<g transform="translate(0.000000,900.000000) scale(0.100000,-0.100000)"
fill="#000000" stroke="none">
<path d="M1000 8835 c-11 -20 -11 -27 0 -40 17 -21 29 -19 39 8 9 22 -2 57
-18 57 -4 0 -14 -11 -21 -25z"/>
<path d="M747 8823 c-11 -10 -8 -43 3 -43 9 0 30 31 30 44 0 8 -25 7 -33 -1z"/>
<path d="M627 8803 c-12 -11 -8 -23 8 -23 8 0 15 7 15 15 0 16 -12 20 -23 8z"/>
<path d="M3328 7853 c-14 -2 -32 -11 -38 -19 -7 -8 -18 -14 -25 -14 -23 0
-143 -120 -188 -188 -67 -102 -131 -232 -163 -332 -9 -30 -23 -71 -29 -90 -12
-34 -26 -85 -58 -215 -8 -33 -21 -82 -27 -110 -7 -27 -16 -70 -20 -95 -4 -25
-12 -72 -18 -105 -12 -63 -31 -183 -57 -346 -8 -53 -15 -116 -15 -140 0 -24
-5 -62 -10 -84 -5 -22 -14 -76 -20 -120 -28 -220 -57 -436 -76 -560 -35 -230
-46 -294 -59 -370 -8 -44 -15 -114 -15 -155 1 -133 21 -140 405 -141 318 -1
375 -6 408 -37 35 -33 46 -119 52 -427 8 -344 18 -400 102 -570 85 -169 239
-312 423 -393 104 -46 147 -52 433 -64 357 -14 536 -2 666 44 271 96 473 324
552 623 15 59 16 79 29 440 5 154 13 293 18 309 4 16 20 39 35 50 26 19 47 20
370 26 225 5 352 11 372 19 53 20 69 65 67 194 0 61 -8 164 -17 227 -8 63 -22
165 -31 225 -35 258 -56 396 -89 595 -8 47 -21 137 -30 200 -24 173 -54 357
-85 515 -7 33 -16 80 -20 105 -10 64 -41 183 -75 295 -6 22 -20 67 -30 100
-20 67 -103 273 -119 294 -13 16 -32 49 -45 76 -5 11 -17 29 -28 40 -10 11
-38 44 -62 73 -23 29 -71 69 -105 89 l-61 38 -126 0 c-107 0 -130 -3 -146 -17
-11 -10 -24 -18 -30 -18 -18 0 -116 -102 -154 -160 -33 -51 -91 -180 -102
-225 -3 -11 -14 -54 -25 -95 -29 -108 -50 -330 -57 -600 -8 -352 -38 -547
-117 -760 -27 -73 -109 -200 -156 -240 -91 -79 -148 -102 -247 -103 -69 -1
-88 3 -140 28 -74 37 -160 121 -206 200 -42 72 -99 206 -99 233 0 10 -6 38
-14 63 -39 127 -62 351 -71 704 -10 397 -62 616 -192 812 -38 58 -91 109 -155
150 -39 25 -52 27 -148 29 -58 1 -117 0 -132 -3z m207 -112 c49 -22 144 -121
176 -181 98 -187 129 -394 144 -935 3 -110 12 -240 21 -290 25 -147 45 -238
60 -273 8 -18 14 -39 14 -47 0 -15 13 -47 66 -160 53 -112 160 -226 265 -282
165 -88 376 -57 514 75 103 98 151 177 220 362 63 170 101 476 109 870 5 229
13 302 50 460 20 83 40 138 54 152 7 7 12 18 12 26 0 21 66 115 113 163 155
156 358 72 500 -206 42 -83 77 -161 77 -173 0 -6 6 -26 14 -44 8 -18 22 -60
32 -93 9 -33 23 -78 30 -100 6 -22 20 -76 29 -120 9 -44 23 -107 30 -140 38
-176 52 -258 75 -420 13 -93 29 -202 45 -295 8 -47 21 -134 30 -195 9 -60 22
-150 30 -200 68 -437 92 -666 78 -750 l-8 -50 -315 -8 c-369 -9 -396 -14 -470
-88 -33 -33 -49 -58 -54 -86 -9 -49 -25 -429 -26 -594 0 -159 -14 -208 -117
-404 -9 -16 -53 -67 -99 -112 -84 -83 -176 -142 -269 -175 -104 -37 -401 -48
-758 -27 -176 10 -194 13 -255 40 -178 80 -313 206 -386 363 -69 145 -76 198
-85 581 -7 320 -8 332 -29 368 -29 46 -71 81 -126 105 -38 17 -80 20 -369 27
-253 6 -329 10 -338 21 -11 13 -6 46 27 191 8 34 14 77 14 94 0 18 7 71 14
118 25 148 38 234 46 301 4 36 13 97 19 135 6 39 18 126 26 195 9 69 22 163
30 210 8 47 17 117 20 155 3 39 10 93 15 120 5 28 16 97 25 155 9 58 23 132
30 165 8 33 21 98 30 145 20 100 48 201 94 345 51 156 143 331 218 410 96 103
214 139 308 96z"/>
<path d="M2435 4619 c-16 -7 -37 -18 -46 -25 -8 -8 -20 -14 -26 -14 -15 0
-108 -92 -124 -124 -152 -289 -317 -673 -358 -831 -5 -16 -20 -65 -35 -108
-14 -42 -26 -85 -26 -93 0 -9 -7 -37 -15 -63 -67 -213 -99 -465 -92 -702 8
-227 20 -295 78 -454 38 -103 53 -135 112 -247 57 -108 228 -315 343 -413 71
-61 140 -115 147 -115 3 0 31 -18 63 -39 113 -75 392 -201 444 -201 8 0 32 -6
55 -14 110 -38 467 -54 585 -26 193 45 234 62 550 225 158 81 321 135 410 135
113 0 292 -68 570 -217 195 -104 351 -148 568 -159 235 -12 489 42 717 153 98
48 174 91 212 119 17 13 35 24 38 24 26 0 205 165 311 285 116 134 156 193
222 330 50 103 60 128 92 230 56 181 66 291 51 550 -9 145 -16 186 -61 375
-21 85 -56 192 -76 233 -8 16 -14 35 -14 44 0 8 -6 27 -14 41 -8 15 -29 63
-46 107 -18 44 -38 94 -46 110 -7 17 -25 57 -39 90 -15 33 -35 78 -45 100 -10
22 -31 67 -45 100 -39 88 -59 132 -94 208 -17 37 -31 69 -31 72 0 26 -80 165
-121 209 -47 52 -63 64 -129 98 -17 9 -89 14 -235 16 -250 4 -382 -7 -417 -34
-30 -22 -78 -87 -96 -129 -16 -36 -52 -215 -52 -256 0 -17 -6 -58 -14 -92 -8
-34 -22 -111 -31 -172 -9 -60 -23 -127 -31 -147 -81 -216 -125 -296 -239 -432
-36 -43 -121 -115 -165 -141 -84 -48 -162 -77 -265 -101 -71 -16 -130 -18
-500 -17 -446 0 -507 5 -660 55 -284 92 -476 320 -526 623 -8 51 -18 148 -45
455 -8 96 -23 197 -32 224 -20 58 -96 140 -139 150 -53 13 -606 17 -638 5z
m604 -124 c70 -42 80 -80 101 -390 21 -296 47 -436 105 -570 7 -16 16 -37 19
-45 9 -22 24 -46 85 -128 90 -123 210 -215 381 -292 8 -4 42 -15 75 -25 150
-45 176 -47 620 -51 396 -5 439 -3 540 15 152 27 249 65 366 143 84 55 200
174 251 254 24 38 49 78 56 89 6 11 17 30 22 43 5 13 21 46 34 75 34 76 86
236 86 269 0 29 28 190 46 260 8 32 14 73 14 92 0 55 36 193 59 225 40 55 67
61 303 61 254 0 284 -7 363 -85 38 -39 58 -71 84 -135 31 -77 58 -141 111
-255 10 -22 30 -66 44 -97 14 -32 37 -82 50 -110 28 -63 122 -287 143 -343 8
-22 20 -49 26 -60 5 -11 14 -33 18 -50 4 -16 18 -61 32 -100 13 -38 31 -97 40
-130 9 -33 24 -89 34 -125 15 -54 17 -107 18 -325 0 -272 2 -254 -47 -400 -5
-16 -13 -43 -17 -60 -4 -16 -19 -55 -33 -85 -14 -30 -28 -62 -32 -70 -4 -8
-12 -24 -19 -35 -7 -11 -25 -43 -41 -70 -83 -142 -234 -307 -386 -421 -143
-106 -300 -193 -416 -230 -221 -69 -304 -84 -477 -84 -153 0 -218 9 -362 53
-62 19 -330 146 -367 173 -13 10 -196 88 -268 114 -97 34 -285 37 -385 5 -76
-25 -265 -106 -307 -132 -49 -30 -222 -116 -273 -136 -52 -19 -133 -43 -216
-62 -75 -17 -319 -20 -386 -5 -24 6 -71 14 -105 20 -111 17 -293 80 -378 130
-8 5 -33 19 -55 31 -172 93 -368 265 -494 433 -37 50 -70 98 -74 106 -4 8 -16
29 -27 45 -11 17 -25 41 -30 55 -6 13 -22 46 -36 73 -13 27 -24 55 -24 62 0 8
-6 29 -14 47 -26 63 -66 215 -66 253 0 6 15 15 32 20 18 6 37 19 43 31 5 11
44 66 85 123 41 56 102 139 134 184 33 45 73 101 90 124 17 23 41 57 54 75 64
91 183 255 196 270 8 9 23 29 32 45 10 15 44 62 75 103 31 41 77 107 104 145
26 39 54 74 61 78 8 4 14 13 14 18 0 6 26 45 58 87 32 42 80 109 107 147 27
39 57 82 68 96 21 29 16 69 -8 69 -18 0 -98 -104 -335 -436 -41 -58 -134 -187
-207 -287 -73 -100 -160 -220 -193 -267 -87 -121 -322 -446 -365 -503 -21 -27
-41 -45 -47 -41 -23 15 2 359 38 524 8 36 14 74 14 85 0 11 7 33 15 49 8 15
15 41 15 57 0 17 7 46 15 66 8 19 15 44 15 54 0 10 6 33 14 51 8 18 24 67 37
108 12 41 26 79 31 85 4 5 8 18 8 30 0 12 4 25 8 31 4 5 18 36 31 69 76 201
167 403 259 579 21 40 98 102 149 119 40 14 88 16 288 14 222 -2 243 -4 274
-22z"/>
<path d="M2708 4352 c-24 -31 -53 -71 -65 -87 -13 -17 -44 -61 -70 -98 -25
-38 -57 -78 -70 -90 -12 -12 -23 -26 -23 -31 0 -5 -18 -32 -41 -60 -78 -98
-315 -422 -322 -439 -3 -9 -11 -17 -17 -17 -5 0 -10 -7 -10 -15 0 -8 -5 -15
-10 -15 -6 0 -13 -8 -17 -17 -4 -10 -18 -32 -32 -50 -97 -119 -116 -166 -68
-171 19 -2 29 2 34 15 4 10 68 100 142 200 75 99 145 194 156 209 11 15 30 40
43 55 12 15 22 32 22 38 0 7 7 14 15 17 8 4 15 12 15 19 0 7 7 15 15 19 8 3
15 10 15 16 0 9 170 241 302 413 29 38 56 77 60 87 4 10 12 21 18 25 8 5 8 11
-1 21 -22 27 -47 15 -91 -44z"/>
<path d="M6157 4302 c-10 -10 -17 -22 -17 -27 0 -4 -15 -22 -32 -40 -18 -17
-51 -53 -73 -80 -22 -26 -75 -89 -118 -139 -79 -93 -93 -128 -51 -134 15 -2
41 21 102 92 45 52 82 100 82 105 0 6 6 14 13 18 30 19 168 195 163 209 -8 20
-50 17 -69 -4z"/>
<path d="M6451 4048 c-67 -80 -98 -117 -211 -253 -108 -131 -129 -156 -178
-214 -68 -81 -222 -266 -246 -296 -13 -16 -55 -66 -92 -111 -74 -87 -95 -111
-234 -279 -108 -131 -129 -156 -178 -214 -64 -76 -221 -265 -246 -296 -13 -16
-54 -66 -91 -110 -37 -44 -80 -96 -96 -115 -38 -46 -204 -245 -253 -304 -64
-76 -65 -78 -52 -98 21 -35 30 -29 137 102 34 41 71 86 83 100 11 13 26 32 31
41 6 10 26 35 45 56 20 21 67 76 105 123 38 47 73 90 79 96 6 6 29 32 51 59
128 153 228 274 249 300 23 29 147 176 189 225 12 13 27 32 32 41 6 10 26 35
45 56 20 21 67 76 105 123 38 47 73 90 79 96 6 6 29 32 51 59 128 153 228 274
249 300 23 29 147 176 189 225 12 13 27 32 32 41 6 9 33 43 62 75 116 132 172
208 161 221 -20 25 -46 12 -97 -49z"/>
<path d="M6718 3708 c-13 -13 -41 -46 -63 -73 -22 -27 -79 -95 -127 -152 -49
-56 -88 -105 -88 -109 0 -4 -15 -22 -32 -39 -52 -52 -88 -93 -88 -100 0 -3
-42 -55 -92 -114 -51 -59 -109 -127 -128 -151 -19 -24 -64 -78 -100 -121 -36
-42 -81 -96 -100 -120 -19 -24 -74 -89 -122 -146 -49 -56 -88 -105 -88 -109 0
-4 -15 -22 -32 -39 -52 -52 -88 -93 -88 -99 0 -4 -41 -55 -90 -114 -50 -59
-101 -120 -114 -137 -13 -16 -55 -66 -92 -111 -38 -44 -87 -102 -109 -129 -22
-26 -59 -70 -82 -98 -47 -55 -51 -68 -28 -87 16 -13 51 6 70 38 9 17 51 68
143 172 17 21 32 41 32 45 0 4 15 23 33 40 51 52 87 93 87 100 0 3 42 55 93
114 50 59 108 128 128 152 21 24 66 78 100 119 35 42 80 95 99 119 19 25 74
91 123 147 48 57 87 106 87 110 0 4 15 22 33 39 51 52 87 93 87 100 0 3 42 55
93 114 50 59 108 128 128 152 21 24 66 78 100 119 35 42 80 95 99 119 19 24
68 83 108 130 52 63 72 93 70 110 -4 34 -23 37 -50 9z"/>
<path d="M2994 3621 c-11 -16 -49 -69 -86 -118 -53 -69 -262 -350 -363 -488
-40 -55 -139 -186 -175 -231 -22 -28 -40 -55 -40 -59 0 -8 -58 -84 -76 -100
-7 -5 -13 -15 -15 -22 -2 -6 -28 -42 -57 -80 -184 -239 -204 -274 -156 -281
14 -2 32 11 57 42 21 24 37 48 37 54 0 5 13 22 30 38 16 16 30 32 30 36 0 7
196 273 302 411 29 38 55 74 57 80 2 7 8 17 15 22 17 15 76 92 76 99 0 3 19
31 43 61 23 30 71 94 107 142 36 48 68 93 73 98 109 140 207 283 205 300 -5
33 -43 31 -64 -4z"/>
<path d="M3020 3050 c-85 -116 -181 -243 -212 -283 -32 -39 -58 -77 -58 -84 0
-7 -6 -16 -13 -20 -14 -9 -107 -130 -107 -139 0 -4 -12 -20 -26 -38 -14 -17
-104 -137 -200 -266 -179 -239 -197 -275 -144 -275 16 0 29 8 36 24 7 13 16
26 21 30 5 3 30 35 55 71 80 116 231 315 245 323 7 4 13 13 13 18 0 9 172 244
302 412 29 38 56 76 59 86 4 9 18 28 33 41 14 14 26 29 26 34 0 4 26 41 58 81
129 165 143 196 90 195 -18 -1 -56 -46 -178 -210z"/>
<path d="M6852 3153 c-33 -35 -89 -98 -227 -258 -24 -27 -81 -93 -126 -146
-46 -52 -104 -119 -129 -149 -69 -82 -108 -127 -203 -235 -48 -55 -106 -122
-130 -149 -23 -26 -57 -63 -74 -81 -18 -17 -33 -35 -33 -39 0 -4 -54 -69 -120
-144 -66 -75 -137 -157 -159 -182 -21 -25 -74 -85 -118 -135 -121 -138 -138
-162 -123 -180 7 -8 18 -15 26 -15 7 0 46 39 86 86 40 48 89 103 108 124 19
21 53 59 75 85 22 26 95 111 162 189 68 78 138 159 157 181 60 70 217 249 250
285 17 19 38 44 46 56 17 24 122 144 193 220 26 28 47 54 47 58 0 7 46 59 118
130 17 18 32 36 32 40 0 4 47 59 105 124 82 90 105 123 103 141 -5 38 -26 36
-66 -6z"/>
<path d="M3477 3017 c-12 -13 -32 -37 -45 -53 -12 -16 -50 -63 -83 -104 -34
-41 -82 -102 -107 -135 -26 -33 -50 -62 -54 -65 -4 -3 -27 -31 -50 -61 -42
-54 -100 -127 -158 -199 -26 -31 -96 -120 -151 -190 -10 -14 -47 -59 -80 -100
-34 -41 -82 -102 -107 -135 -26 -33 -51 -64 -58 -70 -32 -28 -105 -138 -102
-153 6 -33 38 -25 78 20 22 24 39 48 40 55 0 7 6 16 13 20 7 4 59 67 116 138
57 72 117 148 135 170 17 21 46 56 64 76 17 20 32 41 32 45 0 5 8 17 18 25 22
20 64 69 77 90 6 9 37 49 70 89 33 40 65 81 72 92 6 12 15 23 20 27 9 6 265
326 302 377 38 53 3 88 -42 41z"/>
<path d="M4869 2897 c-23 -21 -68 -78 -167 -206 -24 -31 -47 -57 -52 -59 -6
-2 -10 -8 -10 -13 0 -6 -12 -21 -27 -35 -14 -13 -31 -33 -37 -43 -6 -10 -38
-51 -71 -91 -33 -40 -65 -81 -72 -92 -6 -12 -15 -23 -20 -27 -7 -5 -284 -347
-355 -438 -14 -19 -42 -53 -61 -76 -128 -152 -161 -201 -153 -222 15 -40 59
-5 166 135 19 25 43 54 52 65 15 17 60 74 139 175 10 14 47 59 80 100 34 41
82 102 108 135 25 33 57 70 70 83 13 12 29 31 35 41 9 16 82 109 170 216 42
52 109 136 169 213 32 41 67 84 78 95 24 26 24 30 1 51 -18 15 -20 15 -43 -7z"/>
<path d="M4323 2813 c-38 -48 -96 -122 -130 -165 -35 -43 -63 -82 -63 -86 0
-4 -8 -15 -17 -23 -25 -22 -67 -73 -148 -178 -38 -51 -103 -133 -143 -184 -41
-51 -82 -103 -93 -117 -11 -14 -50 -63 -87 -108 -37 -46 -71 -91 -77 -100 -5
-10 -20 -28 -32 -42 -25 -30 -159 -200 -226 -287 -49 -65 -53 -93 -12 -93 13
0 30 11 40 26 9 14 23 33 31 42 8 9 48 60 89 112 40 52 80 102 87 110 7 8 42
53 78 100 36 46 71 91 78 100 41 47 149 185 159 202 6 12 15 23 20 27 5 3 38
44 74 89 35 46 93 121 129 166 36 46 101 129 145 186 44 57 101 128 127 159
26 31 48 61 48 68 0 7 6 16 14 20 27 15 24 63 -4 63 -13 0 -43 -29 -87 -87z"/>
<path d="M3853 2873 c-13 -8 -23 -21 -23 -27 0 -6 -23 -38 -52 -71 -28 -33
-75 -91 -104 -130 -29 -38 -94 -122 -144 -185 -49 -63 -117 -149 -149 -190
-32 -41 -68 -86 -79 -100 -12 -14 -53 -65 -91 -115 -38 -49 -75 -97 -83 -105
-7 -8 -42 -53 -78 -100 -36 -46 -71 -91 -78 -100 -53 -62 -150 -188 -167 -217
-16 -29 -17 -36 -5 -43 27 -17 38 -11 82 46 24 31 81 103 128 161 47 58 91
116 98 129 7 13 17 24 23 24 5 0 9 5 9 10 0 6 8 18 18 28 9 10 62 76 117 147
120 155 238 304 317 402 32 40 58 76 58 81 0 4 8 15 18 24 34 31 72 76 72 86
0 5 7 16 17 23 9 8 50 59 91 113 70 93 74 100 57 113 -23 16 -24 16 -52 -4z"/>
<path d="M6955 2773 c-29 -35 -204 -230 -289 -323 -22 -24 -51 -57 -63 -73
-12 -16 -46 -55 -75 -86 -47 -49 -145 -158 -294 -326 -25 -27 -73 -81 -109
-120 -101 -112 -377 -419 -407 -455 -31 -36 -34 -52 -14 -69 17 -15 36 -7 61
25 18 23 160 183 294 331 31 34 77 85 102 115 26 29 100 112 165 183 66 72
144 159 174 194 30 35 125 141 210 236 85 95 180 201 210 235 30 35 70 77 88
96 39 38 39 68 2 71 -18 2 -33 -7 -55 -34z"/>
<path d="M6968 2244 c-24 -25 -64 -67 -90 -93 -27 -27 -48 -51 -48 -55 0 -4
-75 -89 -167 -190 -93 -101 -191 -210 -219 -242 -28 -32 -68 -78 -89 -101 -65
-74 -25 -115 42 -43 21 23 59 63 86 90 26 26 47 50 47 54 0 4 77 91 170 194
94 103 192 212 219 242 27 30 68 76 91 102 31 35 40 52 35 68 -10 31 -29 24
-77 -26z"/>
</g>
</svg>
