<?xml version="1.0" standalone="no"?>
<!DOCTYPE svg PUBLIC "-//W3C//DTD SVG 20010904//EN"
 "http://www.w3.org/TR/2001/REC-SVG-20010904/DTD/svg10.dtd">
<svg version="1.0" xmlns="http://www.w3.org/2000/svg"
 width="291.000000pt" height="900.000000pt" viewBox="0 0 291.000000 900.000000"
 preserveAspectRatio="xMidYMid meet">
<metadata>
Created by potrace 1.10, written by Peter Selinger 2001-2011
</metadata>
<g transform="translate(0.000000,900.000000) scale(0.100000,-0.100000)"
fill="#3d85c6" stroke="none">
<path d="M2179 8695 c-80 -29 -220 -133 -394 -292 -66 -60 -141 -135 -167
-165 -48 -55 -149 -192 -161 -219 -4 -8 -21 -36 -37 -64 -56 -92 -151 -295
-200 -425 -18 -47 -39 -103 -47 -125 -8 -22 -21 -55 -29 -73 -8 -18 -14 -39
-14 -47 0 -8 -6 -29 -14 -47 -7 -18 -21 -60 -31 -93 -10 -33 -23 -80 -31 -105
-19 -65 -39 -136 -57 -205 -49 -189 -70 -275 -77 -315 -5 -25 -18 -85 -30
-134 -12 -48 -26 -111 -30 -140 -7 -45 -23 -127 -76 -391 -31 -155 -44 -237
-44 -272 0 -20 -6 -59 -14 -87 -15 -50 -31 -163 -45 -301 -4 -38 -13 -92 -19
-120 -6 -27 -18 -113 -27 -190 -9 -77 -22 -178 -30 -225 -8 -47 -16 -121 -19
-165 -4 -44 -10 -105 -15 -135 -11 -63 -36 -283 -52 -450 -6 -63 -14 -146 -19
-185 -8 -74 -23 -223 -40 -415 -5 -63 -14 -149 -20 -190 -5 -41 -16 -154 -24
-250 -11 -127 -21 -190 -36 -230 -29 -76 -83 -238 -113 -340 -50 -168 -117
-427 -124 -475 -2 -16 -10 -64 -18 -105 -59 -311 -66 -367 -96 -729 -13 -157
-7 -373 11 -436 53 -181 78 -235 147 -327 41 -54 128 -129 183 -158 13 -7 56
-21 95 -31 63 -17 118 -19 540 -19 483 0 687 11 810 46 130 36 165 48 235 77
209 87 380 238 438 387 44 112 46 130 45 340 -2 194 -17 474 -48 890 -13 178
-19 228 -50 426 -8 49 -15 107 -15 127 0 20 -12 80 -26 134 -14 54 -29 114
-34 133 -4 19 -12 47 -18 62 -15 36 -30 187 -42 422 -6 110 -15 218 -20 240
-4 23 -11 118 -14 211 -7 178 -20 401 -37 618 -5 70 -16 307 -24 525 -8 218
-20 516 -26 662 -12 273 -7 722 11 970 5 74 14 223 20 331 5 108 15 232 20
275 6 44 18 131 26 194 15 115 32 215 60 341 8 37 14 75 14 85 0 10 6 36 14
59 8 22 22 69 31 105 9 36 23 81 30 100 7 19 21 64 30 100 10 36 25 88 34 115
12 40 16 95 16 270 0 206 -2 224 -23 281 -28 74 -74 132 -118 150 -41 17 -117
17 -165 -1z m120 -164 c25 -25 49 -109 57 -197 8 -97 -19 -286 -59 -415 -13
-41 -32 -103 -42 -139 -9 -36 -23 -83 -30 -105 -7 -22 -21 -78 -30 -125 -10
-47 -24 -107 -31 -134 -8 -27 -14 -65 -14 -84 0 -19 -7 -71 -15 -116 -36 -197
-45 -265 -46 -326 0 -36 -4 -85 -9 -110 -6 -25 -14 -135 -19 -245 -6 -110 -15
-274 -22 -365 -18 -261 -4 -964 32 -1610 6 -102 14 -293 19 -425 5 -132 14
-278 19 -325 17 -136 43 -588 39 -670 -2 -48 -7 -75 -15 -75 -12 0 -43 27
-173 149 -264 248 -554 334 -795 236 -169 -69 -260 -136 -489 -362 -38 -37
-73 -68 -78 -68 -11 0 -10 242 3 320 6 36 14 115 19 175 12 168 29 330 45 435
8 52 21 174 30 270 8 96 22 216 30 265 8 50 22 149 30 220 23 189 44 331 72
500 14 83 29 188 34 235 4 47 18 128 29 180 12 52 26 129 31 170 5 41 16 107
24 145 9 39 20 97 26 130 6 33 16 87 24 120 7 33 21 98 30 145 9 47 23 108 31
135 21 76 65 255 75 305 5 25 21 83 35 130 15 47 33 108 40 135 8 28 21 66 28
85 8 19 21 62 30 95 9 33 23 76 30 95 8 19 21 55 31 80 9 25 23 59 30 75 6 17
17 41 23 55 58 139 156 336 199 401 18 28 33 52 33 54 0 8 47 72 102 140 97
121 358 362 433 402 67 35 127 41 154 14z m-814 -5200 c109 -30 134 -42 230
-105 161 -107 357 -330 449 -513 25 -50 46 -98 46 -108 0 -9 6 -28 14 -43 23
-47 30 -84 81 -422 8 -52 19 -144 25 -203 5 -60 12 -113 15 -118 6 -9 11 -77
35 -507 6 -107 10 -303 8 -435 l-3 -242 -30 -58 c-92 -183 -326 -324 -640
-387 -105 -21 -137 -22 -665 -24 -550 -1 -555 -1 -595 21 -126 67 -225 196
-271 353 -16 56 -19 93 -17 270 1 114 7 246 13 295 6 50 15 142 20 205 5 63
14 133 19 155 5 22 17 83 26 135 33 195 103 492 150 640 51 160 86 261 104
302 26 61 119 218 168 285 21 28 55 76 77 106 54 76 250 266 318 310 71 45
114 64 198 87 85 24 140 24 225 1z"/>
</g>
</svg>
