<?xml version="1.0" standalone="no"?>
<!DOCTYPE svg PUBLIC "-//W3C//DTD SVG 20010904//EN"
 "http://www.w3.org/TR/2001/REC-SVG-20010904/DTD/svg10.dtd">
<svg version="1.0" xmlns="http://www.w3.org/2000/svg"
 width="900.000000pt" height="1224.000000pt" viewBox="0 0 900.000000 1224.000000"
 preserveAspectRatio="xMidYMid meet">
<metadata>
Created by potrace 1.10, written by Peter Selinger 2001-2011
</metadata>
<g transform="translate(0.000000,1224.000000) scale(0.100000,-0.100000)"
fill="#3d85c6" stroke="none">
<path d="M1745 11504 c-123 -14 -208 -31 -254 -52 -30 -13 -72 -29 -94 -37
-77 -26 -231 -129 -308 -205 -123 -121 -198 -246 -258 -429 -44 -132 -55 -179
-73 -306 -26 -187 -9 -461 39 -640 13 -49 35 -133 48 -185 28 -114 46 -180 79
-280 14 -41 47 -145 75 -230 57 -177 130 -390 161 -470 69 -177 112 -329 120
-421 5 -53 11 -107 15 -120 3 -13 9 -94 15 -179 12 -208 28 -389 45 -540 8
-69 17 -177 20 -240 6 -128 19 -227 41 -311 8 -30 14 -75 14 -100 0 -24 5 -62
10 -84 5 -22 14 -85 20 -140 6 -55 20 -143 31 -195 27 -127 48 -241 59 -320 5
-36 15 -94 24 -130 8 -36 26 -117 40 -180 14 -63 31 -135 37 -160 6 -25 15
-61 20 -80 4 -19 15 -60 24 -90 9 -30 23 -80 30 -110 23 -97 46 -183 70 -260
63 -201 126 -390 145 -440 12 -30 27 -73 34 -95 28 -84 161 -413 213 -525 14
-30 32 -71 41 -90 19 -45 25 -56 55 -116 14 -27 39 -78 57 -114 17 -36 53
-105 80 -155 27 -49 60 -110 72 -135 34 -68 195 -336 246 -410 25 -36 79 -114
120 -175 79 -116 175 -246 226 -306 17 -20 63 -74 101 -119 176 -207 311 -349
515 -539 253 -235 453 -391 760 -594 74 -49 153 -101 175 -117 22 -15 74 -45
115 -67 133 -72 195 -106 206 -114 6 -5 73 -40 150 -78 137 -68 160 -77 294
-108 164 -38 317 26 366 153 14 36 16 68 11 186 -5 135 -10 166 -43 246 -8 18
-14 40 -14 49 0 31 -63 186 -123 303 -33 63 -98 173 -146 245 -47 71 -90 137
-96 147 -10 17 -70 117 -92 153 -31 51 -226 451 -263 539 -23 54 -46 106 -50
115 -5 9 -26 61 -46 116 -20 55 -45 123 -56 150 -11 28 -24 64 -28 80 -13 45
-89 275 -105 315 -7 19 -20 62 -29 95 -9 33 -31 116 -50 185 -19 69 -39 150
-46 180 -6 30 -17 84 -25 120 -29 137 -44 228 -50 295 -3 39 -9 85 -12 103 -4
25 -2 32 11 32 8 0 21 -11 28 -24 7 -13 31 -45 53 -71 36 -43 82 -114 102
-155 4 -8 40 -70 80 -137 40 -68 73 -126 73 -129 0 -5 78 -134 162 -269 107
-170 331 -500 405 -596 27 -34 89 -115 138 -179 277 -361 363 -458 680 -771
252 -249 424 -392 704 -587 90 -62 283 -172 303 -172 9 0 19 -4 22 -8 6 -10
166 -72 251 -97 33 -10 78 -23 100 -30 178 -56 540 -70 740 -29 39 8 78 14 88
14 10 0 53 14 94 32 95 39 202 138 221 204 24 81 25 131 6 211 -44 192 -161
365 -339 501 -33 25 -62 49 -65 52 -3 3 -32 27 -65 55 -98 81 -261 243 -359
355 -50 58 -96 110 -102 115 -20 17 -158 205 -236 321 -130 191 -296 499 -383
709 -49 118 -162 440 -174 495 -4 19 -13 51 -19 70 -6 19 -20 69 -32 110 -12
41 -25 86 -30 100 -8 23 -17 68 -56 275 -8 44 -19 98 -25 120 -24 101 -58 351
-79 580 -5 55 -12 109 -15 120 -6 20 -19 268 -31 615 -11 280 25 1046 61 1335
8 61 17 148 20 195 9 140 24 288 41 405 28 202 40 242 108 379 30 61 64 133
77 160 25 54 80 237 109 361 47 205 64 569 35 770 -8 55 -15 122 -15 149 0
108 -80 386 -152 531 -118 238 -290 412 -461 465 -77 24 -276 28 -353 6 -117
-33 -181 -40 -251 -27 -38 7 -84 18 -103 26 -59 22 -212 86 -265 110 -118 54
-427 145 -492 145 -26 0 -77 7 -113 14 -137 29 -338 40 -470 26 -67 -7 -145
-19 -174 -26 -28 -8 -67 -14 -87 -14 -38 0 -59 -6 -259 -70 -107 -35 -173 -60
-259 -97 -70 -31 -346 -25 -367 8 -3 5 -15 9 -28 9 -12 0 -26 4 -31 9 -6 5
-64 28 -130 51 -66 23 -145 51 -175 62 -30 11 -71 24 -90 28 -19 5 -54 16 -77
24 -56 21 -185 55 -248 67 -27 5 -81 18 -120 29 -66 19 -112 26 -352 50 -92 9
-322 11 -388 4z m356 -224 c143 -11 368 -43 434 -61 22 -6 60 -17 85 -24 25
-8 72 -21 105 -30 65 -18 105 -32 230 -76 43 -16 87 -29 96 -29 10 0 39 -11
66 -24 119 -60 353 -121 463 -121 102 0 290 50 438 117 35 15 72 28 81 28 10
0 37 6 62 14 216 68 285 79 508 80 184 0 292 -10 416 -41 33 -9 76 -19 95 -23
131 -30 177 -44 275 -80 61 -23 164 -68 231 -101 67 -32 128 -59 136 -59 9 0
32 -7 51 -15 62 -26 238 -20 354 11 57 15 128 27 168 28 63 1 79 -3 146 -37
123 -61 219 -171 308 -352 170 -341 207 -880 91 -1330 -42 -163 -41 -160 -77
-255 -139 -363 -424 -667 -748 -796 -160 -64 -227 -79 -498 -114 -228 -29
-729 -29 -932 0 -225 32 -277 41 -324 56 -25 8 -55 14 -67 14 -13 0 -38 6 -56
14 -18 8 -60 22 -93 31 -33 9 -94 30 -136 46 -42 16 -79 29 -83 29 -5 0 -54
22 -110 49 -232 112 -286 134 -394 162 -62 15 -134 35 -160 43 -50 16 -171 36
-367 61 -66 9 -151 21 -190 28 -102 18 -708 16 -845 -2 -58 -8 -161 -15 -230
-15 -106 -1 -130 2 -154 17 -31 21 -79 117 -120 238 -14 41 -34 99 -46 129
-12 30 -25 66 -30 80 -5 14 -27 77 -49 140 -23 63 -41 122 -41 132 0 9 -6 32
-14 50 -30 71 -46 118 -81 243 -21 72 -42 148 -47 170 -5 22 -14 55 -19 72 -6
18 -14 54 -19 80 -4 27 -20 102 -34 168 -15 71 -26 153 -26 201 0 87 26 244
60 364 11 41 25 89 29 105 30 111 128 269 228 368 105 103 198 155 334 186
168 39 293 46 500 31z m709 -2996 c264 -28 489 -74 598 -120 18 -8 38 -14 45
-14 11 0 193 -86 309 -146 54 -29 119 -53 168 -64 19 -5 67 -20 105 -34 39
-15 102 -33 140 -41 39 -8 104 -22 145 -31 41 -8 89 -19 105 -24 75 -23 216
-41 400 -50 110 -5 214 -12 232 -15 36 -6 508 19 678 36 61 6 121 15 135 21
14 5 45 14 70 18 107 20 252 68 322 106 14 8 31 14 37 14 6 0 30 12 54 27 57
37 185 93 213 93 12 0 24 -6 26 -12 10 -27 -6 -500 -32 -973 -31 -560 3 -1532
65 -1819 14 -65 25 -137 25 -160 0 -53 38 -251 107 -551 8 -38 28 -110 43
-160 15 -49 37 -121 48 -160 59 -198 206 -566 291 -725 4 -8 33 -62 63 -120
87 -165 161 -289 236 -396 38 -54 87 -125 109 -157 149 -215 411 -497 638
-687 168 -141 243 -220 301 -320 123 -209 69 -291 -227 -344 -250 -46 -552 -2
-844 122 -113 48 -239 113 -310 161 -131 88 -183 125 -205 145 -14 12 -37 30
-51 38 -14 9 -48 35 -75 58 -27 23 -76 65 -109 93 -197 169 -511 490 -725 742
-23 28 -52 61 -64 75 -49 57 -218 273 -302 385 -115 155 -187 260 -362 530
-144 222 -374 632 -443 790 -15 33 -63 136 -108 228 -44 93 -81 173 -81 179 0
5 -7 23 -15 39 -8 16 -22 44 -31 62 -41 79 -97 117 -176 117 -65 0 -107 -23
-145 -81 -27 -41 -28 -46 -28 -178 1 -92 8 -176 22 -261 12 -69 27 -161 33
-205 6 -44 23 -127 37 -185 14 -58 29 -126 33 -151 5 -25 22 -99 39 -165 17
-65 36 -139 42 -164 6 -25 15 -58 21 -75 12 -36 17 -53 67 -229 21 -76 46
-155 54 -175 9 -20 27 -76 42 -126 15 -49 35 -108 45 -130 42 -97 50 -117 50
-130 0 -8 7 -31 16 -52 45 -104 68 -159 120 -283 50 -121 196 -422 254 -525
64 -115 111 -192 185 -305 121 -185 235 -395 235 -433 0 -7 4 -17 9 -23 32
-34 65 -233 55 -328 -10 -83 -29 -100 -101 -91 -30 4 -85 18 -121 32 -37 13
-78 28 -92 33 -39 13 -119 54 -204 104 -43 25 -79 46 -81 46 -10 0 -255 152
-365 227 -240 162 -363 254 -565 422 -160 134 -585 567 -692 706 -21 27 -86
109 -145 183 -58 74 -130 168 -159 210 -29 43 -71 103 -93 135 -46 66 -51 73
-123 192 -29 48 -53 89 -53 92 0 4 -6 14 -14 22 -13 15 -32 49 -124 221 -111
206 -209 416 -326 700 -27 63 -54 129 -61 145 -16 37 -57 148 -86 235 -12 36
-27 79 -34 95 -7 17 -20 55 -29 85 -9 30 -26 89 -40 130 -13 41 -33 111 -45
155 -41 146 -54 190 -68 222 -7 17 -13 37 -13 45 0 18 -27 133 -57 243 -13 50
-28 115 -33 147 -4 31 -11 61 -15 67 -3 7 -11 37 -15 69 -5 31 -20 111 -34
177 -13 66 -27 138 -30 160 -4 22 -11 60 -16 85 -50 249 -59 300 -71 432 -6
62 -19 181 -31 263 -11 83 -24 186 -28 230 -5 44 -13 103 -18 130 -11 53 -33
476 -35 680 -2 118 6 157 37 178 35 23 195 46 416 57 200 11 667 2 830 -16z"/>
</g>
</svg>
