<?xml version="1.0" standalone="no"?>
<!DOCTYPE svg PUBLIC "-//W3C//DTD SVG 20010904//EN"
 "http://www.w3.org/TR/2001/REC-SVG-20010904/DTD/svg10.dtd">
<svg version="1.0" xmlns="http://www.w3.org/2000/svg"
 width="282.000000pt" height="900.000000pt" viewBox="0 0 282.000000 900.000000"
 preserveAspectRatio="xMidYMid meet">
<metadata>
Created by potrace 1.10, written by Peter Selinger 2001-2011
</metadata>
<g transform="translate(0.000000,900.000000) scale(0.100000,-0.100000)"
fill="#3d85c6" stroke="none">
<path d="M1273 8582 c-23 -10 -48 -23 -55 -30 -6 -6 -16 -12 -21 -12 -12 0
-190 -134 -297 -224 -47 -40 -141 -114 -210 -166 -196 -148 -270 -215 -339
-309 -116 -158 -146 -265 -145 -511 1 -149 21 -330 39 -360 3 -6 10 -31 15
-58 13 -71 41 -166 51 -176 5 -6 9 -20 9 -33 0 -12 6 -37 14 -55 55 -129 74
-204 80 -318 10 -168 26 -329 42 -410 8 -42 14 -108 14 -149 0 -40 7 -121 15
-180 9 -58 20 -137 26 -176 5 -38 12 -106 15 -150 3 -44 11 -118 19 -165 22
-134 36 -239 45 -325 4 -44 13 -105 19 -135 6 -30 20 -120 31 -200 21 -149 27
-190 62 -395 11 -66 24 -147 30 -180 5 -33 15 -91 23 -130 7 -38 21 -110 30
-160 9 -49 22 -119 30 -155 8 -36 16 -78 20 -95 25 -135 35 -187 45 -230 6
-27 18 -81 26 -120 8 -38 20 -88 25 -109 6 -21 14 -60 19 -85 4 -25 17 -83 29
-129 12 -46 26 -102 31 -125 5 -23 22 -94 39 -157 17 -63 36 -135 42 -160 7
-25 25 -88 41 -141 15 -53 28 -103 28 -111 0 -8 14 -57 30 -109 17 -52 37
-116 45 -144 84 -283 229 -679 286 -782 11 -21 31 -56 42 -78 73 -135 197
-287 302 -369 74 -57 97 -66 183 -66 71 0 83 3 119 29 93 67 161 202 208 411
32 145 20 506 -26 760 -5 30 -14 103 -19 161 -5 58 -14 134 -19 170 -6 35 -11
96 -11 134 -1 39 -5 90 -10 115 -6 25 -14 153 -20 285 -5 132 -14 299 -20 370
-12 170 -12 844 1 1010 5 72 14 252 18 400 5 149 14 306 19 350 15 107 31 284
42 447 5 73 14 151 19 173 6 22 11 62 11 89 0 62 27 280 45 374 8 40 15 91 15
113 0 22 6 77 14 122 40 225 46 266 46 310 0 26 6 73 14 105 8 31 22 91 32
132 9 41 22 86 29 100 6 14 19 54 29 90 9 36 23 88 31 115 8 28 21 86 29 130
8 44 22 115 30 158 11 51 16 133 16 240 0 149 -2 169 -26 237 -14 41 -28 85
-31 97 -3 12 -11 28 -19 34 -8 6 -14 16 -14 21 0 5 -26 44 -59 86 -75 99 -142
161 -382 352 -62 50 -159 129 -214 174 -166 136 -273 214 -335 242 -128 57
-251 71 -337 36z m187 -126 c49 -15 103 -39 135 -59 40 -25 243 -181 350 -269
61 -50 162 -132 225 -183 159 -128 263 -233 318 -320 67 -108 99 -312 68 -434
-9 -35 -16 -78 -16 -97 0 -38 -24 -163 -46 -240 -8 -28 -14 -58 -14 -67 0 -15
-47 -162 -84 -262 -47 -126 -144 -295 -235 -405 -183 -224 -446 -361 -694
-360 -57 0 -202 26 -257 45 -297 106 -542 374 -705 770 -56 135 -63 155 -80
220 -9 33 -22 80 -30 105 -7 25 -20 79 -28 120 -9 41 -22 102 -29 135 -18 84
-16 245 5 333 20 86 61 180 108 249 57 85 230 246 359 333 38 27 183 143 260
211 55 48 177 135 210 151 92 43 111 45 180 24z m-837 -2400 c10 -8 59 -52
110 -99 117 -109 208 -175 297 -217 25 -12 56 -27 70 -34 23 -11 64 -25 175
-56 76 -22 266 -24 352 -5 93 20 165 42 213 62 32 14 53 25 135 67 29 15 217
161 269 209 17 15 35 27 40 27 9 0 5 -102 -13 -320 -8 -102 -17 -168 -47 -356
-8 -49 -14 -122 -14 -161 0 -39 -7 -107 -15 -150 -8 -43 -15 -107 -15 -143 0
-36 -6 -132 -14 -215 -35 -354 -41 -540 -41 -1285 0 -747 3 -833 40 -1220 9
-85 16 -182 16 -215 0 -33 6 -89 14 -125 8 -36 14 -92 15 -125 0 -33 6 -98 14
-145 45 -269 49 -308 43 -452 -4 -109 -11 -167 -31 -243 -89 -340 -193 -386
-390 -174 -61 66 -146 180 -146 196 0 4 -6 14 -14 22 -36 40 -141 276 -196
441 -51 153 -56 166 -75 230 -9 30 -23 71 -30 90 -7 19 -27 87 -45 150 -18 63
-39 133 -46 155 -7 22 -25 85 -40 140 -14 55 -33 125 -41 155 -17 63 -39 150
-58 230 -7 30 -21 82 -30 115 -10 33 -21 80 -25 105 -4 25 -19 92 -33 150 -14
58 -33 139 -41 180 -9 41 -28 127 -42 190 -15 63 -30 144 -35 180 -5 36 -13
83 -18 105 -21 83 -54 260 -86 460 -9 55 -23 128 -31 162 -8 34 -14 74 -14 90
0 33 -26 204 -46 297 -8 38 -14 88 -14 111 0 24 -6 76 -14 116 -23 121 -36
221 -45 331 -5 56 -14 123 -19 148 -14 61 -30 190 -43 340 -5 69 -14 159 -19
200 -11 93 -13 300 -2 300 4 0 15 -7 25 -14z"/>
</g>
</svg>
