<?xml version="1.0" standalone="no"?>
<!DOCTYPE svg PUBLIC "-//W3C//DTD SVG 20010904//EN"
 "http://www.w3.org/TR/2001/REC-SVG-20010904/DTD/svg10.dtd">
<svg version="1.0" xmlns="http://www.w3.org/2000/svg"
 width="258.000000pt" height="900.000000pt" viewBox="0 0 258.000000 900.000000"
 preserveAspectRatio="xMidYMid meet">
<metadata>
Created by potrace 1.10, written by Peter Selinger 2001-2011
</metadata>
<g transform="translate(0.000000,900.000000) scale(0.100000,-0.100000)"
fill="#3d85c6" stroke="none">
<path d="M1194 8895 c-38 -19 -89 -50 -114 -68 -25 -17 -78 -56 -117 -84 -40
-29 -76 -53 -79 -53 -30 0 -319 -274 -465 -440 -134 -154 -250 -324 -287 -420
-67 -178 -85 -359 -62 -615 25 -264 48 -410 87 -545 26 -91 74 -234 84 -253
24 -45 42 -120 50 -207 4 -52 12 -135 18 -185 27 -224 41 -364 41 -405 0 -25
7 -81 15 -125 8 -44 14 -113 15 -153 0 -40 7 -117 15 -170 8 -53 21 -178 30
-277 9 -99 20 -209 25 -245 5 -36 14 -130 20 -209 6 -78 18 -202 26 -274 8
-73 19 -213 24 -312 6 -99 17 -267 26 -374 44 -559 44 -1561 0 -2018 -9 -87
-20 -214 -25 -283 -10 -138 -43 -398 -65 -530 -46 -262 -42 -377 16 -425 30
-26 56 -30 141 -26 55 3 207 77 296 143 157 118 333 324 448 523 53 92 133
266 180 390 8 22 21 55 29 73 8 18 14 40 14 50 0 9 7 26 15 36 8 11 15 28 15
39 0 10 14 59 30 109 17 49 30 95 30 101 0 7 14 64 31 127 45 165 55 208 89
370 17 80 37 174 45 210 8 36 22 112 30 170 9 58 22 137 30 175 14 67 24 136
59 395 8 63 20 151 26 195 11 84 33 300 50 496 5 64 14 136 19 160 6 24 11 80
11 124 0 44 5 118 10 165 6 47 15 159 20 250 5 91 14 208 20 260 5 52 10 142
10 200 0 58 5 132 10 165 6 33 15 166 20 295 6 129 17 312 25 405 8 94 20 244
25 335 11 164 17 193 70 330 19 52 85 245 150 445 60 184 80 305 80 492 0 153
-3 184 -39 408 -24 148 -31 172 -105 323 -96 196 -270 380 -518 548 -56 38
-109 72 -117 77 -9 4 -29 16 -46 27 -39 25 -158 83 -213 104 -26 10 -73 16
-120 16 -69 0 -86 -4 -148 -35z m231 -103 c42 -15 132 -61 210 -109 11 -7 27
-16 35 -20 79 -38 419 -307 420 -331 0 -4 19 -27 41 -52 44 -49 139 -202 139
-225 0 -7 4 -16 9 -19 8 -5 33 -81 67 -206 15 -55 18 -110 18 -350 1 -250 -1
-292 -18 -345 -10 -33 -25 -82 -33 -110 -9 -27 -21 -66 -28 -85 -7 -19 -35
-105 -63 -190 -68 -208 -73 -220 -87 -255 -7 -16 -23 -55 -35 -85 -95 -235
-207 -408 -353 -547 -147 -140 -358 -232 -530 -233 -77 0 -186 28 -276 73
-220 108 -426 361 -559 687 -123 301 -201 684 -202 992 0 181 24 293 91 428
30 60 131 217 171 265 190 231 385 423 531 525 59 41 131 92 160 112 79 55
168 97 207 98 20 0 58 -8 85 -18z m618 -2888 c9 -41 7 -83 -18 -484 -8 -135
-19 -330 -25 -435 -5 -104 -14 -217 -20 -250 -5 -33 -10 -105 -10 -160 -1 -55
-5 -136 -10 -180 -6 -44 -14 -143 -20 -220 -5 -77 -14 -169 -20 -205 -5 -36
-10 -97 -10 -135 0 -39 -7 -102 -15 -140 -8 -39 -15 -92 -15 -120 0 -61 -25
-280 -45 -390 -8 -44 -15 -96 -15 -115 0 -34 -47 -342 -75 -490 -8 -41 -22
-113 -31 -160 -8 -47 -20 -105 -26 -130 -6 -25 -14 -65 -18 -90 -8 -49 -52
-232 -76 -320 -9 -30 -22 -80 -31 -110 -31 -116 -44 -158 -78 -265 -38 -122
-61 -190 -74 -220 -5 -11 -19 -45 -31 -75 -65 -161 -184 -374 -281 -500 -96
-126 -189 -213 -316 -296 -94 -61 -144 -84 -184 -84 -47 0 -55 32 -41 148 36
292 42 339 48 362 8 33 32 254 44 400 5 63 12 133 15 155 7 49 34 622 42 910
3 122 1 286 -6 390 -6 99 -16 333 -21 520 -6 187 -17 410 -25 495 -8 85 -22
238 -30 340 -17 223 -50 566 -70 750 -9 74 -20 203 -25 285 -6 83 -13 157 -16
165 -25 67 -57 623 -38 643 11 10 62 -30 159 -123 130 -126 263 -204 415 -244
75 -20 245 -18 345 3 78 17 193 65 278 116 75 43 240 185 303 258 21 26 43 45
49 43 5 -1 13 -20 18 -42z"/>
</g>
</svg>
