<?xml version="1.0" standalone="no"?>
<!DOCTYPE svg PUBLIC "-//W3C//DTD SVG 20010904//EN"
 "http://www.w3.org/TR/2001/REC-SVG-20010904/DTD/svg10.dtd">
<svg version="1.0" xmlns="http://www.w3.org/2000/svg"
 width="525.000000pt" height="900.000000pt" viewBox="0 0 525.000000 900.000000"
 preserveAspectRatio="xMidYMid meet">
<metadata>
Created by potrace 1.10, written by Peter Selinger 2001-2011
</metadata>
<g transform="translate(0.000000,900.000000) scale(0.100000,-0.100000)"
fill="#3d85c6" stroke="none">
<path d="M1453 7599 c-71 -35 -87 -78 -109 -291 -3 -37 -10 -58 -20 -62 -9 -3
-53 1 -100 9 -116 20 -171 8 -228 -49 -62 -62 -76 -114 -76 -282 0 -144 15
-246 59 -394 10 -36 29 -99 41 -140 12 -41 27 -88 34 -105 24 -57 71 -267 91
-405 9 -58 22 -143 30 -190 8 -47 21 -141 29 -210 9 -69 23 -186 33 -260 25
-196 25 -1284 0 -1465 -9 -66 -23 -181 -32 -255 -9 -74 -22 -175 -30 -225 -9
-49 -24 -155 -35 -235 -19 -131 -46 -273 -66 -340 -4 -14 -33 -68 -63 -120
-73 -124 -75 -129 -118 -288 l-36 -137 0 -240 c0 -238 0 -241 32 -365 64 -250
120 -371 246 -535 79 -102 168 -185 275 -257 200 -134 378 -185 535 -153 122
26 157 47 310 196 80 77 112 100 158 118 68 25 128 27 188 6 73 -25 76 -27
287 -172 146 -101 417 -211 569 -233 348 -48 641 77 828 354 69 102 154 313
184 454 21 103 9 361 -25 502 -37 157 -101 357 -124 385 -4 5 -20 44 -35 85
-30 85 -44 222 -45 435 0 72 -11 236 -24 365 -13 129 -27 291 -31 360 -3 69
-13 177 -21 240 -8 63 -19 156 -25 205 -5 50 -19 153 -30 230 -11 77 -27 185
-34 240 -8 55 -23 145 -35 200 -12 55 -25 127 -30 160 -4 33 -13 74 -18 90 -5
17 -18 66 -27 110 -45 203 -147 523 -232 725 -56 133 -163 346 -236 467 -207
344 -568 740 -771 847 -56 30 -130 35 -175 11 -28 -14 -111 -101 -111 -115 0
-4 -7 -10 -15 -14 -17 -6 -68 43 -111 107 -134 196 -393 468 -536 563 -83 54
-184 93 -243 94 -22 0 -59 -9 -82 -21z m204 -181 c153 -76 380 -305 540 -543
143 -213 221 -365 343 -670 63 -156 144 -471 154 -600 4 -38 11 -104 16 -145
26 -209 33 -368 20 -477 -23 -191 -31 -181 -94 117 -157 736 -615 1584 -1040
1924 -28 23 -56 56 -66 80 -25 56 -43 189 -35 245 16 109 51 124 162 69z
m-373 -353 c132 -64 341 -249 491 -434 95 -116 217 -302 295 -446 100 -185
167 -327 242 -515 75 -189 185 -602 213 -800 8 -63 20 -135 25 -160 5 -25 18
-140 30 -255 26 -250 38 -292 83 -300 18 -4 43 -2 57 3 33 13 51 74 117 402
26 128 27 153 31 467 4 341 -3 447 -44 673 -35 197 -109 474 -157 595 -42 105
-88 258 -93 313 -7 63 10 164 32 200 25 38 63 29 151 -37 131 -98 373 -364
520 -571 121 -172 281 -470 348 -651 28 -73 106 -301 120 -349 35 -119 69
-240 80 -290 35 -151 56 -250 75 -357 11 -65 27 -154 34 -198 8 -44 22 -134
31 -200 9 -66 21 -142 26 -170 6 -27 15 -95 19 -150 16 -184 31 -329 41 -395
9 -59 25 -395 32 -645 3 -142 1 -142 -173 16 -79 72 -89 80 -252 200 -112 84
-130 94 -293 180 -115 60 -248 114 -350 142 -181 49 -203 52 -435 51 -149 0
-238 -4 -265 -12 -22 -7 -62 -17 -90 -22 -199 -38 -467 -155 -756 -331 -81
-49 -157 -89 -169 -89 -21 0 -22 3 -16 43 4 23 18 141 32 262 13 121 29 243
35 270 5 28 20 163 31 300 18 204 22 327 22 665 0 256 -4 465 -12 545 -7 72
-17 189 -23 260 -5 72 -19 191 -30 265 -12 74 -25 167 -30 205 -5 39 -13 93
-19 120 -5 28 -17 93 -25 145 -25 142 -42 209 -128 490 -69 227 -88 367 -68
489 20 120 82 142 215 76z m1463 -3825 c26 -5 86 -17 133 -26 92 -17 244 -67
327 -108 29 -14 55 -26 58 -26 3 0 63 -34 133 -77 360 -216 604 -458 744 -738
197 -391 240 -763 127 -1093 -96 -277 -273 -447 -524 -502 -113 -25 -146 -25
-276 -1 -174 32 -345 106 -519 224 -231 157 -252 168 -377 188 -61 10 -82 9
-139 -5 -120 -30 -170 -61 -281 -172 -116 -116 -177 -153 -273 -161 -151 -14
-352 85 -545 268 -133 127 -252 337 -301 534 -84 333 -47 694 97 939 105 178
271 334 494 464 60 35 295 148 345 167 191 71 246 87 400 115 108 20 305 25
377 10z"/>
</g>
</svg>
