<?xml version="1.0" standalone="no"?>
<!DOCTYPE svg PUBLIC "-//W3C//DTD SVG 20010904//EN"
 "http://www.w3.org/TR/2001/REC-SVG-20010904/DTD/svg10.dtd">
<svg version="1.0" xmlns="http://www.w3.org/2000/svg"
 width="480.000000pt" height="900.000000pt" viewBox="0 0 480.000000 900.000000"
 preserveAspectRatio="xMidYMid meet">
<metadata>
Created by potrace 1.10, written by Peter Selinger 2001-2011
</metadata>
<g transform="translate(0.000000,900.000000) scale(0.100000,-0.100000)"
fill="#3d85c6" stroke="none">
<path d="M3076 8543 c-76 -9 -178 -93 -285 -238 -37 -49 -77 -107 -90 -127
-12 -20 -36 -49 -52 -63 -29 -23 -38 -25 -137 -25 -106 0 -108 -1 -170 -37
-59 -35 -170 -142 -258 -248 -107 -129 -145 -177 -217 -271 -72 -96 -216 -305
-231 -335 -3 -8 -14 -26 -24 -41 -153 -237 -372 -683 -422 -863 -5 -16 -19
-61 -33 -100 -13 -38 -32 -99 -42 -135 -9 -36 -23 -85 -30 -110 -18 -64 -42
-191 -55 -290 -35 -261 -41 -338 -50 -570 -5 -140 -13 -313 -19 -385 -6 -71
-17 -236 -26 -365 -9 -129 -22 -287 -30 -350 -8 -63 -21 -185 -30 -270 -9 -85
-22 -191 -30 -235 -8 -44 -21 -136 -30 -205 -9 -69 -23 -148 -31 -177 -8 -28
-14 -66 -14 -85 0 -37 -18 -137 -75 -423 -27 -133 -51 -231 -90 -370 -39 -140
-75 -435 -75 -621 0 -233 33 -386 123 -574 52 -107 108 -181 226 -297 175
-170 466 -284 732 -285 157 0 285 26 438 89 143 59 213 108 371 258 77 72 105
92 143 103 91 24 183 10 269 -41 76 -45 138 -74 208 -98 56 -19 86 -22 220
-22 134 0 164 3 220 22 58 20 212 92 265 124 117 71 210 148 313 256 157 165
272 407 288 607 21 247 -7 424 -111 709 -20 55 -41 113 -45 129 -16 52 -86
179 -144 264 -89 130 -91 138 -91 487 0 165 6 363 13 440 7 77 19 217 27 310
9 94 21 208 27 255 11 84 14 110 37 330 6 63 17 147 23 185 11 76 19 149 37
355 7 74 19 183 27 242 20 151 20 861 0 956 -8 37 -17 101 -20 142 -8 103 -25
215 -41 275 -8 28 -22 84 -31 125 -9 41 -21 86 -27 100 -5 14 -13 41 -18 60
-11 52 -66 204 -96 268 -139 300 -199 396 -326 520 -80 78 -86 87 -102 150
-66 264 -120 384 -207 455 -36 30 -53 36 -103 40 -33 3 -77 3 -99 0z m121
-167 c54 -45 125 -217 127 -304 1 -53 -1 -57 -33 -79 -19 -13 -44 -23 -56 -23
-62 0 -182 -91 -226 -171 -23 -43 -24 -50 -30 -384 -7 -393 -50 -1082 -78
-1265 -5 -30 -14 -91 -21 -135 -27 -179 -55 -308 -96 -460 -14 -49 -29 -106
-34 -125 -22 -89 -166 -462 -192 -496 -4 -6 -20 -33 -35 -61 -32 -57 -77 -113
-92 -113 -9 0 -25 45 -50 150 -34 138 -39 974 -7 1128 8 37 22 123 31 192 9
69 23 152 30 185 7 33 21 96 30 140 9 44 23 100 30 125 8 25 23 81 34 125 32
126 102 340 150 458 6 16 11 35 11 42 0 8 6 29 14 47 53 128 76 316 56 479
-15 127 -9 150 65 266 96 151 199 266 265 295 33 14 79 8 107 -16z m-636 -437
c12 -6 31 -34 45 -62 20 -45 24 -67 24 -157 0 -94 -23 -224 -45 -260 -3 -5 -9
-28 -14 -52 -5 -24 -19 -68 -31 -98 -12 -30 -26 -68 -30 -85 -5 -16 -26 -82
-48 -145 -50 -148 -75 -238 -128 -455 -14 -60 -28 -123 -30 -140 -8 -51 -35
-206 -50 -277 -8 -37 -14 -96 -14 -132 0 -36 -7 -115 -16 -176 -12 -88 -14
-182 -11 -438 4 -446 18 -620 72 -927 8 -44 17 -99 20 -122 12 -80 43 -78 108
8 153 201 297 467 399 734 73 191 157 501 178 658 5 38 12 72 15 77 6 10 32
207 44 340 5 47 14 110 20 140 12 64 31 514 41 980 7 339 11 371 55 420 28 31
119 70 165 70 53 0 155 -48 196 -92 137 -147 260 -386 345 -668 10 -36 26 -85
33 -110 8 -25 22 -81 31 -125 8 -44 20 -102 26 -130 47 -228 64 -567 49 -1005
-10 -300 -17 -390 -45 -602 -8 -59 -15 -123 -15 -143 0 -35 -12 -131 -45 -365
-8 -58 -17 -144 -20 -192 -3 -48 -9 -109 -14 -135 -23 -117 -41 -376 -51 -730
-6 -211 -13 -390 -17 -399 -8 -23 -45 -13 -156 40 -50 24 -110 50 -132 59
-103 38 -123 45 -165 56 -192 48 -245 53 -488 48 -140 -3 -255 -10 -282 -17
-111 -30 -159 -40 -196 -40 -21 -1 -68 -7 -104 -15 -43 -9 -127 -14 -245 -15
-439 0 -699 -89 -1018 -345 -104 -84 -123 -91 -113 -42 4 17 11 71 16 119 9
93 24 206 41 303 6 33 15 98 20 145 8 80 25 201 48 350 6 36 11 106 11 155 0
50 5 117 10 150 15 94 48 522 54 715 12 338 44 728 71 860 7 36 21 103 30 150
19 101 84 317 135 450 12 30 27 71 34 90 8 20 28 67 46 105 17 39 41 90 52
115 30 68 113 230 137 270 11 19 24 42 28 50 6 12 102 174 146 244 184 297
506 699 618 771 54 35 121 45 160 24z m519 -4755 c58 -8 123 -20 145 -25 22
-6 64 -15 93 -20 139 -25 191 -48 379 -164 177 -109 281 -237 358 -435 9 -25
23 -56 29 -70 7 -14 21 -52 31 -85 10 -33 24 -76 31 -95 7 -19 20 -69 30 -110
9 -41 23 -100 30 -131 47 -186 -18 -476 -152 -686 -106 -167 -373 -376 -571
-450 -61 -22 -83 -25 -218 -25 -155 0 -185 5 -275 52 -19 10 -66 35 -105 55
-99 51 -206 71 -305 55 -103 -17 -149 -43 -264 -152 -114 -107 -206 -177 -280
-212 -229 -108 -493 -124 -721 -43 -63 22 -174 77 -244 121 -54 34 -199 178
-237 236 -56 86 -114 216 -137 310 -39 162 -46 265 -27 384 5 33 17 131 26
216 25 245 60 355 186 590 103 193 315 396 511 488 188 89 358 120 672 122
150 0 296 17 420 48 56 14 194 34 295 42 96 8 150 5 300 -16z"/>
</g>
</svg>
