<?xml version="1.0" standalone="no"?>
<!DOCTYPE svg PUBLIC "-//W3C//DTD SVG 20010904//EN"
 "http://www.w3.org/TR/2001/REC-SVG-20010904/DTD/svg10.dtd">
<svg version="1.0" xmlns="http://www.w3.org/2000/svg"
 width="288.000000pt" height="900.000000pt" viewBox="0 0 288.000000 900.000000"
 preserveAspectRatio="xMidYMid meet">
<metadata>
Created by potrace 1.10, written by Peter Selinger 2001-2011
</metadata>
<g transform="translate(0.000000,900.000000) scale(0.100000,-0.100000)"
fill="#3d85c6" stroke="none">
<path d="M1856 8584 c-87 -27 -140 -71 -224 -184 -59 -81 -168 -297 -202 -400
-5 -14 -18 -50 -30 -80 -30 -79 -84 -244 -105 -320 -9 -36 -22 -78 -27 -95 -5
-16 -16 -55 -23 -85 -7 -30 -20 -80 -29 -110 -10 -30 -21 -73 -25 -95 -11 -54
-31 -130 -47 -184 -8 -25 -14 -54 -14 -66 0 -12 -6 -41 -14 -66 -8 -24 -21
-82 -31 -129 -9 -47 -23 -103 -31 -125 -8 -23 -14 -50 -14 -60 0 -24 -26 -151
-46 -221 -8 -28 -14 -63 -14 -78 0 -26 -9 -72 -46 -233 -8 -34 -14 -76 -14
-93 0 -18 -7 -59 -15 -93 -24 -106 -45 -221 -45 -256 0 -18 -7 -60 -14 -94 -8
-34 -22 -116 -31 -182 -9 -66 -23 -151 -31 -190 -8 -38 -14 -83 -14 -100 0
-33 -22 -192 -45 -321 -8 -45 -15 -101 -15 -125 0 -24 -6 -89 -14 -144 -31
-204 -46 -332 -46 -384 0 -30 -7 -93 -14 -140 -18 -106 -46 -387 -46 -461 0
-30 -5 -73 -10 -95 -6 -22 -15 -98 -20 -170 -24 -331 -42 -453 -75 -510 -19
-33 -78 -175 -105 -255 -5 -14 -25 -70 -45 -125 -20 -55 -40 -113 -45 -130 -5
-16 -16 -52 -24 -80 -8 -27 -19 -63 -25 -80 -5 -16 -18 -59 -27 -95 -9 -36
-22 -85 -29 -110 -61 -224 -74 -310 -74 -495 -1 -171 8 -229 51 -345 37 -100
125 -208 238 -293 54 -40 360 -247 366 -247 2 0 21 -11 42 -24 21 -13 76 -39
122 -59 218 -90 371 -87 715 13 39 11 79 24 90 30 11 5 49 18 85 29 70 22 212
71 270 93 82 32 177 87 249 145 215 172 341 465 341 795 0 103 -38 425 -64
548 -8 36 -22 103 -31 150 -9 47 -23 107 -31 134 -8 26 -14 53 -14 60 0 21
-78 251 -110 321 -7 17 -21 48 -31 70 -34 78 -57 211 -84 490 -9 88 -22 205
-30 260 -8 55 -17 147 -20 205 -4 58 -13 164 -21 235 -8 72 -19 200 -24 285
-6 85 -17 261 -26 390 -8 129 -20 291 -26 360 -17 183 -16 2062 0 2275 40 510
44 575 37 682 -13 224 -49 419 -93 514 -37 78 -81 122 -145 143 -56 19 -49 19
-111 0z m101 -164 c36 -35 57 -90 84 -215 23 -108 27 -405 10 -765 -6 -124
-16 -344 -23 -490 -16 -350 -16 -1221 0 -1585 33 -755 43 -969 47 -974 2 -4 8
-78 15 -166 17 -250 40 -504 50 -570 7 -48 24 -274 33 -459 1 -16 -3 -31 -8
-33 -6 -2 -50 28 -98 67 -220 176 -375 240 -584 240 -120 0 -222 -24 -328 -75
-66 -33 -190 -107 -205 -125 -3 -3 -50 -41 -105 -85 -55 -44 -101 -83 -103
-87 -9 -21 -30 -4 -36 27 -10 50 2 322 19 435 21 143 34 264 41 380 3 58 10
121 15 140 10 43 36 237 44 340 3 41 12 120 20 175 8 55 21 154 30 220 9 66
21 140 26 165 5 25 14 86 19 135 5 50 16 126 25 170 9 44 20 116 26 160 5 44
16 116 24 160 7 44 21 123 30 175 8 52 22 127 30 165 9 39 22 108 30 155 9 47
22 117 30 155 8 39 21 108 30 155 22 112 44 213 59 275 8 28 21 86 30 130 10
44 24 103 31 130 8 28 22 86 31 130 9 44 21 94 26 110 5 17 20 71 33 120 13
50 28 104 34 120 5 17 17 59 26 95 10 36 23 81 30 100 7 19 22 64 33 100 12
36 30 90 42 120 12 30 24 64 27 75 4 11 29 72 57 135 92 206 177 330 260 381
42 26 57 24 93 -11z m-352 -5095 c127 -32 168 -53 283 -138 96 -72 191 -170
275 -284 48 -67 141 -246 172 -333 32 -92 85 -269 85 -287 0 -11 6 -39 14 -64
21 -70 37 -138 51 -229 8 -47 23 -137 34 -200 29 -160 30 -451 2 -560 -61
-235 -132 -351 -291 -475 -57 -44 -235 -135 -265 -135 -9 0 -26 -5 -38 -12
-12 -6 -35 -15 -52 -19 -26 -6 -113 -35 -210 -70 -141 -50 -227 -70 -342 -80
-184 -16 -308 14 -483 117 -128 76 -421 287 -464 335 -46 52 -98 149 -123 231
-23 80 -28 263 -9 356 9 42 23 113 32 157 8 44 20 94 25 110 6 17 19 64 30
105 11 41 26 91 33 110 8 19 23 67 34 105 25 85 68 209 88 252 8 17 14 37 14
45 0 8 4 18 9 24 9 9 36 76 48 119 18 65 121 267 185 362 47 69 220 245 297
302 114 85 183 116 356 165 72 20 99 19 210 -9z"/>
</g>
</svg>
