<?xml version="1.0" standalone="no"?>
<!DOCTYPE svg PUBLIC "-//W3C//DTD SVG 20010904//EN"
 "http://www.w3.org/TR/2001/REC-SVG-20010904/DTD/svg10.dtd">
<svg version="1.0" xmlns="http://www.w3.org/2000/svg"
 width="489.000000pt" height="900.000000pt" viewBox="0 0 489.000000 900.000000"
 preserveAspectRatio="xMidYMid meet">
<metadata>
Created by potrace 1.10, written by Peter Selinger 2001-2011
</metadata>
<g transform="translate(0.000000,900.000000) scale(0.100000,-0.100000)"
fill="#3d85c6" stroke="none">
<path d="M640 8402 c-196 -55 -357 -197 -467 -414 -55 -107 -89 -239 -97 -378
-3 -52 -10 -157 -16 -233 -8 -109 -7 -167 5 -280 8 -78 15 -160 15 -181 0 -22
6 -62 14 -90 8 -28 22 -80 31 -116 10 -36 31 -96 47 -135 69 -159 79 -189 88
-258 5 -40 13 -97 19 -127 5 -30 15 -93 22 -140 21 -158 45 -306 64 -405 7
-38 21 -119 30 -180 9 -60 22 -139 30 -175 8 -36 21 -110 30 -165 9 -55 23
-126 31 -157 8 -32 14 -70 14 -85 0 -15 6 -52 14 -82 20 -78 35 -152 51 -251
8 -47 19 -103 24 -125 5 -22 14 -67 21 -100 6 -33 22 -108 36 -166 13 -59 28
-138 34 -177 5 -39 14 -81 19 -94 5 -13 17 -57 26 -98 9 -41 22 -100 30 -130
8 -30 35 -140 60 -245 51 -210 60 -244 135 -505 17 -58 37 -130 46 -160 8 -30
21 -71 28 -90 7 -19 28 -82 46 -140 18 -58 41 -126 52 -152 10 -26 32 -85 48
-130 48 -137 60 -169 87 -227 14 -31 34 -76 45 -101 56 -124 106 -222 152
-297 28 -46 56 -92 61 -101 9 -16 42 -60 100 -132 11 -14 81 -86 155 -161 180
-180 271 -235 469 -280 210 -47 287 -10 341 164 39 122 14 359 -55 540 -8 20
-22 56 -31 80 -9 23 -20 50 -25 59 -5 10 -13 34 -18 55 -5 21 -26 83 -46 138
-20 55 -42 123 -50 150 -7 28 -21 71 -30 95 -9 25 -20 61 -24 80 -4 19 -12 51
-18 70 -6 19 -19 62 -28 95 -9 33 -22 80 -30 105 -7 25 -21 81 -30 125 -10 44
-23 98 -30 120 -7 22 -20 78 -29 125 -9 47 -22 105 -28 130 -11 48 -32 171
-47 285 -5 39 -14 90 -20 115 -13 57 -14 151 -1 184 16 42 51 34 98 -21 38
-47 162 -229 162 -240 0 -3 14 -25 31 -50 16 -25 46 -75 66 -112 20 -36 45
-79 55 -96 10 -16 21 -37 25 -45 4 -8 21 -40 38 -70 18 -30 54 -95 80 -145 26
-49 51 -94 55 -100 4 -5 35 -64 70 -130 34 -66 66 -124 70 -130 4 -5 27 -46
51 -90 77 -143 75 -139 120 -210 14 -22 29 -47 32 -55 4 -8 16 -28 27 -45 11
-16 24 -39 29 -50 5 -11 34 -58 65 -104 31 -46 56 -85 56 -87 0 -14 217 -306
314 -424 56 -68 225 -234 311 -308 28 -23 77 -56 109 -72 49 -25 71 -30 129
-30 61 0 76 4 118 30 46 30 76 69 111 140 66 137 66 495 -1 701 -50 157 -59
181 -107 286 -13 29 -35 77 -48 105 -22 49 -38 84 -115 251 -29 63 -62 143
-86 207 -56 153 -62 170 -87 255 -11 39 -26 85 -34 103 -8 18 -14 42 -14 53 0
12 -6 44 -14 72 -17 67 -40 170 -61 277 -9 47 -20 105 -26 130 -20 93 -31 585
-20 900 6 168 15 330 20 360 12 70 30 218 40 335 5 50 13 115 19 145 6 30 18
107 27 170 9 63 23 149 30 190 8 41 19 118 26 170 23 196 26 216 37 250 5 19
13 73 16 120 12 168 29 287 53 385 53 208 67 453 39 665 -25 187 -56 290 -132
446 -162 330 -477 511 -853 491 -186 -10 -427 -80 -636 -184 -94 -46 -104 -52
-170 -94 -64 -41 -121 -59 -185 -59 -73 0 -125 19 -210 78 -36 25 -92 64 -125
86 -210 144 -440 253 -618 292 -116 25 -309 28 -387 6z m300 -126 c36 -8 79
-18 95 -24 17 -6 55 -18 85 -28 81 -25 288 -134 407 -214 57 -38 107 -70 109
-70 3 0 28 -17 57 -39 92 -69 204 -111 295 -111 45 0 154 33 193 58 85 55 201
122 212 122 7 0 18 5 23 10 15 15 185 75 354 126 25 7 94 18 154 25 299 31
546 -73 723 -306 34 -45 123 -225 123 -249 0 -8 6 -30 14 -48 60 -140 61 -709
1 -828 -46 -92 -63 -122 -101 -180 -155 -235 -350 -401 -569 -483 -118 -45
-310 -74 -416 -64 -170 16 -250 28 -314 47 -38 12 -83 25 -100 30 -30 9 -58
19 -165 60 -188 73 -312 76 -536 14 -28 -8 -66 -14 -85 -14 -19 0 -61 -7 -94
-15 -85 -20 -377 -20 -470 0 -219 48 -313 101 -475 265 -101 102 -182 262
-219 425 -6 28 -19 84 -28 125 -15 63 -18 120 -17 365 1 253 3 303 22 395 25
127 38 162 91 264 149 281 364 397 631 342z m2754 -2044 c8 -13 -13 -257 -29
-346 -8 -43 -15 -101 -15 -128 0 -28 -6 -76 -14 -107 -8 -31 -22 -112 -31
-181 -8 -69 -22 -165 -30 -215 -18 -116 -32 -237 -40 -350 -4 -49 -13 -144
-21 -210 -16 -139 -19 -692 -4 -795 5 -36 14 -114 20 -175 12 -127 34 -258 49
-298 6 -16 11 -40 11 -55 0 -15 12 -70 26 -122 14 -52 29 -113 34 -135 5 -22
16 -64 25 -92 9 -29 22 -74 30 -100 7 -27 23 -73 35 -103 12 -30 24 -64 27
-75 3 -11 11 -33 18 -50 7 -16 23 -55 35 -85 24 -59 34 -81 180 -395 33 -72
80 -189 115 -285 32 -89 75 -303 75 -375 0 -55 -29 -212 -48 -260 -9 -22 -26
-55 -39 -72 -22 -30 -29 -33 -74 -33 -36 0 -61 7 -92 26 -138 86 -360 319
-534 561 -73 102 -198 285 -206 303 -9 18 -22 39 -60 97 -15 24 -27 45 -27 47
0 3 -12 22 -26 43 -14 21 -30 47 -35 58 -6 11 -15 29 -22 40 -7 11 -30 52 -52
90 -22 39 -45 79 -52 90 -6 11 -23 43 -37 70 -14 28 -42 79 -62 115 -20 36
-52 94 -71 130 -20 36 -49 90 -66 120 -16 30 -42 78 -57 105 -59 109 -90 163
-132 235 -24 41 -47 82 -51 90 -4 8 -13 24 -19 35 -14 21 -57 90 -73 117 -129
217 -191 289 -259 302 -77 15 -162 -26 -197 -96 -18 -34 -20 -54 -16 -122 2
-45 9 -115 16 -156 7 -41 19 -118 27 -170 9 -52 22 -121 30 -152 8 -32 14 -70
14 -86 0 -16 6 -48 14 -73 7 -24 21 -80 31 -124 9 -44 23 -102 30 -130 7 -27
20 -84 30 -125 9 -41 22 -95 30 -120 7 -25 21 -74 30 -110 10 -36 23 -83 30
-105 7 -22 19 -62 27 -90 40 -135 51 -168 83 -267 19 -59 39 -118 44 -130 133
-344 135 -351 135 -518 0 -213 -19 -243 -144 -220 -188 34 -272 80 -439 242
-177 173 -294 335 -402 558 -98 201 -126 267 -182 430 -9 25 -25 70 -37 100
-12 30 -27 75 -34 100 -7 25 -35 113 -61 195 -43 136 -59 190 -84 280 -51 179
-110 404 -121 460 -5 22 -16 67 -25 100 -21 74 -26 95 -65 270 -17 77 -38 169
-46 205 -24 99 -33 142 -39 180 -3 19 -12 62 -20 95 -14 58 -48 228 -67 330
-19 109 -41 212 -50 242 -5 18 -13 67 -18 110 -5 43 -16 110 -25 148 -9 39
-21 102 -26 140 -6 39 -16 104 -24 145 -8 41 -21 116 -30 165 -9 50 -22 124
-30 165 -18 95 -39 355 -30 369 11 19 42 12 128 -29 126 -59 251 -100 352
-115 167 -26 492 -13 625 24 169 48 347 58 440 26 30 -11 60 -22 65 -26 6 -4
44 -19 85 -32 41 -14 86 -29 100 -35 14 -6 63 -18 110 -27 47 -9 110 -23 141
-31 38 -10 113 -14 240 -14 163 0 195 3 279 25 126 32 146 39 207 69 29 14 55
26 58 26 19 0 206 130 290 203 17 14 44 37 60 51 31 26 50 32 59 18z"/>
</g>
</svg>
