<?xml version="1.0" standalone="no"?>
<!DOCTYPE svg PUBLIC "-//W3C//DTD SVG 20010904//EN"
 "http://www.w3.org/TR/2001/REC-SVG-20010904/DTD/svg10.dtd">
<svg version="1.0" xmlns="http://www.w3.org/2000/svg"
 width="312.000000pt" height="900.000000pt" viewBox="0 0 312.000000 900.000000"
 preserveAspectRatio="xMidYMid meet">
<metadata>
Created by potrace 1.10, written by Peter Selinger 2001-2011
</metadata>
<g transform="translate(0.000000,900.000000) scale(0.100000,-0.100000)"
fill="#3d85c6" stroke="none">
<path d="M2146 8879 c-150 -35 -403 -284 -573 -564 -32 -53 -137 -267 -174
-353 -45 -104 -55 -133 -113 -312 -21 -63 -44 -130 -52 -148 -8 -18 -14 -40
-14 -48 0 -9 -13 -62 -29 -117 -16 -56 -37 -130 -45 -164 -9 -35 -23 -89 -31
-120 -42 -170 -122 -553 -136 -658 -5 -38 -13 -83 -18 -100 -5 -16 -17 -84
-26 -150 -9 -66 -23 -148 -31 -182 -8 -34 -14 -78 -14 -98 0 -20 -6 -68 -14
-108 -8 -40 -22 -126 -31 -192 -9 -66 -22 -158 -30 -205 -8 -47 -16 -114 -19
-150 -3 -36 -12 -114 -20 -175 -9 -60 -21 -157 -26 -215 -6 -58 -17 -154 -26
-215 -15 -109 -26 -215 -44 -410 -5 -55 -14 -127 -20 -160 -5 -33 -10 -85 -10
-117 0 -31 -7 -92 -15 -135 -8 -43 -15 -100 -15 -126 0 -53 -38 -405 -45 -417
-2 -4 -9 -74 -15 -156 -16 -227 -32 -304 -90 -439 -67 -155 -145 -413 -195
-645 -48 -222 -62 -294 -77 -400 -11 -83 -3 -304 13 -346 5 -15 14 -52 18 -83
5 -31 14 -72 21 -91 51 -143 65 -175 123 -281 79 -146 263 -362 392 -459 162
-122 500 -190 716 -145 60 13 205 75 269 115 8 5 51 30 95 56 84 49 183 112
273 173 29 20 61 41 69 46 132 81 378 275 411 322 91 133 146 434 111 618 -5
28 -13 93 -19 145 -11 103 -31 240 -50 335 -23 119 -41 211 -54 270 -8 33 -21
96 -31 140 -31 146 -67 272 -101 358 -53 130 -57 160 -64 537 -7 340 -17 588
-40 990 -6 102 -15 331 -21 510 -5 179 -14 422 -19 540 -28 643 -21 2185 10
2410 22 157 42 288 55 355 28 139 47 317 40 379 -29 269 -68 357 -170 385 -45
12 -46 12 -99 0z m101 -161 c38 -67 48 -119 48 -258 0 -105 -6 -166 -27 -275
-86 -448 -93 -576 -92 -1580 1 -794 15 -1399 44 -1880 5 -88 14 -306 20 -485
6 -179 15 -424 20 -545 13 -273 13 -502 1 -509 -5 -4 -42 29 -83 73 -83 89
-191 184 -267 235 -55 37 -173 96 -194 96 -6 0 -32 7 -56 15 -60 21 -243 21
-293 0 -21 -8 -45 -15 -54 -15 -24 0 -143 -61 -225 -115 -39 -27 -137 -112
-217 -189 -79 -78 -149 -141 -156 -141 -16 0 -9 268 9 369 8 43 15 101 15 130
0 51 21 260 40 391 6 39 15 115 20 170 5 55 13 136 19 180 23 180 54 446 63
545 5 58 16 146 23 195 8 50 22 149 30 220 9 72 23 165 31 208 7 42 14 96 14
120 0 23 5 62 11 87 17 73 49 270 49 298 0 15 6 59 14 97 8 39 22 113 31 165
9 52 21 115 27 140 5 25 13 68 18 95 4 28 12 70 18 95 6 25 19 83 28 130 9 47
20 96 25 110 5 14 13 48 18 75 9 51 61 259 80 317 6 18 25 80 42 138 48 159
120 373 138 408 5 9 25 55 44 102 116 280 242 476 421 656 130 131 178 163
243 164 36 0 43 -4 60 -32z m-597 -5237 c180 -52 339 -179 511 -406 69 -92
144 -224 173 -304 46 -127 62 -184 101 -356 13 -55 28 -120 33 -145 6 -25 18
-81 27 -125 9 -44 22 -109 30 -145 30 -142 62 -400 71 -565 5 -86 2 -135 -14
-227 -24 -136 -55 -207 -117 -268 -107 -105 -678 -482 -885 -585 -162 -81
-458 -67 -652 30 -76 38 -117 70 -207 157 -227 224 -371 504 -407 798 -17 131
-11 227 20 360 8 30 21 98 31 150 9 52 23 118 30 145 8 28 21 82 31 120 32
136 107 364 173 525 99 239 109 259 203 384 73 96 284 309 348 352 55 37 121
69 203 99 81 31 204 33 297 6z"/>
</g>
</svg>
