<?xml version="1.0" standalone="no"?>
<!DOCTYPE svg PUBLIC "-//W3C//DTD SVG 20010904//EN"
 "http://www.w3.org/TR/2001/REC-SVG-20010904/DTD/svg10.dtd">
<svg version="1.0" xmlns="http://www.w3.org/2000/svg"
 width="900.000000pt" height="900.000000pt" viewBox="0 0 900.000000 900.000000"
 preserveAspectRatio="xMidYMid meet">
<metadata>
Created by potrace 1.10, written by Peter Selinger 2001-2011
</metadata>
<g transform="translate(0.000000,900.000000) scale(0.100000,-0.100000)"
fill="#000000" stroke="none">
<path d="M3364 8519 c-29 -10 -67 -27 -85 -37 -41 -22 -128 -127 -135 -162 -3
-14 -13 -41 -22 -60 -23 -50 -22 -425 2 -520 8 -36 16 -84 16 -107 0 -23 5
-54 11 -70 6 -15 15 -53 19 -83 7 -52 15 -89 40 -190 6 -25 15 -63 19 -85 4
-23 11 -47 16 -55 5 -8 13 -37 16 -65 4 -27 17 -81 28 -120 12 -38 24 -86 28
-105 3 -19 12 -47 19 -62 8 -15 14 -42 14 -61 0 -18 7 -42 15 -53 8 -10 14
-32 15 -49 0 -16 6 -50 14 -75 8 -25 22 -74 32 -110 9 -36 23 -82 30 -103 8
-20 14 -46 14 -56 0 -10 8 -28 18 -40 l17 -21 979 -1 979 0 22 21 c13 12 25
36 28 53 2 18 9 46 15 62 6 17 17 55 26 85 8 30 22 80 30 111 9 31 16 67 16
80 0 14 5 30 10 35 6 6 15 33 20 60 11 60 28 127 45 174 16 45 37 126 42 165
4 28 10 52 47 186 9 31 16 68 16 83 0 15 5 37 11 48 7 12 15 47 19 77 4 31 13
81 18 111 42 218 46 251 46 430 0 166 -2 191 -22 248 -47 134 -123 208 -232
227 -90 16 -320 3 -400 -23 -19 -6 -71 -19 -115 -28 -44 -8 -98 -22 -120 -30
-23 -8 -59 -14 -82 -14 -23 0 -63 -7 -88 -15 -54 -19 -441 -23 -474 -6 -10 6
-45 13 -77 16 -33 3 -81 12 -109 20 -104 29 -141 38 -180 46 -38 7 -63 13
-165 39 -25 6 -76 16 -115 21 -38 5 -83 14 -99 19 -47 16 -175 10 -232 -11z
m246 -150 c73 -10 145 -26 244 -55 26 -8 60 -14 75 -14 14 -1 37 -7 51 -15 14
-8 41 -14 60 -15 19 0 52 -6 75 -14 41 -14 138 -33 210 -41 22 -3 82 -10 133
-16 132 -16 318 1 537 51 28 6 73 15 100 19 28 4 66 12 85 18 100 32 300 58
377 48 69 -8 118 -51 143 -125 16 -45 19 -85 20 -211 0 -86 -4 -169 -10 -185
-5 -16 -14 -60 -19 -99 -13 -101 -30 -192 -47 -251 -8 -28 -14 -67 -14 -87 0
-20 -4 -38 -9 -41 -5 -4 -12 -25 -16 -49 -6 -40 -17 -83 -50 -200 -8 -30 -15
-63 -15 -74 0 -11 -7 -34 -15 -49 -8 -16 -15 -40 -15 -53 0 -13 -7 -44 -14
-70 -8 -25 -22 -73 -31 -106 -9 -33 -23 -80 -31 -105 -8 -25 -14 -56 -14 -71
0 -14 -4 -29 -9 -35 -5 -5 -14 -36 -20 -68 -6 -33 -17 -63 -24 -68 -6 -4 -402
-8 -879 -8 -736 0 -869 2 -881 14 -8 8 -17 38 -20 67 -4 29 -11 57 -17 63 -5
5 -10 23 -10 38 0 15 -6 45 -14 65 -23 66 -59 200 -77 292 -5 24 -13 49 -18
55 -5 6 -11 27 -14 46 -6 38 -21 98 -42 170 -7 25 -16 66 -20 92 -3 26 -10 50
-16 53 -5 4 -9 23 -9 44 0 21 -7 58 -15 81 -8 23 -15 54 -15 69 0 14 -7 44
-15 66 -8 22 -15 65 -15 95 0 30 -7 73 -15 95 -21 57 -21 389 0 425 8 14 14
35 15 46 0 36 74 101 123 109 23 4 49 11 57 16 8 5 26 7 40 3 14 -3 59 -10
100 -15z"/>
<path d="M4006 8149 c-39 -30 -36 -81 7 -121 47 -45 227 -178 239 -178 6 0 19
-6 27 -14 25 -22 128 -76 145 -76 8 0 27 -6 43 -14 86 -43 262 -59 341 -31
110 39 184 97 243 190 34 54 36 83 9 118 -43 54 -90 41 -150 -43 -101 -142
-239 -162 -446 -64 -66 31 -202 111 -222 131 -7 7 -16 13 -20 13 -4 0 -20 13
-37 28 -92 85 -131 98 -179 61z"/>
<path d="M3530 6153 c-112 -39 -135 -129 -78 -298 5 -16 14 -49 19 -72 4 -23
12 -50 17 -60 5 -10 17 -44 26 -76 8 -31 22 -81 30 -110 10 -32 19 -137 25
-272 11 -244 14 -231 -54 -260 -88 -38 -133 -181 -86 -274 22 -42 74 -86 114
-96 14 -4 30 -12 35 -18 10 -13 22 -203 15 -224 -2 -6 -23 -21 -46 -32 -26
-13 -54 -39 -74 -69 -29 -41 -33 -56 -33 -109 0 -98 56 -180 137 -202 35 -9
41 -31 42 -147 l1 -90 -45 -23 c-24 -12 -58 -39 -75 -60 -28 -36 -30 -45 -30
-120 0 -69 4 -87 23 -114 32 -45 58 -66 90 -73 46 -11 57 -38 57 -144 0 -105
-4 -114 -60 -148 -41 -24 -72 -63 -88 -111 -14 -40 -16 -98 -3 -105 4 -3 11
-18 14 -34 7 -35 56 -84 106 -107 l38 -17 7 -111 6 -112 -32 -28 c-93 -79
-118 -117 -118 -178 0 -88 59 -183 121 -196 16 -3 34 -14 39 -24 6 -10 10 -67
10 -128 l0 -110 -29 -16 c-47 -24 -76 -56 -100 -109 -26 -59 -26 -77 -4 -139
17 -46 51 -85 116 -129 23 -16 25 -25 32 -129 l7 -113 -50 -43 c-90 -77 -114
-162 -71 -250 20 -41 74 -92 112 -106 11 -4 17 -17 17 -40 0 -35 24 -111 53
-164 20 -39 65 -73 131 -102 48 -21 60 -21 597 -21 l549 0 65 31 c78 36 116
80 144 163 18 54 21 86 21 229 l0 166 43 25 c104 62 140 146 109 260 -12 43
-65 104 -99 112 -12 3 -24 11 -26 18 -3 6 -2 64 1 128 l5 117 47 29 c26 16 60
46 76 67 25 33 28 46 28 109 0 53 -5 78 -19 101 -28 42 -76 85 -103 91 -31 9
-37 43 -23 143 7 47 13 92 14 100 1 8 11 19 22 25 93 52 135 114 135 201 0 69
-30 121 -100 171 l-50 36 0 107 c0 99 2 109 23 129 13 12 29 22 36 22 22 0 81
63 102 109 25 56 24 102 -2 153 -22 44 -75 98 -96 98 -29 0 -38 44 -35 156 l3
111 37 19 c47 24 112 83 112 103 0 8 5 29 12 47 9 26 9 45 -2 89 -11 47 -21
63 -59 96 -25 21 -51 39 -58 39 -26 0 -33 39 -27 150 l7 111 47 24 c26 13 62
43 80 66 31 38 33 47 33 113 0 55 -5 79 -22 108 -24 40 -72 81 -110 93 -24 7
-24 8 -19 121 5 114 15 144 45 144 25 0 93 60 113 101 49 95 3 232 -91 275
l-39 17 0 73 c0 40 6 88 14 106 17 40 73 224 79 258 3 14 10 39 15 55 40 115
43 134 23 190 -11 30 -27 62 -38 72 -48 49 -15 48 -1008 50 -827 2 -935 1
-975 -14z m1855 -150 c17 -16 15 -42 -9 -118 -7 -22 -21 -63 -30 -91 -9 -29
-16 -58 -16 -67 0 -8 -7 -28 -15 -43 -8 -16 -15 -39 -15 -50 0 -12 -8 -31 -17
-43 l-18 -21 -775 0 -775 0 -17 21 c-10 12 -18 32 -18 45 0 13 -6 41 -13 61
-39 109 -41 114 -77 252 -4 18 -6 39 -3 47 4 10 125 13 646 14 352 0 642 2
644 3 1 2 113 4 248 5 210 1 247 -1 260 -15z m-138 -619 c9 -25 -21 -42 -86
-49 -31 -3 -74 -13 -96 -21 -23 -8 -56 -14 -74 -14 -18 0 -60 -7 -94 -15 -34
-8 -100 -21 -147 -30 -47 -9 -103 -20 -125 -26 -22 -6 -70 -14 -107 -19 -37
-5 -76 -13 -87 -19 -11 -6 -35 -11 -53 -11 -35 0 -150 -22 -234 -46 -28 -8
-67 -14 -88 -14 -20 0 -53 -7 -73 -15 -19 -8 -53 -15 -75 -15 -22 0 -65 -7
-95 -16 -30 -9 -59 -12 -63 -8 -11 11 -25 296 -17 318 6 14 81 16 757 16 687
0 751 -1 757 -16z m157 -198 c29 -45 9 -61 -109 -84 -27 -6 -86 -18 -130 -27
-44 -9 -108 -22 -142 -30 -34 -8 -73 -15 -88 -15 -14 0 -54 -6 -88 -14 -95
-22 -167 -36 -222 -45 -27 -5 -77 -14 -110 -20 -170 -34 -204 -41 -250 -51
-27 -6 -75 -15 -105 -20 -30 -4 -75 -13 -100 -18 -67 -16 -158 -33 -220 -42
-30 -5 -68 -13 -85 -18 -49 -17 -144 -23 -165 -12 -44 24 -5 89 53 90 16 0 56
6 90 14 87 21 172 37 244 47 35 4 72 13 82 19 11 5 36 10 56 10 19 0 52 7 72
15 19 8 56 15 82 15 25 1 64 7 86 15 22 8 53 15 68 15 26 0 66 8 207 42 25 6
70 14 100 18 64 8 162 26 240 45 81 19 156 34 237 45 40 6 83 15 95 20 44 17
85 12 102 -14z m-169 -375 l0 -105 -75 -17 c-127 -30 -345 -73 -433 -85 -26
-3 -50 -10 -53 -15 -3 -5 -23 -9 -45 -9 -23 0 -68 -7 -102 -15 -34 -8 -96 -21
-137 -29 -41 -8 -97 -20 -125 -26 -27 -6 -82 -15 -121 -20 -40 -4 -81 -13 -92
-19 -12 -6 -35 -11 -52 -11 -18 0 -58 -6 -89 -14 -80 -20 -126 -25 -140 -17
-6 4 -14 47 -18 104 -6 95 -6 96 18 105 44 17 212 51 300 61 36 4 71 11 78 16
7 4 38 11 69 16 54 7 74 11 197 39 28 6 79 15 115 19 36 4 75 13 87 19 12 7
34 12 50 12 28 0 119 17 240 46 34 7 75 14 91 14 17 0 43 5 59 12 29 12 123
26 158 24 19 -1 20 -8 20 -105z m149 -283 c8 -13 8 -23 0 -35 -14 -23 -28 -28
-114 -46 -41 -9 -97 -21 -125 -27 -27 -6 -66 -14 -85 -16 -47 -6 -184 -32
-240 -46 -25 -6 -67 -14 -95 -19 -27 -4 -70 -12 -95 -17 -25 -6 -88 -18 -140
-27 -52 -9 -124 -22 -160 -30 -152 -33 -280 -57 -403 -76 -32 -5 -67 -13 -77
-19 -10 -5 -34 -10 -53 -10 -18 0 -56 -7 -83 -15 -69 -21 -91 -19 -109 9 -24
37 -7 59 62 78 86 23 159 38 239 48 40 4 81 13 92 19 12 6 35 11 52 11 29 0
67 8 210 42 25 6 70 14 100 18 30 4 82 13 115 20 33 6 93 18 132 26 40 8 106
21 145 29 133 26 192 37 255 46 35 4 72 13 82 19 11 5 32 10 48 10 15 0 51 7
78 15 69 19 155 15 169 -7z m-174 -369 c0 -79 -3 -111 -12 -113 -7 -2 -47 -11
-88 -19 -41 -9 -97 -21 -125 -27 -27 -6 -82 -15 -122 -20 -40 -5 -78 -12 -85
-16 -7 -5 -33 -11 -58 -15 -25 -4 -72 -12 -105 -18 -33 -7 -91 -18 -130 -26
-38 -7 -95 -18 -125 -24 -30 -7 -68 -14 -85 -17 -32 -5 -147 -27 -260 -49 -38
-8 -89 -17 -112 -20 -24 -4 -45 -11 -49 -16 -8 -13 -58 -11 -72 3 -8 8 -12 46
-12 104 0 107 5 115 84 125 68 9 159 27 222 45 28 8 67 14 86 14 20 0 55 7 78
15 23 8 56 15 72 15 16 0 57 6 91 14 34 8 100 22 147 31 47 9 105 21 130 27
25 6 72 14 105 18 33 4 76 12 95 18 19 6 80 18 135 28 55 9 118 22 140 28 22
7 43 11 48 9 4 -3 7 -54 7 -114z m136 -267 c40 -27 2 -92 -54 -92 -16 0 -51
-7 -78 -15 -27 -8 -67 -15 -89 -15 -22 -1 -58 -7 -80 -15 -22 -8 -52 -15 -68
-15 -15 0 -53 -6 -85 -14 -84 -21 -159 -36 -227 -45 -33 -5 -80 -13 -105 -19
-25 -6 -81 -18 -125 -27 -44 -9 -100 -21 -125 -27 -25 -6 -70 -14 -100 -18
-64 -8 -162 -26 -240 -45 -166 -40 -304 -59 -330 -45 -46 24 -11 90 48 90 19
0 58 6 86 14 57 16 146 34 221 46 54 8 128 22 243 45 39 8 105 22 145 30 125
25 190 37 248 45 30 4 65 12 77 19 11 6 37 11 56 11 20 0 62 6 94 14 69 17
154 34 241 47 36 5 69 14 76 19 6 5 35 10 65 13 30 2 64 4 75 5 11 1 25 -2 31
-6z m-157 -281 c17 -11 19 -56 6 -141 -11 -78 -19 -90 -61 -90 -20 0 -63 -6
-97 -14 -65 -15 -150 -33 -227 -46 -25 -4 -61 -13 -80 -19 -19 -6 -51 -11 -71
-11 -20 0 -56 -7 -79 -15 -23 -8 -61 -15 -84 -15 -22 -1 -59 -7 -81 -15 -22
-8 -49 -15 -60 -15 -20 0 -109 -17 -235 -46 -36 -8 -79 -14 -96 -14 -17 0 -49
-6 -71 -14 -22 -8 -64 -15 -94 -17 l-54 -4 -7 90 c-4 50 -5 97 -3 105 5 15 63
35 130 46 47 7 183 34 256 50 37 8 79 14 93 14 14 0 43 6 63 14 21 8 67 17
102 19 35 3 68 10 74 16 6 6 25 11 41 11 36 0 170 25 242 46 28 8 67 14 87 14
20 0 54 6 74 14 21 8 66 17 101 21 35 3 73 10 85 15 28 11 29 11 46 1z m137
-376 c20 -20 23 -29 14 -45 -14 -26 -61 -50 -100 -50 -18 0 -59 -6 -93 -14
-78 -18 -165 -35 -240 -47 -32 -5 -67 -13 -77 -19 -10 -5 -36 -10 -58 -10 -21
0 -61 -7 -88 -15 -27 -8 -62 -15 -78 -15 -16 0 -52 -6 -80 -14 -57 -16 -140
-33 -231 -45 -58 -9 -76 -12 -217 -45 -36 -9 -80 -16 -96 -16 -16 0 -49 -7
-72 -15 -23 -8 -57 -15 -74 -15 -17 0 -55 -7 -85 -14 -72 -20 -101 -9 -101 37
0 30 4 35 38 45 20 6 70 16 110 22 41 5 82 15 92 20 10 6 29 10 42 10 13 0 55
6 93 14 39 8 108 22 155 31 47 9 118 22 158 30 280 56 320 64 400 76 35 5 72
14 82 19 10 6 33 10 50 10 18 0 59 6 93 14 65 16 146 32 236 47 30 6 61 14 70
19 24 14 30 12 57 -15z m-151 -380 l0 -100 -35 -17 c-19 -9 -50 -17 -68 -18
-30 0 -67 -7 -207 -41 -22 -5 -70 -14 -108 -19 -37 -5 -76 -14 -87 -20 -10 -5
-35 -10 -55 -10 -20 0 -64 -6 -98 -14 -130 -31 -204 -45 -259 -51 -32 -4 -60
-11 -63 -16 -4 -5 -24 -9 -46 -9 -23 0 -68 -6 -102 -14 -209 -49 -207 -49
-222 -36 -11 9 -15 35 -15 106 0 85 2 94 22 108 12 9 36 16 53 16 16 0 46 5
65 11 19 7 62 15 95 19 33 4 80 12 105 18 25 6 83 18 130 27 47 9 110 23 140
30 30 8 82 17 115 20 33 3 64 10 69 15 6 6 26 10 45 10 35 0 132 18 241 45 30
8 80 17 110 20 30 3 62 10 70 16 8 5 35 8 60 7 l45 -3 0 -100z m135 -280 c22
-24 23 -26 6 -44 -21 -23 -97 -51 -138 -51 -16 0 -57 -6 -91 -14 -95 -22 -167
-36 -222 -45 -27 -5 -77 -14 -110 -20 -170 -34 -204 -41 -250 -51 -27 -6 -79
-15 -115 -21 -36 -5 -78 -13 -94 -19 -16 -5 -43 -10 -61 -10 -18 0 -52 -7 -75
-15 -23 -8 -57 -15 -75 -15 -18 0 -52 -7 -75 -15 -23 -8 -59 -15 -79 -15 -20
0 -61 -7 -91 -15 -30 -8 -78 -15 -107 -15 -43 0 -53 3 -58 20 -10 30 20 70 51
70 14 0 53 6 87 14 84 19 166 36 202 42 69 11 301 56 380 74 28 6 79 15 115
20 36 4 78 13 93 19 16 6 42 11 59 11 18 0 57 6 87 14 107 27 156 37 223 46
37 5 76 13 87 19 11 6 39 11 63 12 24 0 61 6 83 14 60 19 79 18 105 -10z
m-162 -377 l3 -107 -38 -10 c-21 -6 -72 -15 -113 -22 -41 -6 -79 -15 -84 -20
-6 -5 -29 -9 -51 -9 -23 0 -64 -7 -91 -15 -27 -8 -60 -15 -74 -15 -26 0 -128
-22 -216 -46 -28 -8 -71 -14 -95 -14 -24 -1 -62 -7 -84 -15 -22 -8 -53 -15
-68 -15 -26 0 -64 -8 -202 -41 -87 -21 -178 -29 -192 -17 -10 8 -13 35 -11
107 l3 96 70 16 c142 32 182 40 247 49 37 5 76 13 87 19 11 6 36 11 56 11 33
0 68 7 210 41 22 5 70 14 108 19 37 5 76 14 87 20 10 5 40 10 67 10 26 1 66 7
88 15 22 8 52 15 67 15 15 0 39 5 55 11 30 11 129 28 153 25 12 -1 16 -22 18
-108z m142 -272 c15 -19 9 -57 -10 -67 -8 -4 -53 -15 -100 -24 -125 -24 -206
-41 -285 -59 -38 -9 -80 -16 -93 -16 -13 0 -51 -6 -85 -14 -82 -19 -162 -35
-217 -45 -140 -25 -293 -55 -365 -71 -27 -6 -75 -15 -105 -20 -95 -14 -183
-31 -236 -46 -58 -16 -74 -13 -92 17 -22 34 7 65 70 77 29 6 80 16 113 22 33
7 83 16 111 20 28 4 61 13 72 19 11 6 40 11 64 11 24 0 59 5 78 11 19 6 60 15
90 19 51 6 73 11 190 40 25 6 78 15 119 20 41 5 79 14 85 20 5 5 31 10 57 10
25 0 66 7 89 15 23 8 58 15 77 15 18 0 50 7 70 15 19 8 54 15 77 16 22 0 59 6
81 14 56 18 130 18 145 1z m-165 -282 c13 -13 15 -30 10 -93 -10 -120 -7 -115
-72 -129 -32 -7 -80 -16 -108 -21 -27 -4 -70 -13 -95 -19 -25 -6 -90 -18 -145
-27 -55 -10 -121 -23 -147 -31 -26 -8 -61 -14 -78 -14 -18 0 -59 -6 -93 -14
-72 -17 -161 -35 -232 -46 -27 -4 -63 -13 -78 -19 -16 -6 -46 -11 -67 -11 -22
0 -60 -7 -86 -16 -25 -8 -51 -13 -58 -11 -8 3 -15 38 -19 98 -9 115 2 139 64
139 22 0 68 6 102 14 34 8 98 22 142 31 44 9 109 23 145 31 36 8 81 14 100 15
19 0 53 6 75 14 22 8 51 15 65 15 14 0 47 7 74 15 27 8 65 15 83 15 19 0 43 5
54 11 11 5 52 14 92 19 40 5 90 14 112 19 22 6 63 14 90 19 28 5 51 10 52 11
1 0 9 -6 18 -15z m129 -367 c12 -9 17 -23 14 -42 -3 -33 -6 -34 -128 -59 -41
-8 -97 -20 -125 -26 -27 -6 -77 -15 -110 -20 -33 -4 -80 -12 -105 -18 -25 -5
-81 -17 -125 -26 -44 -9 -108 -23 -142 -31 -34 -8 -73 -15 -88 -15 -14 0 -54
-6 -88 -14 -95 -22 -167 -36 -222 -45 -69 -12 -158 -29 -235 -47 -79 -17 -152
-18 -168 -2 -29 29 3 78 50 78 16 0 45 7 65 15 19 8 51 15 71 15 20 0 61 6 91
14 83 21 158 36 226 45 33 5 73 14 88 20 16 6 45 11 66 11 21 0 58 7 81 15 23
8 54 15 69 15 14 0 55 6 91 14 36 8 99 22 140 30 41 8 100 20 130 26 30 6 80
15 110 19 30 5 63 12 73 16 15 6 97 21 138 24 8 0 23 -5 33 -12z m-144 -282
c24 -29 -2 -316 -32 -352 -38 -46 -56 -47 -581 -49 -526 -3 -538 -2 -590 44
-24 22 -41 87 -27 111 11 21 98 51 150 51 17 0 59 6 93 14 163 38 204 46 230
46 15 0 44 7 64 15 19 8 55 15 80 15 24 0 60 7 80 15 19 8 52 15 73 15 21 0
60 6 86 14 27 8 94 22 149 31 55 9 120 23 145 30 60 17 65 17 80 0z"/>
</g>
</svg>
