<?xml version="1.0" standalone="no"?>
<!DOCTYPE svg PUBLIC "-//W3C//DTD SVG 20010904//EN"
 "http://www.w3.org/TR/2001/REC-SVG-20010904/DTD/svg10.dtd">
<svg version="1.0" xmlns="http://www.w3.org/2000/svg"
 width="822.000000pt" height="822.000000pt" viewBox="0 0 822.000000 822.000000"
 preserveAspectRatio="xMidYMid meet">
<metadata>
Created by potrace 1.10, written by Peter Selinger 2001-2011
</metadata>
<g transform="translate(0.000000,822.000000) scale(0.100000,-0.100000)"
fill="#000000" stroke="none">
<path d="M3600 7791 c-61 -10 -101 -32 -147 -85 -50 -57 -60 -101 -68 -297
l-7 -157 -39 -17 c-68 -31 -120 -132 -104 -203 10 -48 55 -108 98 -132 l40
-23 -7 -60 c-3 -33 -6 -82 -6 -108 0 -46 -2 -49 -43 -73 -137 -81 -138 -252
-2 -336 l35 -22 0 -94 c0 -98 -10 -134 -35 -134 -8 0 -35 -19 -59 -42 -94 -91
-81 -222 30 -299 l44 -30 -1 -62 c0 -34 -4 -84 -7 -112 -6 -41 -11 -51 -29
-53 -11 -2 -37 -18 -55 -36 -68 -66 -86 -148 -48 -218 24 -46 51 -78 65 -78 5
-1 21 -10 34 -20 22 -19 23 -26 22 -113 -2 -95 -16 -137 -46 -137 -27 0 -91
-68 -103 -108 -16 -53 -15 -85 4 -130 17 -41 61 -92 79 -92 7 0 20 -8 29 -19
14 -15 16 -36 14 -122 l-3 -104 -35 -17 c-86 -43 -128 -117 -115 -204 6 -45
55 -121 83 -131 46 -16 52 -32 52 -134 0 -108 6 -97 -80 -152 -106 -69 -104
-236 5 -305 70 -45 78 -68 51 -153 -16 -49 -68 -223 -93 -309 -8 -30 -20 -65
-24 -78 -17 -43 -10 -104 16 -147 47 -80 -16 -76 967 -73 l873 3 33 23 c36 26
62 78 62 125 0 30 -33 151 -96 352 -43 140 -45 156 -42 350 3 180 4 190 23
194 35 6 85 53 105 97 25 53 25 107 1 159 -22 49 -43 68 -102 94 l-46 21 -7
91 c-8 102 -7 103 60 145 60 38 84 85 84 163 0 52 -4 65 -33 103 -18 24 -51
51 -74 62 -49 22 -53 33 -53 143 l0 81 43 28 c55 34 88 82 94 136 10 89 -26
154 -112 203 l-40 22 -3 101 c-3 101 -3 101 25 118 101 63 137 154 98 246 -14
34 -76 98 -95 98 -6 0 -19 9 -30 20 -17 17 -20 33 -20 115 0 92 1 95 28 112
48 30 73 57 93 100 24 53 24 93 -1 147 -18 39 -76 96 -98 96 -21 0 -30 30 -36
127 l-6 102 45 31 c57 39 85 92 85 163 0 63 -31 114 -97 160 -38 26 -41 32
-47 89 -13 131 -11 143 37 178 24 17 51 45 62 62 25 44 26 145 1 184 -23 36
-62 71 -87 79 -11 4 -21 16 -23 28 -22 116 -31 140 -69 183 -22 25 -58 55 -81
67 -41 22 -46 22 -531 23 -269 1 -510 -1 -535 -5z m999 -152 c62 -22 92 -132
38 -143 -51 -11 -178 -36 -257 -51 -47 -9 -114 -23 -150 -31 -36 -8 -73 -14
-84 -14 -10 0 -48 -7 -85 -15 -69 -15 -159 -33 -301 -60 -47 -9 -113 -22 -147
-29 -34 -7 -67 -10 -74 -6 -16 11 -7 265 12 304 26 54 33 55 545 56 320 0 481
-4 503 -11z m192 -290 c7 -15 8 -28 1 -43 -8 -17 -27 -25 -103 -39 -171 -33
-243 -48 -309 -63 -36 -8 -73 -14 -84 -14 -10 0 -48 -6 -85 -14 -36 -8 -104
-22 -151 -31 -47 -9 -116 -22 -155 -30 -89 -17 -197 -39 -305 -60 -47 -9 -105
-20 -130 -25 -34 -7 -50 -5 -67 6 -48 31 -19 68 65 83 31 6 92 18 135 26 42 8
114 22 160 30 45 9 114 22 152 30 88 17 205 40 315 61 47 8 114 22 150 29 36
7 103 21 150 30 47 9 112 22 145 29 87 20 103 19 116 -5z m-123 -251 c7 -7 12
-44 12 -95 0 -92 -3 -96 -75 -108 -22 -3 -71 -12 -110 -20 -38 -7 -108 -21
-155 -30 -47 -9 -114 -23 -150 -30 -74 -15 -192 -38 -312 -60 -46 -9 -114 -22
-153 -30 -38 -7 -94 -19 -123 -24 -99 -20 -94 -24 -90 80 2 69 7 93 19 102 16
12 50 20 224 53 211 40 255 48 465 89 47 9 117 23 155 30 116 23 264 52 276
54 3 0 10 -4 17 -11z m143 -328 c5 0 9 -14 9 -31 0 -25 -6 -32 -35 -45 -19 -7
-46 -14 -61 -14 -14 0 -56 -6 -93 -14 -63 -14 -115 -24 -301 -61 -47 -9 -116
-22 -155 -30 -72 -14 -158 -31 -305 -59 -97 -19 -192 -38 -300 -60 -169 -34
-210 -31 -210 16 0 21 42 42 105 53 38 6 103 18 260 50 94 19 246 48 470 91
77 14 118 22 303 58 45 9 117 23 160 31 42 8 86 17 97 19 11 2 26 2 33 0 8 -2
18 -4 23 -4z m-116 -273 c3 -12 5 -56 3 -97 l-3 -75 -75 -17 c-41 -10 -113
-25 -160 -33 -47 -9 -114 -23 -150 -31 -36 -8 -73 -14 -84 -14 -10 0 -48 -7
-85 -15 -76 -17 -150 -31 -451 -90 -47 -9 -107 -21 -133 -27 -27 -5 -51 -7
-55 -3 -11 10 -2 189 10 196 6 4 38 12 72 19 33 6 93 18 131 25 65 13 107 21
310 61 110 21 204 39 305 59 47 9 121 23 165 31 44 9 96 19 115 24 62 14 79
12 85 -13z m136 -317 c21 -12 25 -40 7 -58 -12 -12 -87 -29 -388 -87 -47 -9
-116 -23 -155 -30 -38 -8 -106 -20 -150 -29 -119 -22 -242 -46 -315 -61 -36
-7 -103 -21 -150 -30 -47 -9 -116 -22 -155 -30 -133 -27 -151 -28 -169 -10
-34 35 -6 68 69 80 22 3 73 13 113 21 71 14 134 26 302 58 47 9 117 23 155 31
66 13 139 27 315 60 174 33 373 72 430 83 63 13 69 13 91 2z m-118 -329 c10
-91 4 -119 -26 -125 -12 -2 -60 -12 -107 -21 -105 -21 -199 -39 -310 -60 -47
-9 -116 -22 -155 -30 -38 -8 -108 -21 -155 -30 -162 -31 -225 -44 -305 -60
-44 -9 -102 -17 -130 -18 l-50 -2 -3 81 c-2 64 1 85 13 98 17 17 77 36 113 36
13 0 51 6 85 14 57 13 123 27 302 61 135 26 241 47 310 60 91 18 173 34 264
50 40 8 76 16 79 20 4 3 20 5 37 3 30 -3 30 -4 38 -77z m151 -273 c15 -20 14
-24 -6 -45 -12 -13 -33 -23 -47 -23 -14 0 -57 -6 -96 -14 -68 -15 -131 -27
-305 -61 -47 -9 -116 -22 -155 -30 -38 -8 -108 -21 -155 -30 -47 -9 -116 -22
-155 -30 -88 -17 -205 -40 -315 -61 -47 -8 -115 -22 -151 -30 -36 -9 -85 -14
-110 -12 -39 3 -44 6 -47 28 -3 29 39 60 83 60 15 0 57 6 94 14 36 8 104 22
151 31 47 9 117 23 155 30 95 19 214 41 310 60 44 8 115 22 158 30 71 14 118
23 317 61 41 8 100 21 130 28 88 21 126 20 144 -6z m-133 -328 c4 -56 2 -89
-5 -97 -12 -13 -50 -23 -183 -48 -123 -23 -240 -45 -313 -60 -36 -7 -105 -21
-155 -30 -49 -9 -124 -23 -165 -31 -41 -9 -106 -22 -145 -29 -38 -8 -95 -19
-125 -25 -120 -25 -164 -29 -175 -20 -14 12 -8 168 7 187 5 7 31 15 56 18 26
4 81 13 122 21 41 8 107 21 145 29 39 8 106 21 150 29 44 9 116 22 160 31 155
29 231 44 315 60 47 9 114 22 150 30 72 16 117 23 140 21 12 -1 16 -21 21 -86z
m153 -262 c18 -30 -5 -52 -70 -66 -64 -14 -152 -32 -284 -57 -80 -15 -116 -22
-300 -59 -41 -8 -115 -22 -165 -31 -49 -9 -119 -23 -155 -30 -76 -15 -196 -39
-312 -60 -46 -9 -112 -22 -148 -30 -110 -25 -157 -15 -148 32 5 25 40 39 148
58 95 16 182 33 315 59 39 8 108 21 155 30 47 9 117 23 155 31 39 8 108 21
155 30 305 59 390 76 465 91 137 27 172 28 189 2z m-130 -269 c8 -43 7 -142
-2 -155 -6 -10 -55 -21 -257 -60 -44 -8 -111 -21 -150 -29 -38 -8 -108 -21
-155 -30 -47 -9 -119 -23 -160 -31 -114 -22 -206 -40 -300 -59 -47 -9 -116
-22 -155 -30 -38 -8 -83 -16 -100 -17 l-30 -3 -3 88 c-3 101 3 114 57 122 20
4 68 13 106 20 39 8 108 21 155 30 100 20 208 41 305 60 39 8 108 21 155 30
47 9 117 22 155 30 39 8 97 19 130 26 33 6 89 17 125 24 108 21 117 20 124
-16z m149 -310 c18 -24 11 -57 -12 -63 -28 -7 -152 -33 -241 -51 -47 -9 -116
-22 -155 -30 -38 -7 -108 -20 -155 -29 -47 -9 -116 -23 -155 -31 -38 -7 -97
-19 -130 -25 -33 -7 -84 -16 -113 -20 -29 -5 -74 -13 -100 -19 -26 -6 -83 -18
-127 -26 -176 -33 -243 -47 -310 -61 -93 -19 -104 -18 -117 11 -9 21 -8 28 7
45 10 11 29 20 42 20 13 0 52 6 86 14 58 13 118 25 312 62 44 9 112 22 150 29
39 8 106 20 150 29 122 23 243 46 315 61 36 7 106 21 155 30 141 26 235 45
295 59 78 19 87 18 103 -5z m-139 -257 c2 -4 6 -45 7 -91 4 -93 -7 -111 -65
-111 -16 0 -57 -6 -90 -14 -34 -8 -101 -22 -151 -31 -49 -9 -121 -23 -160 -30
-38 -8 -106 -21 -150 -30 -44 -8 -111 -22 -150 -29 -123 -24 -238 -47 -320
-62 -44 -9 -109 -22 -145 -30 -80 -17 -120 -18 -121 -1 -2 38 3 155 7 169 3
10 15 20 27 22 12 2 59 11 105 20 45 9 119 23 165 31 45 9 114 22 152 30 88
17 205 40 315 61 47 8 114 22 150 29 36 7 108 21 160 31 52 9 118 23 145 30
58 14 112 17 119 6z m174 -353 c2 -21 -3 -29 -31 -43 -19 -9 -46 -16 -59 -16
-12 0 -54 -6 -93 -15 -66 -14 -133 -27 -300 -59 -38 -8 -108 -21 -155 -31 -47
-9 -121 -23 -165 -32 -44 -8 -111 -21 -150 -28 -38 -8 -108 -21 -155 -30 -47
-9 -116 -22 -155 -30 -38 -8 -108 -21 -155 -30 -47 -9 -114 -23 -150 -31 -36
-8 -68 -14 -72 -14 -14 0 -38 32 -38 51 0 29 11 32 280 84 47 9 119 23 160 31
361 71 640 124 770 149 128 24 218 42 290 58 36 9 90 14 120 14 51 -2 55 -4
58 -28z m-148 -364 c3 -71 2 -140 -2 -153 l-8 -22 -682 2 -683 3 0 24 c0 27
22 34 195 61 35 6 80 15 100 20 19 5 76 16 125 25 50 9 119 22 155 30 36 7
103 21 150 30 85 16 153 29 308 59 45 9 117 23 160 31 42 8 86 17 97 19 11 2
34 3 50 3 l30 -2 5 -130z m37 -352 c8 -21 22 -60 29 -88 8 -27 21 -70 28 -95
23 -77 46 -161 46 -170 0 -6 -312 -10 -831 -10 l-831 0 5 28 c4 25 18 72 53
187 8 28 19 67 25 89 5 21 16 51 25 67 l15 29 710 0 710 0 16 -37z"/>
<path d="M3212 2509 c-27 -10 -37 -28 -56 -99 -10 -36 -24 -85 -31 -110 -7
-25 -20 -74 -29 -110 -44 -168 -73 -276 -91 -345 -37 -135 -90 -361 -119 -505
-42 -215 -50 -279 -50 -450 -1 -150 2 -183 19 -230 38 -108 92 -168 183 -203
66 -26 211 -22 357 9 66 14 138 29 160 34 22 4 60 12 85 18 170 41 209 46 385
46 134 0 201 -4 260 -17 203 -44 245 -53 390 -91 143 -37 215 -47 325 -48 131
0 173 13 248 77 148 128 160 442 36 1000 -28 127 -92 378 -149 590 -7 28 -21
79 -30 115 -10 36 -23 88 -30 115 -36 136 -50 176 -67 192 -19 17 -75 18 -899
18 -484 0 -887 -3 -897 -6z m1708 -204 c20 -66 36 -124 96 -355 9 -36 22 -85
29 -110 7 -25 19 -72 28 -105 26 -103 37 -148 83 -355 46 -207 57 -295 58
-490 1 -184 0 -197 -21 -237 -13 -23 -39 -54 -60 -70 -35 -27 -41 -28 -143
-27 -64 0 -134 8 -176 18 -147 37 -181 45 -246 60 -38 9 -96 23 -130 31 -167
38 -246 48 -409 47 -163 0 -225 -7 -414 -48 -159 -35 -213 -47 -266 -60 -30
-8 -102 -14 -158 -14 -119 0 -146 12 -184 83 -20 39 -22 55 -22 222 0 196 10
266 82 585 26 115 88 361 118 470 7 25 20 72 28 105 61 238 79 298 92 307 5 4
367 7 803 5 l794 -2 18 -60z"/>
<path d="M3829 1161 c-90 -19 -162 -68 -225 -153 -58 -79 -59 -125 -3 -153 40
-21 70 -6 118 58 62 85 97 102 206 102 90 0 110 -5 215 -54 66 -30 135 -75
232 -148 110 -83 142 -91 177 -47 32 41 26 63 -31 119 -100 95 -279 204 -422
254 -65 22 -209 35 -267 22z"/>
</g>
</svg>
