<?xml version="1.0" standalone="no"?>
<!DOCTYPE svg PUBLIC "-//W3C//DTD SVG 20010904//EN"
 "http://www.w3.org/TR/2001/REC-SVG-20010904/DTD/svg10.dtd">
<svg version="1.0" xmlns="http://www.w3.org/2000/svg"
 width="483.000000pt" height="900.000000pt" viewBox="0 0 483.000000 900.000000"
 preserveAspectRatio="xMidYMid meet">
<metadata>
Created by potrace 1.10, written by Peter Selinger 2001-2011
</metadata>
<g transform="translate(0.000000,900.000000) scale(0.100000,-0.100000)"
fill="#000000" stroke="none">
<path d="M1612 7989 c-98 -50 -155 -159 -196 -374 -40 -211 -46 -257 -46 -350
0 -103 -11 -149 -25 -105 -10 33 -91 165 -141 230 -189 249 -402 252 -517 9
-46 -98 -81 -206 -97 -299 -5 -30 -14 -71 -19 -91 -33 -110 -31 -704 3 -899 8
-47 23 -137 32 -200 9 -63 23 -135 30 -160 8 -25 14 -58 14 -75 0 -26 32 -179
75 -355 8 -30 21 -86 30 -125 25 -108 69 -280 86 -332 6 -18 14 -54 19 -80 4
-27 20 -104 34 -173 60 -288 83 -449 107 -775 15 -199 5 -868 -15 -1007 -15
-107 -23 -129 -85 -241 -33 -62 -38 -72 -103 -257 -63 -177 -129 -424 -165
-615 -25 -141 -26 -475 0 -555 9 -30 25 -80 35 -110 53 -169 195 -331 362
-412 90 -44 171 -78 185 -78 8 0 29 -6 47 -14 18 -8 60 -22 93 -32 33 -9 83
-23 110 -32 38 -12 93 -16 235 -16 164 0 193 2 254 22 157 50 282 129 428 268
52 49 86 74 101 74 13 0 88 -43 168 -95 151 -100 320 -189 428 -225 36 -12 72
-25 81 -30 9 -5 73 -14 143 -21 138 -13 282 -2 362 28 133 49 202 79 290 127
134 73 288 242 325 356 5 14 19 54 33 90 40 107 53 319 33 550 -8 102 -25 228
-36 280 -12 52 -25 118 -30 145 -4 28 -18 86 -30 130 -13 44 -26 96 -30 115
-4 19 -24 82 -44 140 -98 283 -109 425 -109 1405 1 491 5 810 12 880 40 396
42 439 23 610 -28 259 -34 304 -43 355 -6 30 -13 69 -15 85 -14 95 -41 216
-80 350 -36 126 -47 161 -59 190 -7 17 -21 53 -30 80 -32 90 -163 343 -232
447 -44 66 -109 144 -188 223 -137 139 -118 123 -394 326 -42 30 -106 70 -144
87 -58 28 -78 32 -148 32 -94 0 -119 -11 -164 -73 -34 -47 -59 -101 -75 -164
-20 -80 -11 -91 -296 343 -39 59 -158 199 -224 263 -108 104 -179 142 -280
148 -63 4 -82 1 -118 -18z m158 -131 c101 -35 196 -127 356 -345 124 -170 444
-708 444 -747 0 -6 6 -20 13 -31 16 -24 59 -181 77 -280 19 -104 33 -175 45
-225 67 -278 67 -963 -1 -1179 -8 -25 -14 -54 -14 -66 0 -36 -79 -264 -121
-350 -50 -103 -68 -126 -94 -119 -22 6 -81 81 -112 144 -4 8 -25 47 -48 85
-66 113 -201 396 -357 745 -11 25 -26 58 -34 73 -8 16 -14 33 -14 38 0 5 -13
37 -29 72 -16 34 -43 97 -60 140 -99 246 -93 232 -135 345 -25 68 -44 117 -65
169 -34 85 -69 184 -87 253 -16 57 -18 116 -18 480 0 385 1 422 21 510 53 242
122 327 233 288z m-797 -432 c45 -19 126 -109 173 -191 42 -75 45 -83 100
-245 19 -58 39 -114 45 -125 5 -11 20 -54 34 -95 36 -111 54 -163 65 -185 5
-11 21 -54 35 -95 14 -41 35 -102 46 -135 23 -66 145 -377 159 -404 4 -9 15
-34 23 -56 73 -188 93 -237 114 -285 14 -30 31 -70 39 -88 16 -38 35 -81 114
-257 64 -142 250 -521 315 -640 131 -242 153 -281 185 -328 40 -60 58 -73 78
-60 51 32 210 349 267 533 10 30 21 64 25 76 13 33 46 180 66 289 27 141 27
812 1 949 -9 49 -17 118 -17 155 0 40 -10 101 -26 156 -14 50 -29 106 -33 125
-4 19 -20 78 -35 130 -15 52 -33 118 -41 145 -29 102 -38 173 -38 291 1 160
17 230 57 255 17 11 40 19 51 19 49 0 151 -52 240 -122 28 -21 97 -74 155
-117 295 -219 520 -554 640 -951 11 -36 26 -85 34 -110 8 -25 22 -81 31 -125
10 -44 24 -97 31 -118 8 -20 14 -55 14 -77 0 -22 7 -72 15 -112 47 -235 57
-499 30 -793 -8 -88 -15 -209 -15 -270 0 -60 -5 -162 -11 -225 -13 -146 -13
-857 0 -1015 15 -168 14 -475 0 -475 -6 0 -41 21 -78 48 -105 75 -130 92 -137
92 -4 0 -15 6 -23 14 -24 21 -168 95 -219 113 -146 49 -193 56 -372 56 -185 0
-205 -3 -360 -63 -138 -53 -194 -60 -356 -41 -228 27 -317 35 -394 34 -81 0
-346 -34 -420 -53 -91 -24 -204 -61 -238 -79 -36 -20 -137 -64 -164 -72 -18
-5 -30 -4 -35 4 -4 7 -8 212 -8 457 -2 440 -10 610 -41 815 -8 55 -19 136 -23
180 -13 127 -57 329 -169 780 -22 88 -44 180 -50 205 -6 25 -18 72 -27 105 -8
33 -20 85 -24 115 -8 48 -31 172 -72 380 -6 30 -15 102 -20 160 -5 57 -14 131
-20 165 -6 33 -12 175 -12 320 -2 329 16 447 96 660 63 167 117 216 200 181z
m2312 -4393 c121 -20 217 -60 370 -156 103 -64 248 -205 308 -299 41 -64 95
-185 107 -238 5 -19 16 -60 25 -90 9 -30 21 -75 27 -100 6 -25 21 -90 34 -145
13 -55 28 -132 33 -170 6 -39 15 -84 20 -101 14 -50 22 -351 12 -459 -17 -175
-65 -301 -150 -397 -43 -48 -138 -126 -171 -141 -8 -4 -30 -16 -47 -27 -37
-22 -151 -72 -238 -103 -52 -19 -81 -22 -210 -22 -144 1 -154 2 -245 34 -157
55 -312 141 -489 271 -64 47 -133 94 -154 104 -58 27 -93 10 -174 -82 -106
-119 -114 -126 -183 -174 -86 -60 -159 -96 -250 -124 -95 -30 -283 -33 -388
-8 -73 18 -235 70 -322 104 -30 12 -64 24 -75 27 -36 11 -149 89 -201 140
-164 159 -219 425 -164 788 21 137 26 159 72 320 60 212 62 216 104 328 9 23
23 60 31 82 59 154 116 242 220 335 77 68 221 138 358 174 198 52 185 51 495
51 225 0 308 -3 350 -14 115 -30 250 -18 370 32 96 41 184 64 285 76 71 8 120
5 240 -16z"/>
</g>
</svg>
