<?xml version="1.0" standalone="no"?>
<!DOCTYPE svg PUBLIC "-//W3C//DTD SVG 20010904//EN"
 "http://www.w3.org/TR/2001/REC-SVG-20010904/DTD/svg10.dtd">
<svg version="1.0" xmlns="http://www.w3.org/2000/svg"
 width="279.000000pt" height="900.000000pt" viewBox="0 0 279.000000 900.000000"
 preserveAspectRatio="xMidYMid meet">
<metadata>
Created by potrace 1.10, written by Peter Selinger 2001-2011
</metadata>
<g transform="translate(0.000000,900.000000) scale(0.100000,-0.100000)"
fill="#000000" stroke="none">
<path d="M420 8693 c-39 -8 -76 -40 -103 -87 -42 -76 -52 -137 -51 -316 2
-196 12 -261 84 -510 87 -300 111 -421 160 -795 33 -256 60 -810 60 -1225 0
-411 -32 -1329 -55 -1595 -8 -88 -17 -232 -20 -320 -6 -173 -32 -585 -40 -650
-3 -22 -10 -118 -15 -212 -5 -95 -14 -192 -20 -215 -7 -24 -18 -65 -25 -93
-48 -176 -75 -311 -75 -376 0 -21 -6 -74 -14 -116 -19 -102 -46 -370 -46 -454
0 -36 -7 -116 -15 -177 -10 -78 -15 -219 -16 -466 -1 -376 -1 -377 50 -486 24
-51 93 -140 142 -184 94 -83 239 -164 359 -202 30 -9 71 -23 90 -30 19 -7 78
-20 130 -30 83 -15 167 -18 665 -18 535 -1 573 0 619 18 197 76 346 283 392
546 14 77 16 127 10 270 -4 96 -13 225 -21 285 -7 61 -18 155 -25 210 -11 97
-22 162 -55 311 -8 40 -15 86 -15 103 0 18 -6 46 -13 64 -7 18 -21 68 -31 112
-17 77 -27 117 -61 235 -47 165 -70 239 -105 330 -48 126 -59 177 -69 330 -5
85 -19 232 -30 325 -11 94 -24 238 -30 320 -5 83 -17 200 -25 260 -9 61 -20
162 -26 225 -12 138 -53 490 -79 675 -5 39 -15 117 -21 175 -7 58 -16 130 -21
160 -11 66 -22 140 -49 325 -27 184 -38 255 -55 345 -38 203 -45 242 -45 263
0 13 -6 43 -14 68 -7 24 -21 89 -30 144 -10 55 -24 125 -31 155 -8 30 -21 89
-30 130 -8 41 -22 102 -31 135 -9 33 -22 87 -30 120 -9 33 -22 80 -30 105 -8
25 -14 52 -14 60 0 9 -12 51 -26 95 -15 44 -30 96 -35 115 -11 51 -55 176
-116 335 -147 376 -300 644 -463 805 -172 171 -364 331 -450 374 -50 25 -141
39 -190 29z m190 -202 c165 -109 396 -334 499 -486 62 -92 141 -223 141 -234
0 -5 15 -37 33 -72 35 -70 75 -160 101 -226 9 -24 22 -60 30 -80 8 -21 29 -85
47 -143 17 -58 37 -121 44 -140 7 -19 20 -62 30 -95 10 -33 23 -80 31 -105 7
-25 20 -74 29 -110 9 -36 23 -88 31 -116 8 -28 14 -60 14 -72 0 -12 6 -39 14
-59 21 -60 46 -168 46 -202 0 -17 6 -48 14 -68 8 -21 21 -83 30 -138 10 -55
22 -120 28 -145 6 -25 14 -67 19 -95 29 -172 38 -226 48 -275 5 -30 17 -109
26 -175 9 -66 23 -148 31 -182 8 -34 14 -78 14 -98 0 -37 21 -182 46 -320 8
-44 14 -102 14 -130 0 -27 6 -88 15 -135 22 -128 45 -328 46 -390 0 -30 4 -77
10 -105 8 -47 29 -239 64 -600 23 -232 32 -399 23 -409 -4 -5 -71 53 -150 130
-140 136 -210 191 -316 247 -226 120 -438 116 -657 -14 -84 -50 -132 -88 -279
-223 -48 -44 -96 -81 -105 -81 -9 0 -18 10 -20 25 -6 42 19 516 34 655 8 72
15 193 15 270 0 77 5 183 10 235 6 52 14 221 20 375 5 154 14 339 20 410 15
213 12 1033 -5 1220 -8 88 -15 201 -15 250 0 50 -7 135 -15 190 -8 55 -14 129
-15 165 0 36 -6 97 -14 135 -18 84 -35 195 -46 290 -4 39 -12 84 -18 100 -5
17 -18 66 -27 110 -10 44 -23 98 -30 120 -18 57 -51 176 -92 325 -14 50 -18
104 -18 240 0 165 1 178 24 220 13 25 28 48 35 52 29 19 75 6 146 -41z m841
-5100 c195 -48 356 -174 548 -430 157 -211 221 -314 242 -396 4 -16 19 -64 33
-105 24 -70 68 -218 95 -320 28 -101 64 -274 87 -415 14 -82 32 -181 40 -220
8 -38 14 -90 14 -115 0 -25 7 -103 15 -175 8 -71 15 -213 15 -314 0 -244 -16
-314 -99 -435 -76 -112 -141 -162 -241 -187 -72 -18 -1046 -17 -1137 1 -106
21 -177 42 -262 77 -286 119 -410 245 -445 455 -9 50 25 821 44 1002 22 211
41 373 52 431 5 33 12 76 14 95 43 356 161 590 425 846 121 116 212 173 329
205 84 23 138 23 231 0z"/>
</g>
</svg>
