<?xml version="1.0" standalone="no"?>
<!DOCTYPE svg PUBLIC "-//W3C//DTD SVG 20010904//EN"
 "http://www.w3.org/TR/2001/REC-SVG-20010904/DTD/svg10.dtd">
<svg version="1.0" xmlns="http://www.w3.org/2000/svg"
 width="306.000000pt" height="900.000000pt" viewBox="0 0 306.000000 900.000000"
 preserveAspectRatio="xMidYMid meet">
<metadata>
Created by potrace 1.10, written by Peter Selinger 2001-2011
</metadata>
<g transform="translate(0.000000,900.000000) scale(0.100000,-0.100000)"
fill="#000000" stroke="none">
<path d="M860 8521 c-121 -47 -228 -119 -309 -208 -74 -80 -103 -130 -143
-248 l-32 -90 2 -276 c1 -161 6 -296 12 -325 6 -27 15 -107 20 -179 5 -71 14
-195 20 -275 15 -191 8 -2152 -9 -2430 -6 -107 -16 -271 -22 -365 -5 -93 -14
-340 -19 -547 -5 -207 -14 -414 -20 -460 -5 -45 -10 -114 -10 -153 0 -75 -23
-174 -63 -270 -31 -76 -45 -116 -64 -185 -8 -30 -21 -77 -29 -105 -7 -27 -23
-99 -34 -160 -12 -60 -28 -144 -37 -186 -18 -87 -14 -399 7 -504 35 -180 42
-213 56 -247 78 -205 133 -279 329 -442 112 -94 326 -241 425 -291 30 -16 66
-36 80 -46 40 -27 190 -85 255 -99 33 -7 110 -15 170 -18 200 -8 362 44 665
211 168 92 387 267 479 383 138 173 221 405 221 616 0 79 -26 258 -44 308 -3
8 -10 44 -16 80 -9 64 -17 93 -60 235 -11 39 -25 84 -30 100 -4 17 -18 55 -30
85 -11 30 -28 75 -37 100 -8 25 -43 104 -78 175 -34 72 -68 152 -74 178 -8 33
-10 107 -5 230 8 231 -12 1050 -31 1267 -8 91 -22 257 -31 370 -8 113 -20 223
-25 245 -5 22 -14 99 -19 171 -10 150 -25 270 -46 364 -8 36 -14 88 -14 116 0
28 -11 115 -25 195 -14 79 -30 179 -36 223 -5 43 -12 83 -15 88 -3 5 -10 37
-14 71 -9 63 -20 127 -45 252 -8 39 -21 106 -30 150 -9 44 -23 103 -31 131 -7
28 -14 61 -14 74 0 13 -6 46 -14 74 -20 71 -37 144 -46 191 -9 47 -56 234 -72
284 -6 19 -21 76 -34 125 -12 50 -27 105 -33 121 -6 17 -25 77 -42 135 -81
267 -269 554 -439 670 -52 35 -95 55 -198 94 -61 23 -260 21 -322 -3z m229
-122 c198 -34 399 -220 530 -491 42 -87 111 -287 111 -321 0 -10 5 -27 11 -38
5 -11 19 -57 30 -102 11 -45 24 -96 30 -114 5 -18 20 -74 33 -126 13 -51 28
-109 34 -128 6 -19 18 -72 27 -119 10 -47 23 -105 30 -130 7 -25 20 -85 29
-135 9 -49 23 -119 31 -155 8 -36 21 -99 29 -140 8 -41 22 -109 31 -150 8 -41
15 -88 15 -104 0 -16 6 -55 14 -85 8 -31 22 -110 30 -176 9 -66 21 -145 27
-175 6 -30 15 -93 19 -140 5 -47 14 -109 20 -139 5 -29 10 -77 10 -105 0 -28
7 -76 15 -106 8 -30 15 -86 15 -125 0 -38 7 -122 15 -185 28 -219 45 -426 45
-534 0 -61 7 -191 15 -290 19 -214 18 -937 -1 -943 -5 -2 -44 29 -85 68 -263
251 -393 333 -622 390 -208 51 -416 31 -595 -59 -134 -67 -179 -100 -336 -245
-108 -101 -117 -108 -127 -101 -14 8 -19 193 -9 304 6 63 15 270 19 460 5 190
14 428 20 530 30 499 47 1519 32 1875 -27 613 -32 720 -46 925 -8 118 -20 247
-26 285 -13 83 -7 290 11 360 36 143 86 232 181 324 81 79 155 120 246 137 38
6 70 12 72 13 2 0 34 -4 70 -10z m386 -4923 c107 -15 155 -30 250 -78 225
-113 453 -343 597 -603 52 -93 110 -209 125 -250 46 -123 85 -234 92 -260 5
-16 13 -41 19 -55 6 -14 18 -59 27 -100 9 -41 23 -100 31 -130 42 -168 49
-217 48 -365 0 -151 -9 -202 -51 -310 -70 -181 -148 -280 -333 -420 -172 -130
-250 -176 -461 -274 -148 -68 -180 -75 -349 -75 -133 0 -164 4 -217 22 -67 24
-238 111 -318 162 -16 11 -37 23 -46 27 -28 14 -169 116 -270 196 -270 215
-351 375 -367 734 -14 334 34 613 166 948 124 317 268 527 462 674 129 97 215
136 350 156 112 17 128 17 245 1z"/>
</g>
</svg>
