<?xml version="1.0" standalone="no"?>
<!DOCTYPE svg PUBLIC "-//W3C//DTD SVG 20010904//EN"
 "http://www.w3.org/TR/2001/REC-SVG-20010904/DTD/svg10.dtd">
<svg version="1.0" xmlns="http://www.w3.org/2000/svg"
 width="324.000000pt" height="900.000000pt" viewBox="0 0 324.000000 900.000000"
 preserveAspectRatio="xMidYMid meet">
<metadata>
Created by potrace 1.10, written by Peter Selinger 2001-2011
</metadata>
<g transform="translate(0.000000,900.000000) scale(0.100000,-0.100000)"
fill="#000000" stroke="none">
<path d="M1933 8700 c-164 -58 -299 -163 -416 -323 -124 -168 -197 -319 -252
-517 -13 -47 -28 -98 -33 -115 -5 -16 -17 -59 -27 -95 -9 -36 -23 -87 -30
-115 -8 -27 -21 -79 -30 -115 -9 -36 -22 -87 -30 -115 -14 -52 -32 -126 -60
-255 -24 -107 -41 -186 -58 -260 -9 -36 -23 -108 -33 -160 -9 -52 -21 -106
-26 -120 -5 -14 -13 -56 -18 -95 -10 -80 -25 -162 -46 -252 -8 -34 -14 -78
-14 -98 0 -20 -6 -66 -14 -103 -8 -37 -21 -116 -30 -177 -41 -295 -48 -344
-56 -400 -5 -33 -12 -98 -15 -145 -4 -47 -11 -112 -15 -145 -21 -138 -41 -340
-49 -495 -6 -91 -14 -205 -20 -255 -23 -199 -34 -499 -40 -1080 l-6 -610 -66
-135 c-80 -163 -119 -257 -154 -370 -10 -30 -24 -70 -31 -88 -8 -18 -14 -40
-14 -50 0 -9 -6 -34 -14 -57 -14 -39 -30 -110 -60 -265 -9 -41 -22 -108 -31
-149 -22 -109 -20 -308 5 -415 44 -184 95 -304 178 -421 141 -199 506 -459
812 -579 25 -10 53 -22 63 -28 123 -63 409 -80 582 -32 57 15 198 70 220 84 6
4 42 24 80 45 96 51 400 256 455 306 25 22 80 72 122 110 68 62 138 142 175
204 41 69 113 246 113 280 0 14 6 54 14 88 39 170 45 412 15 597 -11 69 -23
152 -28 185 -5 33 -18 92 -29 130 -11 39 -23 86 -27 105 -4 19 -18 67 -32 105
-13 39 -27 79 -30 90 -3 11 -16 48 -29 83 -49 125 -62 185 -69 322 -3 74 -10
207 -15 295 -5 88 -9 241 -10 340 0 99 -5 219 -10 267 -6 48 -15 239 -20 425
-6 186 -15 444 -20 573 -14 318 -14 1976 -1 2215 6 105 15 267 20 360 5 94 15
195 22 225 9 37 13 144 14 325 0 283 -1 295 -51 413 -8 18 -14 37 -14 42 0 14
-83 151 -111 184 -48 57 -170 154 -232 184 -115 57 -180 72 -307 71 -85 0
-128 -5 -167 -19z m322 -150 c147 -53 292 -181 353 -313 80 -170 86 -287 44
-762 -38 -426 -44 -588 -49 -1295 -5 -708 4 -1259 32 -1960 22 -525 35 -896
37 -1068 3 -138 1 -152 -14 -152 -10 0 -22 8 -27 18 -17 32 -237 223 -323 280
-102 68 -258 142 -301 142 -12 0 -44 7 -71 15 -33 10 -93 15 -184 15 -136 0
-147 -2 -308 -50 -61 -19 -206 -90 -235 -116 -8 -8 -19 -14 -23 -14 -16 0
-149 -109 -260 -213 -65 -62 -124 -113 -131 -115 -24 -6 -30 101 -28 468 1
226 7 420 17 533 9 98 16 228 16 290 0 115 21 384 41 517 6 41 15 136 19 210
8 130 14 184 45 390 8 52 19 131 25 175 5 44 17 125 25 180 8 55 19 136 25
180 5 44 21 134 34 200 14 66 26 135 26 153 0 19 6 57 14 85 8 29 21 90 30
137 9 47 23 117 31 155 8 39 22 106 30 150 9 44 21 98 26 120 6 22 14 58 19
80 20 99 72 311 105 430 8 28 28 102 45 165 18 63 45 156 61 206 16 50 29 96
29 103 0 20 62 151 120 257 143 255 316 401 505 427 51 7 148 -4 200 -23z
m-325 -5246 c84 -19 233 -85 318 -141 89 -60 169 -140 265 -267 76 -101 177
-255 177 -271 0 -3 13 -33 29 -68 16 -34 37 -82 46 -107 10 -25 23 -58 30 -75
7 -16 21 -57 30 -90 10 -33 23 -78 30 -100 12 -38 27 -102 60 -252 21 -101 46
-323 40 -374 -2 -24 -9 -114 -16 -199 -11 -147 -28 -240 -63 -345 -54 -156
-150 -264 -421 -466 -203 -152 -411 -276 -545 -324 -54 -19 -215 -44 -285 -44
-61 -1 -185 21 -242 42 -57 21 -297 139 -358 176 -27 17 -57 34 -65 38 -8 3
-75 51 -148 106 -142 107 -263 227 -300 298 -13 24 -33 62 -45 84 -44 81 -70
173 -91 320 -11 72 -11 109 -1 185 16 123 33 213 50 275 8 28 22 82 30 120 83
358 302 830 486 1045 163 191 286 291 449 366 30 14 64 30 75 35 96 46 330 62
465 33z"/>
</g>
</svg>
