<?xml version="1.0" standalone="no"?>
<!DOCTYPE svg PUBLIC "-//W3C//DTD SVG 20010904//EN"
 "http://www.w3.org/TR/2001/REC-SVG-20010904/DTD/svg10.dtd">
<svg version="1.0" xmlns="http://www.w3.org/2000/svg"
 width="312.000000pt" height="900.000000pt" viewBox="0 0 312.000000 900.000000"
 preserveAspectRatio="xMidYMid meet">
<metadata>
Created by potrace 1.10, written by Peter Selinger 2001-2011
</metadata>
<g transform="translate(0.000000,900.000000) scale(0.100000,-0.100000)"
fill="#000000" stroke="none">
<path d="M2058 8717 c-102 -39 -233 -154 -343 -302 -32 -44 -62 -82 -65 -85
-19 -16 -104 -139 -157 -225 -66 -109 -213 -405 -213 -429 0 -8 -4 -17 -10
-21 -5 -3 -14 -20 -19 -38 -5 -18 -17 -52 -27 -77 -60 -159 -94 -262 -124
-375 -5 -16 -13 -43 -19 -60 -5 -16 -17 -59 -27 -95 -9 -36 -22 -87 -30 -115
-27 -105 -43 -173 -59 -245 -9 -41 -23 -100 -30 -130 -8 -30 -21 -98 -30 -150
-9 -52 -21 -113 -27 -135 -9 -40 -29 -153 -48 -271 -5 -34 -14 -74 -20 -88 -5
-15 -10 -49 -10 -75 0 -26 -7 -73 -15 -104 -8 -32 -15 -70 -15 -85 0 -14 -6
-69 -14 -122 -29 -193 -37 -248 -52 -365 -8 -66 -19 -159 -23 -207 -5 -48 -12
-92 -16 -98 -4 -6 -13 -82 -21 -168 -21 -249 -32 -353 -43 -407 -5 -27 -12
-99 -15 -160 -4 -60 -11 -141 -16 -180 -20 -147 -40 -343 -40 -398 0 -32 -7
-106 -14 -165 -8 -59 -22 -188 -31 -287 -15 -166 -27 -235 -60 -340 -25 -80
-44 -151 -61 -225 -9 -41 -23 -95 -30 -119 -8 -25 -14 -57 -14 -73 0 -16 -6
-54 -14 -86 -37 -152 -46 -192 -46 -218 0 -15 -6 -53 -14 -83 -8 -31 -22 -103
-31 -161 -9 -58 -22 -136 -30 -175 -19 -95 -45 -291 -45 -340 0 -22 -7 -65
-15 -95 -8 -30 -15 -75 -15 -100 0 -25 -6 -83 -14 -130 -51 -301 -36 -540 41
-662 29 -48 113 -114 180 -144 78 -35 168 -37 1078 -25 829 11 853 12 1070 55
88 17 130 35 221 97 87 58 100 72 163 164 65 96 119 212 141 305 61 253 73
445 47 736 -9 99 -23 269 -32 379 -19 250 -58 546 -92 700 -21 100 -72 294
-88 335 -36 97 -44 118 -58 155 -24 61 -36 129 -47 260 -5 66 -18 188 -29 270
-11 83 -22 188 -25 235 -4 47 -13 150 -21 230 -37 365 -57 587 -66 725 -4 83
-13 233 -19 335 -6 102 -17 259 -25 350 -20 224 -30 1353 -16 1770 5 173 19
412 30 530 34 352 28 469 -30 659 -43 141 -145 286 -233 332 -52 27 -175 35
-228 16z m148 -143 c76 -31 144 -122 196 -260 21 -55 23 -74 22 -297 -1 -131
-7 -293 -13 -360 -11 -116 -25 -477 -38 -947 -3 -118 -1 -359 6 -535 7 -176
16 -435 22 -575 17 -466 28 -668 38 -747 6 -43 16 -145 21 -228 6 -82 17 -222
25 -310 9 -88 22 -241 30 -340 23 -285 43 -499 50 -528 5 -20 3 -28 -10 -33
-12 -5 -50 27 -143 118 -284 280 -580 405 -870 368 -151 -19 -233 -52 -393
-155 -98 -63 -108 -72 -300 -267 -97 -98 -180 -178 -184 -178 -8 0 -2 143 15
335 5 61 16 191 24 290 9 99 20 218 26 265 22 177 32 267 41 354 5 50 13 116
18 146 5 30 10 84 10 120 1 35 8 98 15 140 23 119 46 284 46 331 0 24 6 77 14
119 23 117 36 198 46 280 5 41 13 100 19 130 6 30 18 100 27 155 8 55 20 118
26 140 6 22 14 67 19 100 4 33 14 89 23 125 8 36 20 92 26 125 7 33 18 85 25
115 8 30 21 89 31 130 9 41 22 93 29 115 7 22 20 69 30 105 26 101 42 157 75
259 16 52 30 100 30 107 0 7 14 42 30 79 17 37 30 74 30 82 0 8 6 27 14 41 8
15 22 47 31 72 28 73 97 218 194 408 50 97 270 402 355 491 74 77 155 127 212
130 12 0 39 -6 60 -15z m-443 -4819 c32 -8 67 -15 77 -15 24 0 152 -59 203
-94 21 -14 40 -26 42 -26 9 0 118 -80 178 -131 35 -30 83 -78 108 -108 24 -29
63 -76 86 -104 99 -117 205 -331 258 -517 45 -157 59 -211 65 -257 5 -29 13
-67 18 -85 15 -46 40 -212 52 -348 6 -63 17 -180 25 -260 8 -80 19 -255 25
-390 17 -370 -2 -557 -77 -795 -27 -84 -59 -137 -128 -213 -52 -56 -83 -80
-142 -108 -142 -69 -186 -73 -763 -84 -1341 -25 -1292 -25 -1361 -5 -115 32
-163 68 -202 154 -17 38 -22 71 -25 188 -4 141 9 269 43 440 8 40 15 94 15
120 0 50 21 201 45 321 8 40 15 93 15 118 0 25 6 73 14 107 8 34 22 103 31
152 9 50 22 119 30 155 8 36 21 108 30 160 9 52 22 120 30 150 7 30 21 91 30
135 9 44 23 100 30 125 8 25 29 92 46 150 17 58 37 120 45 138 8 18 14 37 14
43 0 17 99 210 126 246 13 17 24 34 24 38 0 3 38 56 84 118 188 249 409 418
626 477 81 23 208 25 283 5z"/>
</g>
</svg>
