<?xml version="1.0" standalone="no"?>
<!DOCTYPE svg PUBLIC "-//W3C//DTD SVG 20010904//EN"
 "http://www.w3.org/TR/2001/REC-SVG-20010904/DTD/svg10.dtd">
<svg version="1.0" xmlns="http://www.w3.org/2000/svg"
 width="222.000000pt" height="900.000000pt" viewBox="0 0 222.000000 900.000000"
 preserveAspectRatio="xMidYMid meet">
<metadata>
Created by potrace 1.10, written by Peter Selinger 2001-2011
</metadata>
<g transform="translate(0.000000,900.000000) scale(0.100000,-0.100000)"
fill="#000000" stroke="none">
<path d="M375 8930 c-48 -9 -138 -43 -170 -64 -41 -27 -91 -99 -107 -156 -25
-85 -29 -215 -19 -605 10 -368 31 -672 50 -735 6 -19 11 -56 11 -83 0 -57 25
-229 46 -309 7 -32 14 -69 14 -83 0 -27 21 -127 45 -210 8 -27 16 -61 18 -75
3 -14 16 -70 30 -125 l25 -100 5 -780 c5 -677 24 -1396 42 -1530 2 -22 10
-166 16 -319 5 -154 17 -352 24 -440 8 -89 19 -224 25 -301 14 -182 37 -418
55 -575 8 -69 22 -188 31 -265 9 -77 22 -173 30 -214 8 -40 14 -89 14 -108 0
-18 6 -62 14 -96 27 -118 46 -218 46 -244 0 -14 6 -49 14 -77 8 -28 22 -85 31
-126 8 -41 22 -97 30 -125 8 -27 23 -81 34 -120 73 -259 165 -455 257 -549
130 -135 249 -140 342 -13 55 73 61 85 117 242 17 45 19 108 26 630 8 605 21
1030 38 1225 6 63 18 239 27 390 8 151 22 327 30 390 8 63 14 150 14 194 0
104 27 453 41 531 6 33 15 120 19 195 16 245 39 510 45 520 3 5 12 98 21 207
21 277 31 391 43 475 6 40 15 136 22 213 17 224 27 316 38 385 6 36 11 92 11
125 0 67 21 215 45 318 35 152 50 234 86 447 6 36 19 112 30 170 10 58 19 125
19 149 0 24 6 85 14 135 26 170 37 269 46 430 6 89 14 208 20 266 14 158 12
357 -5 405 -8 22 -15 48 -15 58 0 67 -136 215 -240 264 -119 55 -207 62 -840
66 -311 2 -583 1 -605 -3z m1350 -184 c96 -39 147 -83 184 -158 l31 -61 0
-226 c0 -219 -13 -403 -45 -628 -8 -56 -15 -123 -15 -150 0 -26 -7 -84 -15
-128 -8 -44 -22 -134 -30 -200 -17 -125 -37 -243 -61 -357 -8 -37 -14 -80 -14
-96 0 -16 -6 -48 -14 -73 -7 -24 -21 -89 -31 -144 -23 -129 -60 -275 -87 -339
-60 -144 -184 -282 -304 -340 -75 -37 -169 -66 -214 -66 -28 0 -141 29 -200
51 -132 50 -315 228 -377 366 -25 57 -78 223 -93 293 -4 19 -17 64 -29 100
-12 36 -26 92 -31 125 -5 33 -17 89 -25 125 -9 36 -22 103 -30 150 -7 47 -18
105 -23 130 -11 47 -32 227 -57 470 -40 397 -46 1008 -11 1082 16 32 52 64
111 97 14 7 211 10 665 8 l645 -2 70 -29z m-1202 -2833 c18 -10 50 -32 72 -49
182 -141 289 -193 437 -215 95 -13 199 -3 288 29 50 17 175 90 233 135 58 45
63 37 60 -99 -3 -140 -29 -471 -44 -564 -5 -36 -14 -121 -19 -190 -9 -130 -19
-249 -45 -505 -20 -207 -45 -531 -46 -585 0 -25 -6 -72 -14 -105 -8 -34 -15
-112 -15 -180 -1 -66 -5 -158 -11 -205 -5 -47 -13 -174 -18 -283 -6 -109 -13
-202 -16 -207 -18 -29 -54 -1070 -54 -1576 -1 -467 -11 -543 -92 -674 -27 -45
-34 -50 -66 -50 -94 0 -205 173 -288 445 -25 84 -34 115 -70 240 -7 28 -21 88
-30 135 -9 47 -22 112 -30 145 -7 33 -21 103 -30 155 -8 52 -22 133 -30 180
-8 47 -21 139 -30 205 -9 66 -22 163 -30 215 -8 52 -17 140 -20 194 -2 54 -9
135 -14 180 -6 45 -15 124 -21 176 -6 52 -15 163 -20 245 -10 177 -26 401 -40
575 -6 69 -15 289 -20 490 -5 201 -14 453 -20 560 -13 235 -18 1170 -7 1188
10 16 13 15 50 -5z"/>
</g>
</svg>
