<?xml version="1.0" standalone="no"?>
<!DOCTYPE svg PUBLIC "-//W3C//DTD SVG 20010904//EN"
 "http://www.w3.org/TR/2001/REC-SVG-20010904/DTD/svg10.dtd">
<svg version="1.0" xmlns="http://www.w3.org/2000/svg"
 width="900.000000pt" height="1614.000000pt" viewBox="0 0 900.000000 1614.000000"
 preserveAspectRatio="xMidYMid meet">
<metadata>
Created by potrace 1.10, written by Peter Selinger 2001-2011
</metadata>
<g transform="translate(0.000000,1614.000000) scale(0.100000,-0.100000)"
fill="#000000" stroke="none">
<path d="M1670 15058 c-36 -11 -90 -26 -120 -34 -30 -8 -110 -42 -177 -75
-221 -110 -434 -305 -592 -544 -195 -295 -244 -447 -282 -880 -12 -134 -5
-499 11 -556 5 -19 14 -73 20 -120 13 -114 35 -259 54 -344 23 -107 102 -383
130 -450 13 -33 33 -89 44 -125 44 -140 226 -542 340 -752 87 -159 123 -258
166 -463 10 -44 22 -100 28 -125 15 -65 28 -133 43 -235 7 -49 22 -135 33
-190 31 -150 51 -306 62 -492 5 -93 16 -208 22 -258 20 -144 17 -961 -4 -1140
-10 -77 -20 -196 -23 -265 -7 -127 -33 -333 -60 -470 -40 -203 -75 -487 -75
-619 0 -57 4 -201 10 -320 5 -119 14 -346 21 -506 12 -330 22 -457 44 -600 8
-55 31 -215 50 -355 18 -140 41 -282 51 -315 9 -33 18 -71 21 -85 23 -145 59
-307 93 -420 15 -52 35 -126 44 -165 33 -137 134 -445 182 -552 8 -17 14 -35
14 -40 0 -9 47 -126 80 -198 247 -550 432 -856 774 -1285 119 -149 461 -493
601 -605 55 -44 125 -101 155 -129 188 -169 371 -246 545 -232 191 16 323 160
425 461 59 172 70 241 70 427 0 207 -19 356 -68 533 -44 160 -94 280 -196 468
-233 432 -397 906 -478 1377 -20 121 -23 167 -23 440 0 350 8 432 71 720 61
278 185 586 262 650 47 39 131 70 185 69 61 -1 133 -29 174 -69 59 -57 110
-146 298 -515 98 -192 210 -411 248 -485 38 -74 133 -260 209 -414 77 -153
161 -317 187 -365 27 -47 85 -158 130 -246 78 -155 97 -189 231 -435 34 -63
79 -146 100 -185 20 -38 59 -109 86 -157 27 -48 84 -149 127 -225 162 -288
371 -627 563 -913 163 -244 193 -284 345 -460 210 -244 305 -330 539 -488 123
-83 142 -97 291 -222 199 -166 292 -231 429 -301 112 -56 177 -73 290 -74 101
0 107 1 168 34 72 39 156 125 190 194 51 103 72 225 78 457 6 233 -2 361 -36
540 -26 135 -101 369 -158 491 -27 58 -113 266 -147 354 -33 89 -49 130 -68
180 -8 22 -28 76 -44 120 -39 105 -146 432 -168 515 -9 36 -23 81 -30 100 -7
19 -18 51 -25 70 -7 19 -16 53 -20 75 -5 22 -16 65 -25 95 -22 72 -39 136 -65
240 -11 47 -35 141 -52 210 -47 192 -57 239 -68 315 -5 39 -16 97 -24 130 -30
129 -35 152 -46 210 -6 33 -15 87 -20 120 -14 90 -36 220 -55 315 -9 47 -25
171 -35 275 -11 105 -26 244 -35 310 -8 66 -19 172 -25 235 -5 63 -12 129 -16
145 -3 17 -9 104 -14 195 -5 91 -14 244 -19 340 -27 443 -35 885 -22 1318 7
235 16 506 22 602 22 401 29 517 34 550 3 19 10 96 15 170 5 74 16 200 25 280
9 80 24 242 35 360 33 371 47 429 179 749 91 219 190 560 211 721 4 36 12 85
18 110 12 51 35 203 54 360 18 149 18 1110 0 1275 -14 121 -32 202 -58 263 -8
18 -14 40 -14 48 0 52 -146 252 -245 336 -195 165 -350 229 -610 255 -117 12
-355 -20 -475 -63 -36 -13 -80 -27 -97 -30 -45 -9 -131 25 -218 86 -38 28
-115 80 -170 116 -55 37 -118 79 -140 94 -154 105 -578 277 -739 300 -37 6
-72 12 -75 15 -4 2 -54 11 -111 20 -121 18 -484 21 -576 5 -177 -32 -334 -75
-474 -131 -132 -53 -412 -196 -519 -265 -86 -56 -112 -68 -155 -72 -63 -5
-114 20 -326 159 -319 210 -627 358 -845 407 -27 7 -107 25 -177 42 -120 28
-137 30 -325 29 -166 -1 -209 -4 -263 -21z m500 -234 c281 -43 734 -250 1050
-481 142 -104 273 -189 309 -201 80 -28 118 -14 261 94 169 128 279 190 510
289 149 64 220 88 325 110 328 69 485 76 690 31 72 -15 149 -32 173 -37 24 -5
47 -11 52 -14 5 -3 31 -10 59 -15 67 -13 340 -136 501 -225 123 -69 301 -195
410 -290 30 -26 79 -59 109 -73 50 -23 60 -24 110 -15 31 6 81 20 111 33 30
12 69 25 85 30 17 5 55 18 85 29 69 27 190 51 256 51 200 0 463 -122 609 -282
122 -134 156 -236 186 -553 18 -190 15 -742 -5 -915 -9 -80 -23 -210 -31 -290
-22 -214 -32 -278 -56 -366 -12 -43 -25 -97 -30 -119 -19 -92 -70 -269 -117
-406 -146 -428 -374 -720 -647 -827 -122 -48 -348 -44 -530 9 -113 32 -379 33
-613 1 -217 -29 -373 -29 -620 3 -246 32 -315 43 -347 55 -15 6 -35 10 -46 10
-27 0 -241 86 -384 155 -131 63 -253 104 -385 130 -47 9 -105 21 -129 26 -98
22 -261 22 -386 0 -66 -11 -149 -25 -185 -31 -534 -85 -629 -94 -900 -87 -340
9 -584 44 -820 119 -265 84 -312 123 -447 378 -28 52 -67 124 -87 160 -47 84
-141 276 -176 360 -15 36 -45 108 -67 160 -71 167 -85 202 -130 340 -40 121
-108 365 -120 430 -2 14 -10 54 -18 90 -31 147 -38 229 -43 515 -8 537 28 708
216 1010 211 339 457 535 767 609 84 20 315 20 445 0z m-433 -4299 c62 -8 159
-26 215 -39 251 -58 289 -61 758 -61 306 1 459 5 515 14 44 7 109 16 145 21
36 5 108 18 160 30 156 36 371 50 541 35 149 -14 167 -18 284 -65 146 -58 181
-73 230 -96 154 -72 406 -155 527 -174 35 -5 106 -16 158 -25 133 -22 617 -31
825 -15 337 25 332 25 576 -15 188 -31 239 -36 314 -31 160 10 276 40 416 108
70 33 132 58 138 54 14 -9 14 -208 1 -401 -5 -77 -14 -217 -20 -312 -5 -95
-21 -281 -34 -415 -55 -536 -42 -2239 19 -2548 3 -14 12 -126 20 -250 18 -266
39 -471 61 -595 14 -84 30 -199 54 -388 15 -124 37 -243 76 -414 8 -34 14 -76
14 -93 0 -16 12 -79 26 -138 14 -59 43 -190 65 -292 58 -271 103 -449 150
-595 16 -50 29 -100 29 -110 0 -20 75 -263 137 -440 19 -55 44 -129 55 -165
11 -36 33 -96 49 -135 15 -38 36 -95 45 -125 24 -81 49 -148 77 -205 13 -27
27 -63 31 -80 4 -16 25 -68 46 -115 33 -72 112 -268 135 -335 36 -105 79 -286
95 -404 15 -109 15 -377 0 -461 -31 -179 -108 -290 -200 -290 -73 1 -208 48
-295 103 -64 41 -250 182 -300 229 -103 96 -196 168 -315 246 -197 129 -267
193 -486 447 -99 114 -279 357 -393 530 -165 249 -530 867 -686 1160 -20 39
-83 156 -140 260 -272 505 -420 792 -906 1761 -168 336 -289 565 -319 605 -87
116 -199 183 -335 201 -227 31 -423 -55 -529 -231 -67 -110 -139 -321 -217
-631 -10 -41 -31 -163 -45 -270 -32 -230 -43 -588 -24 -779 21 -215 61 -486
85 -576 13 -49 31 -119 40 -155 49 -190 204 -589 315 -810 10 -19 50 -98 89
-175 148 -287 204 -470 217 -710 7 -132 -7 -319 -32 -436 -20 -94 -90 -240
-144 -301 -70 -80 -125 -83 -265 -18 -116 54 -276 180 -540 427 -497 465 -871
1012 -1158 1693 -58 137 -159 424 -196 555 -5 17 -22 75 -39 130 -38 126 -55
189 -77 290 -9 44 -23 103 -30 130 -8 28 -19 79 -26 115 -6 36 -22 119 -34
185 -52 273 -62 348 -75 540 -9 139 -19 222 -45 385 -8 47 -17 146 -20 220 -3
74 -10 198 -15 275 -23 356 -8 747 35 925 24 95 36 168 46 258 5 48 16 137 24
197 8 61 20 153 25 205 5 52 14 119 20 150 20 114 30 374 30 753 0 381 -10
604 -31 717 -5 30 -14 98 -19 150 -5 52 -16 160 -25 240 -8 80 -20 201 -25
270 -6 69 -15 158 -21 197 -10 63 -10 76 5 98 9 14 20 25 24 25 4 0 57 -7 119
-15z"/>
</g>
</svg>
