<?xml version="1.0" standalone="no"?>
<!DOCTYPE svg PUBLIC "-//W3C//DTD SVG 20010904//EN"
 "http://www.w3.org/TR/2001/REC-SVG-20010904/DTD/svg10.dtd">
<svg version="1.0" xmlns="http://www.w3.org/2000/svg"
 width="231.000000pt" height="900.000000pt" viewBox="0 0 231.000000 900.000000"
 preserveAspectRatio="xMidYMid meet">
<metadata>
Created by potrace 1.10, written by Peter Selinger 2001-2011
</metadata>
<g transform="translate(0.000000,900.000000) scale(0.100000,-0.100000)"
fill="#000000" stroke="none">
<path d="M520 8909 c-39 -11 -92 -32 -159 -62 -66 -31 -182 -145 -215 -214
-54 -109 -72 -273 -47 -438 6 -38 11 -113 11 -165 0 -53 7 -150 15 -215 8 -66
15 -147 15 -180 0 -33 6 -98 14 -145 15 -84 31 -200 46 -335 5 -38 18 -113 29
-166 11 -53 25 -130 30 -170 9 -64 46 -254 79 -399 22 -98 34 -191 42 -340 4
-85 13 -184 19 -220 17 -98 41 -340 41 -405 0 -32 6 -99 14 -149 20 -126 36
-293 46 -471 5 -82 13 -181 19 -220 18 -117 41 -356 41 -420 0 -33 7 -118 15
-190 8 -71 21 -218 30 -325 8 -107 20 -247 26 -310 12 -147 24 -324 44 -674 9
-154 18 -283 21 -288 11 -17 26 -536 33 -1143 6 -577 9 -646 25 -700 65 -215
130 -311 235 -349 52 -18 82 -15 141 15 46 23 129 105 173 172 65 97 145 284
188 440 11 37 28 94 38 125 10 31 27 95 36 142 10 47 24 104 31 128 8 23 14
53 14 65 0 12 12 76 25 142 31 145 30 138 50 305 10 74 23 165 31 202 8 37 14
86 14 110 0 42 20 224 41 363 6 39 14 142 19 230 9 154 13 200 45 490 8 72 21
326 30 565 8 239 20 496 26 570 10 128 24 821 34 1665 4 296 8 394 20 445 9
36 19 83 24 105 7 39 13 58 45 160 9 28 16 61 16 73 0 30 37 213 50 247 6 15
10 42 10 61 0 34 17 173 41 334 6 41 15 140 19 220 5 80 14 221 20 313 15 213
9 680 -10 757 -35 140 -131 216 -315 248 -78 14 -1276 15 -1325 1z m930 -151
c423 -3 447 -4 478 -23 35 -21 74 -72 92 -120 18 -46 14 -709 -5 -861 -8 -65
-15 -144 -15 -174 0 -30 -7 -95 -15 -145 -8 -49 -15 -111 -15 -136 0 -26 -6
-80 -14 -120 -8 -41 -21 -119 -30 -174 -9 -55 -23 -129 -30 -165 -41 -194 -49
-230 -62 -280 -9 -30 -21 -77 -29 -105 -23 -86 -76 -259 -91 -293 -8 -18 -14
-37 -14 -42 0 -24 -77 -135 -133 -192 -136 -141 -314 -228 -462 -228 -80 0
-138 16 -233 62 -133 66 -279 244 -325 398 -40 137 -47 164 -47 184 0 25 -26
142 -46 207 -8 26 -14 58 -14 72 0 25 -19 131 -44 247 -8 36 -22 119 -31 185
-9 66 -23 158 -30 205 -8 47 -17 112 -20 145 -3 33 -10 92 -15 130 -28 207
-41 356 -50 594 -14 330 -7 386 55 470 41 56 95 105 145 132 45 24 157 34 357
32 109 -2 398 -4 643 -5z m316 -2970 c21 -169 -6 -1316 -47 -2033 -6 -104 -15
-260 -19 -345 -18 -347 -41 -633 -76 -915 -8 -66 -14 -147 -14 -180 0 -33 -5
-78 -11 -100 -5 -22 -14 -78 -18 -125 -11 -112 -29 -251 -42 -320 -5 -30 -19
-111 -29 -180 -11 -69 -27 -154 -34 -190 -8 -36 -22 -101 -31 -145 -32 -158
-116 -452 -150 -530 -7 -16 -21 -50 -31 -75 -48 -119 -167 -270 -212 -270 -63
0 -141 132 -163 275 -5 33 -9 197 -9 365 1 605 -43 1621 -91 2138 -6 63 -15
191 -20 285 -5 95 -13 190 -19 212 -5 22 -10 74 -10 115 0 41 -5 116 -11 165
-5 50 -14 140 -18 200 -5 61 -14 157 -20 215 -6 58 -18 200 -26 315 -9 116
-23 253 -30 305 -36 233 -59 740 -35 755 11 7 84 -26 138 -62 79 -52 179 -89
285 -104 76 -11 103 -10 187 4 141 22 253 82 450 238 41 32 80 59 86 59 6 0
15 -31 20 -72z"/>
</g>
</svg>
