<?xml version="1.0" standalone="no"?>
<!DOCTYPE svg PUBLIC "-//W3C//DTD SVG 20010904//EN"
 "http://www.w3.org/TR/2001/REC-SVG-20010904/DTD/svg10.dtd">
<svg version="1.0" xmlns="http://www.w3.org/2000/svg"
 width="318.000000pt" height="900.000000pt" viewBox="0 0 318.000000 900.000000"
 preserveAspectRatio="xMidYMid meet">
<metadata>
Created by potrace 1.10, written by Peter Selinger 2001-2011
</metadata>
<g transform="translate(0.000000,900.000000) scale(0.100000,-0.100000)"
fill="#000000" stroke="none">
<path d="M1465 8404 c-67 -26 -107 -47 -175 -93 -59 -40 -148 -107 -160 -121
-3 -3 -117 -95 -255 -204 -266 -212 -368 -307 -426 -396 -109 -168 -131 -267
-111 -510 7 -82 19 -178 27 -212 7 -35 21 -99 30 -143 9 -44 23 -100 30 -125
7 -25 16 -56 18 -70 3 -14 15 -52 27 -85 34 -97 53 -197 90 -480 6 -38 14 -90
20 -115 5 -25 14 -85 20 -135 6 -49 19 -144 30 -210 11 -66 19 -149 20 -185 0
-36 6 -101 14 -145 22 -120 46 -369 46 -465 0 -47 6 -130 14 -185 26 -171 40
-518 44 -1090 2 -359 -1 -606 -8 -710 -7 -88 -16 -236 -20 -330 -5 -93 -13
-188 -19 -210 -6 -22 -11 -76 -11 -120 0 -87 -22 -292 -45 -420 -8 -44 -15
-98 -15 -120 0 -22 -7 -80 -15 -130 -38 -230 4 -570 93 -755 26 -54 72 -110
115 -141 36 -26 48 -29 118 -29 95 0 133 17 222 99 208 193 357 465 499 911
11 36 26 81 33 100 7 19 21 62 30 95 10 33 23 76 31 95 7 19 27 89 44 155 18
66 39 135 46 153 8 18 14 41 14 51 0 9 6 37 14 62 7 24 21 73 30 109 10 36 23
88 31 115 8 28 21 84 31 125 9 41 23 95 30 119 8 25 14 54 14 66 0 11 12 65
26 120 14 55 30 120 35 145 4 25 15 74 23 110 8 36 20 92 26 125 6 33 18 92
25 130 8 39 21 106 30 150 8 44 22 112 29 150 8 39 24 129 35 200 12 72 25
146 31 165 5 19 10 53 10 75 0 22 6 67 14 100 7 33 21 114 30 180 9 66 21 145
27 175 13 71 37 250 49 365 5 50 14 108 19 130 6 22 11 58 11 80 0 37 8 105
45 405 8 63 15 137 15 164 0 27 7 88 15 135 19 116 33 250 41 400 3 69 12 138
19 155 54 130 100 272 145 446 57 220 55 500 -5 660 -67 181 -167 293 -458
512 -86 65 -188 145 -225 176 -122 105 -231 182 -298 212 -57 26 -77 30 -152
29 -52 0 -103 -6 -127 -15z m195 -127 c52 -16 185 -105 270 -178 41 -36 138
-113 215 -172 258 -196 367 -297 410 -383 11 -22 25 -46 31 -54 14 -20 41
-119 55 -208 10 -56 10 -95 0 -175 -20 -169 -70 -386 -117 -509 -8 -21 -21
-57 -30 -80 -100 -261 -198 -416 -368 -583 -107 -105 -135 -126 -217 -167
-127 -63 -159 -74 -261 -89 -83 -12 -191 -9 -303 9 -62 10 -201 76 -301 144
-114 78 -266 255 -343 402 -74 140 -152 350 -168 452 -3 21 -9 46 -14 55 -8
15 -22 102 -55 329 -12 84 -13 119 -4 175 12 72 41 169 63 208 55 99 197 246
342 356 55 41 154 120 220 176 244 205 331 263 440 295 60 18 69 18 135 -3z
m730 -2419 c0 -68 -6 -177 -15 -243 -8 -66 -24 -194 -36 -285 -11 -91 -25
-203 -30 -250 -10 -85 -60 -454 -80 -585 -6 -38 -19 -126 -29 -195 -11 -69
-26 -165 -34 -215 -23 -136 -75 -433 -86 -490 -6 -27 -19 -99 -31 -160 -11
-60 -27 -135 -34 -165 -7 -30 -21 -91 -30 -135 -30 -148 -98 -450 -120 -530
-7 -27 -21 -79 -30 -115 -9 -36 -22 -87 -30 -115 -7 -27 -21 -81 -30 -120 -9
-38 -23 -88 -30 -110 -7 -22 -20 -67 -30 -100 -34 -118 -44 -151 -75 -255 -18
-58 -38 -121 -45 -140 -7 -19 -36 -105 -64 -190 -69 -212 -81 -244 -92 -255
-5 -5 -9 -15 -9 -23 0 -12 -73 -166 -111 -232 -37 -65 -155 -213 -213 -268
-52 -49 -74 -62 -108 -67 -44 -7 -90 5 -112 28 -43 44 -102 200 -126 333 -13
74 -8 345 8 459 5 33 14 103 21 155 6 52 18 145 26 205 26 197 35 297 45 505
5 113 15 234 22 270 17 93 17 1418 -1 1510 -7 36 -16 175 -21 310 -8 240 -17
351 -46 557 -8 56 -14 133 -14 171 0 37 -6 109 -14 158 -24 146 -45 341 -52
477 -7 124 -7 127 14 127 11 0 71 -41 134 -90 62 -50 124 -97 138 -104 108
-56 172 -86 215 -99 173 -55 341 -62 497 -23 230 59 362 140 568 349 36 36 71
66 78 66 9 1 12 -30 12 -121z"/>
</g>
</svg>
