<?xml version="1.0" standalone="no"?>
<!DOCTYPE svg PUBLIC "-//W3C//DTD SVG 20010904//EN"
 "http://www.w3.org/TR/2001/REC-SVG-20010904/DTD/svg10.dtd">
<svg version="1.0" xmlns="http://www.w3.org/2000/svg"
 width="900.000000pt" height="1485.000000pt" viewBox="0 0 900.000000 1485.000000"
 preserveAspectRatio="xMidYMid meet">
<metadata>
Created by potrace 1.10, written by Peter Selinger 2001-2011
</metadata>
<g transform="translate(0.000000,1485.000000) scale(0.100000,-0.100000)"
fill="#000000" stroke="none">
<path d="M6530 14491 c-294 -64 -397 -100 -650 -229 -161 -82 -273 -147 -475
-278 -133 -86 -169 -104 -204 -104 -28 0 -171 68 -258 123 -137 87 -391 202
-558 253 -119 37 -304 73 -440 85 -148 14 -412 6 -520 -16 -44 -9 -100 -20
-125 -25 -215 -41 -599 -225 -865 -414 -230 -163 -261 -175 -368 -143 -28 9
-137 30 -242 48 -209 34 -260 34 -435 -1 -125 -25 -288 -106 -392 -194 -204
-174 -287 -317 -326 -561 -15 -95 -17 -185 -17 -665 0 -518 2 -567 23 -730 12
-96 31 -218 42 -270 11 -52 20 -109 20 -126 0 -17 9 -66 21 -110 11 -43 32
-122 45 -174 14 -52 35 -124 48 -160 13 -36 33 -94 46 -130 39 -111 52 -143
79 -200 15 -30 35 -80 44 -110 27 -91 75 -384 92 -560 8 -91 22 -223 30 -295
14 -128 35 -368 55 -655 34 -476 42 -1664 15 -2164 -26 -477 -34 -568 -95
-1076 -5 -41 -12 -111 -15 -155 -4 -44 -17 -136 -31 -205 -13 -69 -31 -172
-39 -230 -8 -58 -19 -139 -25 -180 -5 -41 -14 -91 -19 -110 -31 -118 -42 -164
-56 -245 -32 -173 -99 -446 -161 -660 -13 -44 -28 -100 -33 -125 -10 -52 -82
-293 -117 -395 -14 -38 -42 -124 -64 -190 -81 -251 -140 -406 -266 -702 -88
-205 -177 -474 -199 -598 -46 -263 -54 -441 -29 -655 26 -229 68 -345 152
-429 89 -87 216 -126 334 -102 175 36 368 146 591 337 177 151 196 166 347
269 149 101 334 267 461 415 203 236 394 499 584 805 33 53 81 128 106 168 63
98 394 677 504 882 21 39 50 93 65 120 43 79 122 229 197 375 39 74 99 191
135 260 82 157 440 863 606 1195 146 293 217 418 264 462 49 47 113 73 183 73
120 0 191 -58 267 -217 26 -56 48 -106 48 -111 0 -5 12 -36 26 -68 15 -33 30
-75 35 -94 13 -63 38 -164 57 -240 45 -172 57 -308 57 -625 -1 -327 -13 -453
-70 -675 -7 -30 -21 -86 -30 -125 -58 -238 -239 -698 -374 -945 -108 -198
-161 -321 -196 -450 -9 -36 -22 -78 -27 -95 -18 -59 -38 -261 -38 -390 1 -142
22 -365 38 -405 6 -14 24 -68 41 -120 55 -171 147 -308 245 -364 88 -51 243
-58 362 -16 107 37 298 171 459 320 28 26 73 66 100 90 206 180 541 552 697
775 116 166 172 252 230 350 183 312 308 575 413 871 23 66 48 131 54 143 17
30 86 257 127 416 19 72 43 162 54 200 10 39 24 99 30 135 19 115 37 204 54
260 22 76 46 208 56 315 5 50 20 189 35 310 41 348 43 383 61 892 16 452 16
491 0 651 -17 176 -44 368 -71 507 -22 112 -44 288 -54 432 -5 67 -11 125 -14
130 -10 17 -36 304 -41 463 -8 226 11 569 43 775 6 39 18 165 26 280 9 116 21
233 25 260 5 28 19 97 30 155 11 58 29 161 40 230 21 130 44 250 60 310 5 19
17 69 26 110 15 67 35 118 91 239 10 20 33 63 53 96 94 156 256 521 339 760
56 165 70 205 86 265 10 36 29 98 41 137 29 92 39 146 65 368 43 362 45 537
13 820 -36 309 -77 431 -235 684 -95 152 -147 217 -258 324 -115 110 -180 160
-301 232 -78 45 -118 61 -300 112 -30 8 -68 20 -85 25 -16 6 -106 12 -200 14
-138 3 -186 0 -255 -15z m479 -245 c93 -21 273 -110 366 -178 195 -145 428
-447 499 -647 44 -121 66 -281 72 -521 10 -326 -11 -561 -72 -820 -14 -58 -27
-116 -30 -130 -11 -54 -108 -349 -141 -430 -19 -47 -49 -119 -66 -160 -17 -41
-34 -79 -38 -85 -3 -5 -24 -50 -45 -100 -36 -85 -115 -243 -224 -450 -88 -168
-172 -271 -259 -318 -81 -45 -277 -96 -541 -142 -52 -9 -120 -21 -150 -27 -84
-16 -533 -22 -616 -8 -38 6 -112 15 -164 20 -52 5 -120 13 -150 19 -30 5 -104
17 -165 26 -60 9 -130 20 -155 26 -355 76 -598 41 -972 -141 -190 -92 -401
-157 -563 -175 -33 -3 -125 -16 -205 -27 -176 -26 -351 -26 -540 -3 -74 10
-218 20 -320 22 -168 4 -192 3 -265 -17 -44 -12 -132 -29 -195 -38 -263 -35
-438 31 -644 242 -121 125 -167 198 -246 386 -88 210 -170 467 -170 531 0 10
-7 40 -15 66 -41 130 -68 260 -79 388 -7 72 -31 278 -47 390 -13 100 -6 764
10 850 6 33 20 116 31 184 28 178 72 264 198 388 82 83 105 99 205 147 113 55
216 86 287 86 49 0 211 -33 270 -55 25 -9 61 -20 80 -25 19 -5 73 -25 120 -44
90 -38 132 -43 177 -24 31 13 97 62 128 94 29 30 190 154 260 201 164 108 478
258 630 301 108 30 164 42 193 42 17 0 43 5 58 11 52 19 280 38 357 28 72 -9
90 -12 337 -69 133 -31 366 -120 470 -180 25 -14 63 -34 84 -45 22 -11 116
-70 209 -132 93 -62 184 -115 202 -119 51 -9 92 9 196 87 398 300 847 525
1164 583 109 20 373 16 474 -8z m114 -4206 c-2 -109 -19 -324 -38 -470 -8 -63
-21 -171 -29 -240 -8 -69 -21 -172 -28 -230 -9 -72 -13 -254 -12 -585 0 -477
9 -637 45 -829 5 -27 9 -74 9 -105 0 -31 6 -96 14 -146 7 -49 19 -137 26 -195
13 -108 27 -187 58 -312 32 -136 17 -1107 -22 -1353 -8 -50 -22 -169 -30 -265
-17 -181 -23 -224 -76 -545 -63 -377 -189 -857 -300 -1145 -12 -30 -25 -66
-30 -80 -15 -49 -159 -377 -219 -500 -87 -182 -146 -285 -300 -529 -204 -323
-572 -728 -920 -1014 -239 -196 -305 -237 -384 -237 -101 0 -180 78 -240 234
-59 156 -70 226 -70 446 0 198 2 213 50 380 33 116 74 209 224 510 59 118 117
240 129 270 12 30 33 78 46 107 13 29 39 100 59 159 20 58 42 118 49 133 7 14
21 58 30 96 10 39 33 129 51 200 19 72 39 166 45 210 6 44 17 123 25 175 46
314 45 540 -4 890 -6 41 -16 116 -22 165 -10 79 -40 204 -95 395 -101 351
-217 512 -416 579 -113 38 -285 24 -397 -34 -145 -74 -181 -126 -445 -655
-213 -427 -385 -764 -579 -1140 -50 -96 -118 -229 -152 -295 -34 -66 -78 -149
-97 -185 -19 -36 -54 -101 -78 -145 -24 -44 -69 -128 -102 -187 -32 -60 -85
-159 -119 -220 -33 -62 -64 -117 -68 -123 -5 -5 -22 -35 -38 -66 -95 -175
-360 -618 -456 -764 -277 -416 -608 -806 -775 -911 -164 -103 -217 -140 -289
-205 -341 -303 -561 -429 -691 -398 -66 17 -78 24 -109 72 -62 92 -77 194 -71
472 4 152 10 231 23 285 26 109 106 348 160 475 26 61 55 130 65 155 9 25 39
99 65 165 71 181 104 271 135 370 15 50 37 114 49 143 11 29 36 103 55 165 19
62 45 144 59 182 14 39 28 88 32 110 4 22 24 92 44 155 36 108 51 166 66 250
4 19 20 80 35 135 16 55 36 141 46 190 9 50 29 142 44 205 16 63 36 165 45
225 9 61 28 169 42 240 14 72 27 144 30 160 2 17 10 82 19 145 15 118 37 260
55 365 15 83 26 192 39 385 9 147 24 303 61 675 7 64 13 415 16 845 5 734 2
858 -32 1250 -27 323 -36 448 -45 699 -6 140 -13 258 -16 263 -11 18 8 149 22
155 8 3 56 -9 107 -27 158 -55 248 -78 357 -91 111 -13 141 -10 415 38 120 21
281 22 565 4 293 -19 605 -9 770 23 69 14 154 32 190 41 36 9 85 21 110 26 50
10 121 37 290 111 212 93 372 150 450 160 115 15 416 2 530 -22 311 -68 632
-90 1046 -72 248 11 372 25 529 61 22 5 67 15 100 21 33 7 87 18 120 25 33 7
80 12 105 12 l45 -2 -2 -85z"/>
</g>
</svg>
