<?xml version="1.0" standalone="no"?>
<!DOCTYPE svg PUBLIC "-//W3C//DTD SVG 20010904//EN"
 "http://www.w3.org/TR/2001/REC-SVG-20010904/DTD/svg10.dtd">
<svg version="1.0" xmlns="http://www.w3.org/2000/svg"
 width="321.000000pt" height="900.000000pt" viewBox="0 0 321.000000 900.000000"
 preserveAspectRatio="xMidYMid meet">
<metadata>
Created by potrace 1.10, written by Peter Selinger 2001-2011
</metadata>
<g transform="translate(0.000000,900.000000) scale(0.100000,-0.100000)"
fill="#000000" stroke="none">
<path d="M1434 8821 c-71 -21 -72 -22 -237 -126 -210 -132 -413 -258 -564
-350 -163 -100 -207 -135 -266 -213 -133 -177 -207 -530 -178 -849 7 -76 18
-158 25 -183 7 -25 21 -81 31 -125 10 -44 23 -98 30 -120 7 -22 20 -67 30
-100 9 -33 23 -78 31 -100 8 -23 22 -160 33 -317 10 -152 22 -281 26 -287 3
-6 10 -74 15 -150 9 -138 18 -219 46 -397 8 -50 14 -113 14 -140 0 -27 7 -85
15 -129 26 -147 45 -280 45 -325 0 -25 6 -72 14 -105 8 -33 21 -112 30 -175 9
-63 23 -153 31 -200 8 -47 22 -130 30 -185 23 -152 69 -419 90 -520 8 -38 21
-115 30 -170 9 -55 20 -117 26 -138 5 -20 14 -72 19 -115 6 -42 17 -120 25
-172 17 -109 30 -210 46 -360 56 -527 63 -706 56 -1415 -6 -627 -6 -626 43
-840 43 -184 98 -283 180 -325 120 -61 257 11 415 219 62 83 225 340 225 356
0 3 21 49 46 103 25 53 51 111 58 127 7 17 27 60 45 97 17 37 31 72 31 77 0 6
7 27 16 48 33 76 35 80 82 218 40 118 135 427 146 475 3 14 17 70 31 125 14
55 32 125 39 155 8 30 22 93 31 140 9 47 23 114 30 150 8 36 19 97 25 135 6
39 17 106 26 150 9 44 19 118 23 165 10 100 27 232 47 350 8 47 14 130 14 185
0 55 7 150 15 210 8 61 15 173 15 250 0 77 7 291 15 475 8 184 16 385 18 445
2 61 9 160 15 220 6 61 18 200 27 310 9 110 23 236 30 280 8 44 21 143 30 220
9 77 23 167 30 200 8 33 16 92 20 130 3 39 10 86 15 105 13 53 38 180 44 225
3 23 23 95 45 160 49 148 65 212 86 340 9 55 21 123 26 152 6 28 14 109 20
180 5 70 12 164 16 207 10 136 -30 358 -86 476 -27 58 -55 95 -121 161 -75 76
-164 149 -225 186 -30 17 -253 156 -280 173 -85 55 -229 139 -285 166 -193 96
-377 126 -516 85z m312 -157 c38 -14 80 -29 94 -33 34 -11 138 -68 177 -97 17
-13 34 -24 38 -24 3 0 43 -24 88 -53 45 -29 105 -66 132 -81 238 -135 418
-290 472 -406 64 -137 78 -337 43 -605 -46 -357 -57 -409 -137 -663 -20 -62
-40 -115 -45 -118 -4 -3 -8 -12 -8 -19 0 -16 -52 -128 -97 -210 -98 -178 -289
-395 -429 -487 -181 -120 -318 -166 -523 -175 -141 -6 -216 7 -341 60 -148 62
-248 134 -374 269 -48 51 -105 123 -129 161 -23 38 -50 80 -59 95 -24 38 -118
229 -118 241 0 5 -14 39 -30 76 -17 37 -30 73 -30 81 0 7 -6 28 -14 46 -7 18
-21 60 -30 93 -10 33 -23 80 -31 105 -7 25 -20 79 -28 120 -9 41 -23 107 -32
146 -21 98 -20 351 1 448 30 137 72 282 89 306 5 8 21 37 35 63 14 27 39 64
55 82 24 26 156 117 280 192 41 25 203 126 300 188 329 209 359 223 486 224
80 1 108 -3 165 -25z m-1099 -2651 c145 -163 244 -250 378 -329 32 -19 96 -50
145 -69 25 -9 56 -21 69 -27 53 -20 217 -48 285 -48 127 0 321 48 452 111 168
81 252 143 466 345 31 30 59 50 62 45 3 -4 1 -55 -5 -112 -5 -57 -13 -162 -18
-234 -5 -71 -14 -166 -20 -210 -28 -212 -41 -355 -46 -520 -3 -99 -10 -227
-15 -285 -5 -58 -16 -314 -25 -569 -10 -299 -23 -526 -36 -640 -11 -97 -26
-247 -34 -334 -8 -87 -17 -162 -19 -166 -3 -4 -14 -73 -26 -152 -11 -79 -27
-175 -35 -214 -8 -38 -26 -126 -41 -195 -14 -69 -32 -154 -39 -190 -8 -36 -21
-92 -31 -125 -9 -33 -19 -71 -21 -85 -13 -68 -148 -494 -198 -622 -8 -21 -21
-55 -29 -75 -115 -297 -194 -476 -256 -578 -10 -16 -28 -48 -40 -70 -12 -22
-35 -56 -50 -75 -15 -19 -40 -55 -55 -79 -28 -46 -109 -131 -159 -169 -91 -69
-164 16 -218 253 -20 87 -21 117 -19 815 1 462 -2 752 -9 800 -5 41 -14 138
-20 214 -14 213 -29 363 -45 451 -8 44 -15 98 -15 120 0 44 -23 201 -46 310
-8 39 -14 84 -14 101 0 18 -12 85 -26 150 -14 66 -29 151 -34 189 -5 39 -13
90 -19 115 -14 63 -33 175 -81 470 -11 69 -25 150 -31 180 -5 30 -18 116 -29
190 -11 74 -24 160 -29 190 -6 30 -15 96 -20 145 -13 115 -39 297 -51 355 -5
25 -9 68 -9 95 -1 45 -8 128 -43 467 -17 167 -3 175 99 61z"/>
</g>
</svg>
