<?xml version="1.0" standalone="no"?>
<!DOCTYPE svg PUBLIC "-//W3C//DTD SVG 20010904//EN"
 "http://www.w3.org/TR/2001/REC-SVG-20010904/DTD/svg10.dtd">
<svg version="1.0" xmlns="http://www.w3.org/2000/svg"
 width="492.000000pt" height="900.000000pt" viewBox="0 0 492.000000 900.000000"
 preserveAspectRatio="xMidYMid meet">
<metadata>
Created by potrace 1.10, written by Peter Selinger 2001-2011
</metadata>
<g transform="translate(0.000000,900.000000) scale(0.100000,-0.100000)"
fill="#f1c232" stroke="none">
<path d="M3325 8060 c-62 -17 -102 -36 -170 -79 -38 -24 -72 -47 -75 -50 -3
-3 -23 -19 -45 -36 -89 -66 -244 -222 -327 -329 -79 -102 -163 -215 -203 -272
-68 -99 -89 -104 -124 -31 -41 85 -132 145 -200 132 -53 -10 -138 -53 -206
-105 -117 -88 -417 -406 -571 -605 -43 -56 -161 -236 -181 -275 -4 -8 -17 -29
-28 -46 -20 -30 -155 -298 -195 -389 -42 -93 -85 -209 -122 -325 -11 -36 -26
-81 -33 -100 -7 -19 -20 -61 -29 -92 -9 -32 -23 -82 -31 -110 -48 -171 -96
-372 -105 -438 -4 -30 -12 -75 -18 -100 -19 -81 -41 -203 -57 -315 -9 -60 -21
-132 -27 -160 -5 -27 -14 -90 -18 -140 -17 -174 -39 -340 -50 -375 -5 -19 -10
-66 -10 -105 0 -38 -7 -133 -15 -210 -8 -77 -15 -179 -15 -227 0 -47 -7 -137
-15 -200 -8 -62 -21 -250 -30 -418 -17 -314 -26 -377 -70 -475 -23 -50 -56
-130 -80 -195 -22 -58 -42 -130 -60 -215 -10 -44 -22 -96 -27 -115 -5 -19 -12
-121 -15 -226 -6 -202 1 -272 39 -393 35 -112 58 -181 66 -199 5 -9 21 -42 35
-72 97 -201 294 -389 477 -455 129 -47 200 -57 350 -52 139 4 179 10 300 45
66 19 269 100 290 116 8 7 35 22 60 34 80 41 135 76 226 143 103 77 152 104
229 124 50 13 61 12 123 -4 116 -32 142 -48 242 -151 113 -116 185 -166 277
-191 129 -35 176 -35 343 0 53 12 228 98 287 142 29 22 55 39 59 39 12 0 96
71 159 135 155 156 287 375 346 575 10 36 26 88 34 115 50 170 50 591 1 785
-34 132 -50 187 -63 213 -27 57 -47 93 -72 132 -44 69 -81 154 -92 208 -5 29
-13 66 -18 82 -5 17 -16 84 -26 150 -9 66 -30 200 -46 297 -16 97 -29 199 -29
226 0 27 -5 74 -10 103 -6 30 -15 97 -20 149 -6 52 -14 118 -19 145 -27 150
-20 1374 8 1505 6 25 17 126 26 225 15 175 33 304 61 433 8 35 14 75 14 90 0
73 63 358 115 520 56 173 63 194 78 252 9 30 24 84 34 120 15 53 18 100 18
260 l-1 195 -29 59 c-19 37 -48 75 -77 99 l-47 39 -103 -1 c-57 -1 -121 -5
-143 -11 -30 -7 -43 -6 -53 4 -7 7 -17 62 -23 137 -13 144 -30 186 -96 233
-46 32 -120 43 -178 26z m91 -184 c17 -13 19 -29 22 -140 5 -189 -24 -264
-140 -352 -35 -27 -90 -76 -122 -109 -136 -138 -388 -485 -468 -645 -12 -25
-27 -52 -34 -60 -24 -31 -191 -373 -234 -480 -12 -30 -28 -67 -36 -82 -8 -14
-14 -33 -14 -42 0 -8 -6 -30 -14 -48 -27 -62 -44 -113 -76 -218 -18 -58 -38
-125 -46 -149 -8 -25 -14 -53 -14 -62 0 -10 -6 -33 -14 -51 -13 -32 -28 -97
-47 -203 -12 -73 -45 -185 -58 -198 -6 -6 -14 -7 -18 -3 -4 4 -9 114 -11 245
-3 178 0 268 12 362 9 69 16 147 16 174 1 28 12 102 26 165 13 63 28 133 33
155 15 71 40 154 77 258 86 237 121 320 212 507 52 108 151 278 193 331 16 20
29 40 29 44 0 6 24 39 122 170 39 52 199 214 291 295 135 118 261 173 313 136z
m452 -373 c74 -66 70 -352 -10 -593 -97 -294 -131 -423 -163 -620 -9 -52 -22
-126 -30 -165 -8 -38 -21 -128 -30 -200 -9 -71 -23 -155 -30 -185 -7 -30 -16
-109 -19 -175 -4 -66 -11 -140 -16 -165 -5 -25 -9 -99 -10 -165 0 -66 -5 -169
-11 -230 -14 -141 -14 -607 0 -750 6 -60 11 -153 11 -205 0 -52 7 -142 15
-200 8 -58 15 -138 15 -179 0 -40 6 -99 14 -130 13 -51 25 -145 57 -441 6 -58
13 -125 16 -149 6 -41 4 -44 -14 -39 -18 5 -209 117 -291 170 -15 10 -34 20
-42 24 -8 3 -24 10 -35 16 -163 89 -440 203 -555 228 -19 4 -48 13 -63 19 -16
6 -43 11 -61 11 -19 0 -53 8 -77 17 -68 25 -531 26 -644 0 -212 -49 -404 -127
-628 -256 -133 -76 -322 -216 -476 -353 -121 -107 -167 -142 -179 -134 -17 10
-25 184 -13 276 7 47 14 159 17 250 2 91 11 215 19 275 20 157 45 412 45 465
0 24 7 78 15 120 31 159 45 246 45 275 0 41 28 219 46 286 8 30 14 70 14 88 0
18 7 63 16 99 37 154 43 180 54 237 14 72 24 114 44 180 8 28 23 82 34 120 27
95 64 211 105 325 30 85 48 131 91 235 30 73 127 271 164 335 12 19 30 53 42
75 12 22 35 59 51 83 16 24 29 45 29 47 0 16 180 260 251 340 276 313 425 445
499 445 65 -1 102 -169 70 -314 -11 -48 -17 -68 -53 -161 -77 -198 -124 -351
-167 -545 -8 -33 -14 -68 -41 -207 -6 -32 -17 -89 -25 -128 -53 -260 -36
-1063 25 -1218 6 -16 11 -43 11 -60 0 -18 10 -66 21 -107 12 -41 28 -100 36
-130 18 -68 44 -93 87 -84 17 3 39 13 48 21 19 17 20 21 43 203 27 217 35 283
46 350 5 36 14 97 19 135 36 264 79 458 136 618 8 20 14 48 14 60 0 12 6 31
13 42 7 11 21 47 31 80 10 33 32 94 48 135 17 41 37 93 46 115 38 99 178 389
237 490 19 33 39 69 45 80 6 11 18 32 28 47 9 15 43 69 74 120 62 101 127 186
256 340 122 143 334 318 474 390 81 42 134 48 166 21z m-1398 -4258 c30 -8 68
-15 85 -15 44 0 300 -82 420 -134 65 -28 243 -118 300 -151 33 -19 67 -38 75
-42 41 -18 286 -212 343 -271 103 -105 189 -240 240 -377 51 -138 79 -440 58
-622 -18 -156 -41 -252 -97 -403 -19 -53 -95 -198 -135 -260 -69 -106 -246
-270 -374 -346 -47 -28 -66 -37 -170 -78 -79 -31 -158 -40 -232 -26 -106 20
-155 54 -272 185 -100 113 -260 185 -412 185 -119 0 -195 -30 -343 -135 -274
-193 -461 -282 -661 -315 -173 -29 -200 -30 -297 -11 -180 36 -291 96 -414
227 -81 86 -161 230 -209 376 -8 26 -20 66 -25 90 -5 24 -14 63 -20 88 -14 53
-8 336 8 390 6 19 18 71 27 115 9 44 23 95 31 113 8 18 14 39 14 46 0 33 141
345 203 451 60 101 181 249 284 345 82 77 274 230 289 230 3 0 23 13 43 29 20
16 54 39 76 51 22 12 63 35 90 51 99 58 238 121 335 151 36 11 76 24 89 29 21
9 97 24 241 50 71 12 347 2 410 -16z"/>
</g>
</svg>
