<?xml version="1.0" standalone="no"?>
<!DOCTYPE svg PUBLIC "-//W3C//DTD SVG 20010904//EN"
 "http://www.w3.org/TR/2001/REC-SVG-20010904/DTD/svg10.dtd">
<svg version="1.0" xmlns="http://www.w3.org/2000/svg"
 width="261.000000pt" height="900.000000pt" viewBox="0 0 261.000000 900.000000"
 preserveAspectRatio="xMidYMid meet">
<metadata>
Created by potrace 1.10, written by Peter Selinger 2001-2011
</metadata>
<g transform="translate(0.000000,900.000000) scale(0.100000,-0.100000)"
fill="#f1c232" stroke="none">
<path d="M1110 8932 c-44 -12 -142 -66 -297 -161 -315 -195 -528 -419 -637
-671 -57 -131 -79 -249 -97 -507 -12 -171 -4 -335 24 -479 22 -111 194 -643
231 -714 16 -30 33 -171 41 -330 3 -63 12 -189 20 -280 13 -151 37 -509 50
-755 13 -245 36 -576 45 -640 5 -38 10 -104 10 -145 0 -41 9 -165 21 -275 11
-110 24 -254 29 -320 6 -66 17 -172 25 -235 8 -63 20 -154 25 -202 24 -213 31
-265 40 -298 6 -19 10 -52 10 -72 0 -21 7 -70 15 -110 29 -147 45 -244 45
-274 0 -17 6 -50 14 -75 7 -24 21 -87 30 -139 10 -52 23 -117 31 -145 7 -27
19 -77 25 -110 12 -60 19 -92 40 -175 7 -25 19 -72 27 -105 15 -59 23 -87 58
-210 9 -33 32 -105 51 -160 19 -55 41 -120 49 -145 8 -25 20 -53 25 -62 6 -10
10 -22 10 -27 0 -6 18 -48 40 -95 22 -47 45 -95 50 -108 40 -90 156 -274 235
-373 98 -122 181 -200 300 -280 130 -87 181 -113 250 -123 136 -22 205 40 205
183 0 54 -7 106 -39 288 -12 66 -21 143 -21 173 0 30 -6 83 -14 117 -18 77
-35 248 -47 466 -5 91 -14 191 -19 221 -7 35 -11 319 -11 790 0 600 3 760 15
873 9 77 16 185 16 240 1 56 5 149 11 207 5 58 14 166 19 240 6 74 14 155 20
180 5 25 9 88 9 140 1 88 18 269 41 435 5 39 15 132 20 209 6 76 12 141 14
145 2 3 9 74 16 156 6 83 20 220 31 305 11 85 24 220 29 299 5 79 14 178 19
220 5 42 13 108 16 146 7 72 31 191 43 210 9 14 27 62 66 180 51 157 66 210
66 238 0 15 6 59 14 99 49 244 60 572 26 743 -23 118 -45 181 -95 272 -83 150
-176 274 -348 461 -139 152 -242 246 -352 324 -42 29 -113 80 -158 113 -45 33
-110 75 -145 94 -57 29 -74 33 -160 36 -53 2 -108 1 -122 -3z m205 -138 c22
-10 66 -38 98 -61 31 -24 59 -43 62 -43 9 0 250 -183 310 -236 88 -77 284
-295 375 -417 115 -153 162 -245 214 -416 21 -70 22 -347 2 -475 -8 -50 -22
-143 -31 -206 -9 -63 -21 -128 -27 -145 -5 -16 -16 -55 -23 -85 -27 -111 -33
-131 -108 -320 -47 -122 -115 -259 -143 -291 -8 -8 -14 -19 -14 -23 0 -20
-148 -201 -209 -255 -96 -86 -108 -95 -176 -129 -121 -61 -148 -67 -305 -67
-143 0 -146 1 -225 35 -303 129 -485 342 -666 780 -28 70 -88 236 -98 275 -4
17 -19 64 -33 105 -14 41 -33 102 -43 135 -10 33 -24 76 -31 95 -37 99 -46
173 -45 374 0 306 21 438 94 616 67 163 202 339 345 452 37 29 69 55 72 58 39
43 365 237 440 261 37 12 120 4 165 -17z m-731 -2910 c17 -15 70 -62 118 -107
190 -174 318 -240 544 -281 91 -17 112 -16 264 12 150 28 281 107 459 278 65
63 122 114 127 114 12 0 -5 -462 -21 -552 -7 -46 -21 -164 -30 -263 -9 -99
-22 -227 -30 -285 -8 -58 -16 -151 -19 -206 -3 -56 -10 -130 -15 -165 -14 -86
-31 -282 -41 -459 -4 -80 -12 -183 -18 -230 -36 -271 -58 -1185 -43 -1785 11
-442 23 -647 47 -807 8 -53 14 -120 14 -148 0 -46 10 -125 41 -325 6 -38 15
-106 20 -150 5 -44 12 -106 15 -137 7 -61 -6 -112 -31 -122 -18 -7 -99 22
-160 58 -79 46 -195 138 -261 207 -125 131 -298 410 -365 589 -11 30 -24 59
-28 65 -5 5 -11 21 -14 35 -3 14 -15 50 -27 80 -12 30 -25 69 -30 85 -4 17
-12 41 -18 55 -6 14 -18 52 -27 85 -9 33 -22 83 -30 110 -33 116 -121 485
-150 630 -36 181 -43 220 -64 355 -7 41 -18 107 -26 145 -8 39 -22 133 -30
210 -9 77 -23 167 -30 200 -8 33 -16 101 -20 150 -3 50 -12 151 -20 225 -8 74
-20 189 -25 255 -6 66 -15 154 -20 195 -12 91 -27 293 -40 530 -5 96 -16 258
-24 360 -30 364 -55 972 -42 1005 7 20 13 19 50 -11z"/>
</g>
</svg>
