<?xml version="1.0" standalone="no"?>
<!DOCTYPE svg PUBLIC "-//W3C//DTD SVG 20010904//EN"
 "http://www.w3.org/TR/2001/REC-SVG-20010904/DTD/svg10.dtd">
<svg version="1.0" xmlns="http://www.w3.org/2000/svg"
 width="324.000000pt" height="900.000000pt" viewBox="0 0 324.000000 900.000000"
 preserveAspectRatio="xMidYMid meet">
<metadata>
Created by potrace 1.10, written by Peter Selinger 2001-2011
</metadata>
<g transform="translate(0.000000,900.000000) scale(0.100000,-0.100000)"
fill="#f1c232" stroke="none">
<path d="M792 8546 c-23 -12 -59 -38 -78 -57 -43 -40 -113 -147 -136 -204 -35
-92 -41 -115 -55 -215 -13 -94 -13 -134 2 -380 9 -151 21 -322 25 -380 12
-145 12 -1698 0 -1840 -5 -63 -14 -203 -20 -310 -13 -250 -27 -445 -45 -645
-9 -88 -20 -223 -25 -300 -14 -201 -29 -356 -35 -366 -3 -4 -10 -70 -15 -146
-6 -76 -14 -169 -20 -208 -20 -137 -40 -312 -40 -346 0 -52 -50 -244 -71 -274
-6 -9 -16 -36 -63 -185 -8 -25 -22 -81 -31 -125 -9 -44 -23 -105 -31 -136 -8
-30 -14 -73 -14 -95 0 -21 -5 -59 -11 -83 -15 -66 -49 -348 -49 -408 0 -29 -6
-115 -14 -190 -41 -388 -41 -623 -1 -813 39 -188 49 -227 62 -247 7 -12 13
-30 13 -40 0 -10 21 -56 48 -103 85 -154 230 -272 381 -312 187 -50 161 -48
976 -59 424 -6 858 -9 965 -7 l195 4 73 38 c120 63 188 161 217 313 22 116 19
174 -21 413 -8 47 -14 107 -14 133 0 26 -6 76 -14 110 -8 34 -22 130 -31 212
-9 83 -23 177 -31 211 -8 33 -14 72 -14 86 0 25 -14 105 -45 253 -8 39 -19 99
-25 135 -7 36 -15 81 -20 100 -4 19 -13 62 -20 95 -40 211 -86 388 -146 570
-7 22 -20 112 -28 200 -44 455 -73 735 -95 920 -6 50 -11 122 -11 160 0 39 -6
106 -14 150 -19 102 -34 236 -41 350 -3 50 -12 131 -20 180 -8 50 -22 153 -30
230 -9 77 -22 172 -31 210 -8 39 -14 90 -14 114 0 43 -16 146 -46 299 -8 40
-14 90 -14 112 0 38 -16 126 -46 257 -8 34 -14 74 -14 89 0 15 -7 53 -15 83
-8 31 -23 106 -35 166 -11 61 -25 124 -30 140 -5 17 -18 73 -30 125 -27 124
-39 175 -55 230 -7 25 -21 74 -30 110 -31 117 -76 264 -91 298 -8 18 -14 39
-14 47 0 8 -6 29 -14 47 -8 18 -36 87 -61 153 -65 165 -167 381 -226 479 -10
17 -23 40 -28 51 -6 11 -41 63 -78 116 -196 278 -328 419 -446 477 -58 28 -76
32 -144 31 -60 0 -88 -6 -121 -23z m219 -148 c54 -28 155 -122 222 -207 28
-36 60 -75 70 -86 30 -32 165 -228 187 -270 6 -11 20 -35 31 -54 43 -72 113
-217 159 -331 12 -30 28 -68 35 -85 20 -47 61 -161 75 -210 5 -16 21 -66 35
-110 24 -76 32 -102 70 -235 9 -30 22 -75 30 -100 7 -25 21 -81 30 -125 10
-44 23 -98 31 -120 8 -23 14 -50 14 -60 0 -24 26 -151 46 -221 8 -28 14 -63
14 -78 0 -14 6 -52 14 -84 21 -86 46 -223 46 -255 0 -16 7 -56 15 -90 8 -34
21 -116 30 -182 9 -66 21 -145 27 -175 6 -30 12 -73 14 -95 6 -61 33 -258 50
-365 8 -52 14 -115 14 -139 0 -24 7 -89 14 -145 31 -213 38 -275 46 -396 4
-69 13 -150 19 -180 14 -74 41 -370 41 -446 0 -33 7 -109 15 -169 14 -101 13
-145 -3 -145 -4 0 -70 66 -146 146 -158 166 -295 274 -454 362 -33 18 -117 47
-192 67 -87 22 -316 17 -410 -9 -158 -43 -356 -164 -509 -310 -73 -68 -133
-116 -148 -116 -19 0 -17 195 2 293 8 43 15 118 15 165 0 48 7 141 15 207 8
66 21 176 30 245 8 69 15 172 15 230 0 58 6 168 14 245 21 201 45 605 51 860
3 121 9 283 14 360 13 182 13 698 0 845 -5 63 -14 239 -18 390 -5 151 -14 313
-21 360 -6 47 -12 173 -13 280 -2 204 1 223 51 345 40 99 128 208 177 219 35
7 93 -3 136 -26z m525 -4707 c245 -52 489 -226 688 -490 71 -95 136 -188 136
-196 0 -2 13 -26 28 -52 54 -93 131 -307 167 -463 10 -41 24 -95 31 -119 8
-25 14 -56 14 -69 0 -14 6 -48 14 -76 20 -70 46 -197 46 -220 0 -11 6 -42 14
-70 8 -28 22 -96 31 -151 9 -55 23 -128 31 -162 8 -34 14 -80 14 -102 0 -22 7
-73 15 -113 22 -115 45 -273 45 -320 0 -24 5 -61 10 -83 47 -197 61 -524 26
-623 -26 -75 -87 -134 -167 -161 -59 -20 -83 -21 -383 -21 -409 0 -1300 18
-1482 29 -114 7 -152 14 -205 35 -36 14 -69 26 -74 26 -19 0 -135 92 -171 136
-134 164 -203 451 -191 803 9 279 26 537 42 651 8 58 22 177 31 265 9 88 23
175 30 194 8 18 14 44 14 57 0 23 24 129 53 234 82 295 233 566 421 755 32 32
200 166 216 173 8 3 33 18 55 32 61 40 180 83 280 101 119 22 118 22 221 0z"/>
</g>
</svg>
