<?xml version="1.0" standalone="no"?>
<!DOCTYPE svg PUBLIC "-//W3C//DTD SVG 20010904//EN"
 "http://www.w3.org/TR/2001/REC-SVG-20010904/DTD/svg10.dtd">
<svg version="1.0" xmlns="http://www.w3.org/2000/svg"
 width="312.000000pt" height="900.000000pt" viewBox="0 0 312.000000 900.000000"
 preserveAspectRatio="xMidYMid meet">
<metadata>
Created by potrace 1.10, written by Peter Selinger 2001-2011
</metadata>
<g transform="translate(0.000000,900.000000) scale(0.100000,-0.100000)"
fill="#f1c232" stroke="none">
<path d="M1054 8421 c-89 -40 -128 -128 -179 -395 -20 -104 -20 -538 -1 -742
41 -425 41 -2201 0 -2615 -8 -80 -14 -188 -14 -240 0 -97 -34 -537 -50 -644
-4 -33 -9 -98 -9 -145 -1 -83 -17 -242 -46 -446 -8 -56 -15 -123 -15 -149 0
-47 -16 -159 -47 -330 -9 -49 -33 -128 -54 -176 -70 -161 -169 -502 -169 -582
0 -14 -4 -37 -10 -51 -5 -14 -16 -67 -24 -118 -8 -51 -23 -142 -33 -203 -25
-159 -23 -419 5 -540 49 -214 80 -285 184 -428 80 -109 211 -208 348 -264 41
-17 84 -34 95 -36 11 -3 45 -15 75 -27 30 -12 69 -25 85 -29 17 -5 59 -19 95
-33 169 -66 397 -118 511 -118 65 0 211 30 288 59 82 31 226 114 331 191 52
39 102 73 110 77 20 8 165 122 211 164 71 66 136 186 170 313 36 132 21 420
-31 626 -7 25 -19 72 -27 105 -26 101 -45 167 -71 245 -14 41 -29 89 -33 105
-8 32 -50 155 -74 218 -8 20 -21 54 -29 75 -24 65 -78 196 -87 214 -42 80 -60
205 -79 528 -5 80 -13 159 -18 175 -6 17 -13 77 -16 135 -6 130 -23 312 -38
405 -6 39 -14 117 -18 175 -4 58 -13 137 -19 175 -28 184 -41 294 -41 338 0
26 -6 80 -14 120 -7 40 -21 135 -30 212 -9 77 -22 165 -28 195 -6 30 -12 73
-14 95 -6 59 -33 220 -50 300 -8 39 -14 87 -14 108 0 21 -6 66 -14 100 -8 34
-22 109 -31 167 -15 99 -24 145 -60 317 -8 40 -15 83 -15 96 0 14 -6 47 -14
73 -8 27 -24 99 -35 159 -12 61 -25 128 -31 150 -5 22 -17 74 -25 115 -9 41
-23 92 -31 113 -8 20 -14 50 -14 65 0 16 -6 48 -14 73 -16 54 -36 131 -47 184
-8 44 -49 198 -75 285 -9 30 -23 80 -31 110 -9 30 -22 70 -29 88 -8 18 -14 41
-14 52 0 11 -6 34 -14 52 -8 18 -29 71 -46 118 -17 47 -39 101 -47 120 -9 19
-22 49 -29 65 -47 115 -147 286 -207 355 -96 109 -205 146 -303 101z m138
-142 c66 -35 149 -151 232 -321 54 -113 63 -134 106 -258 13 -36 29 -81 35
-100 7 -19 21 -62 30 -95 10 -33 24 -78 31 -100 6 -22 20 -69 29 -105 10 -36
23 -85 30 -110 19 -66 35 -130 44 -175 4 -22 13 -60 20 -85 26 -93 62 -245 85
-355 10 -44 24 -109 31 -145 8 -36 21 -101 30 -145 9 -44 21 -100 27 -125 23
-100 47 -227 48 -253 0 -15 7 -53 15 -85 21 -84 45 -218 45 -254 0 -17 6 -57
14 -87 8 -31 22 -110 31 -176 9 -66 23 -150 31 -187 8 -37 14 -81 14 -98 0
-17 6 -68 14 -113 29 -164 46 -293 46 -339 0 -26 6 -80 14 -120 19 -92 46
-320 46 -379 0 -24 5 -60 10 -79 6 -19 15 -80 20 -135 5 -55 14 -154 20 -220
6 -66 17 -160 25 -210 8 -49 17 -166 19 -260 3 -93 9 -187 12 -208 10 -56 -14
-49 -114 36 -176 149 -316 234 -456 277 -59 18 -87 20 -244 17 -128 -2 -187
-7 -214 -18 -45 -18 -210 -116 -235 -138 -10 -9 -47 -38 -83 -65 -36 -27 -70
-56 -77 -64 -48 -58 -45 114 7 563 6 50 15 164 20 255 5 91 14 206 19 255 35
300 62 1027 68 1810 3 440 1 694 -7 785 -27 320 -44 1172 -26 1320 25 212 104
334 188 289z m475 -5123 c21 -8 53 -17 72 -20 18 -3 69 -24 112 -45 73 -37
103 -57 217 -143 61 -46 211 -214 266 -298 50 -76 116 -201 116 -220 0 -7 6
-24 14 -38 13 -25 30 -67 61 -152 7 -19 27 -71 44 -116 17 -44 31 -86 31 -92
0 -6 6 -26 14 -44 8 -18 22 -60 31 -93 10 -33 23 -78 30 -100 44 -141 72 -249
89 -340 8 -44 22 -118 30 -165 18 -97 21 -219 6 -270 -6 -19 -15 -57 -20 -83
-25 -127 -137 -271 -272 -352 -25 -15 -92 -62 -175 -122 -40 -29 -75 -53 -77
-53 -3 0 -24 -13 -48 -29 -52 -35 -153 -82 -228 -107 -42 -14 -86 -18 -190
-18 -149 1 -149 1 -420 90 -91 30 -178 59 -195 64 -256 75 -463 227 -548 401
-56 115 -89 208 -98 279 -17 130 -5 452 20 570 32 147 41 198 41 221 0 14 6
45 14 70 7 24 21 80 31 124 24 111 73 275 90 307 8 14 15 31 15 38 0 19 89
199 138 280 56 92 92 139 157 209 97 103 287 231 343 231 11 0 35 7 53 15 44
19 187 19 236 1z"/>
</g>
</svg>
