<?xml version="1.0" standalone="no"?>
<!DOCTYPE svg PUBLIC "-//W3C//DTD SVG 20010904//EN"
 "http://www.w3.org/TR/2001/REC-SVG-20010904/DTD/svg10.dtd">
<svg version="1.0" xmlns="http://www.w3.org/2000/svg"
 width="327.000000pt" height="900.000000pt" viewBox="0 0 327.000000 900.000000"
 preserveAspectRatio="xMidYMid meet">
<metadata>
Created by potrace 1.10, written by Peter Selinger 2001-2011
</metadata>
<g transform="translate(0.000000,900.000000) scale(0.100000,-0.100000)"
fill="#f1c232" stroke="none">
<path d="M1380 8755 c-102 -16 -248 -82 -407 -184 -43 -27 -150 -94 -238 -147
-374 -227 -464 -331 -516 -594 -21 -103 -25 -310 -9 -390 5 -25 12 -94 15
-155 3 -60 12 -137 20 -170 7 -33 21 -98 30 -145 16 -89 25 -123 74 -280 16
-52 36 -138 46 -190 9 -52 23 -122 31 -156 8 -33 14 -78 14 -100 0 -21 5 -55
11 -74 5 -19 14 -66 18 -105 12 -99 30 -225 46 -330 8 -49 21 -180 30 -290 8
-110 20 -234 26 -275 6 -41 14 -192 19 -335 5 -143 13 -415 20 -605 6 -195 17
-385 25 -437 8 -51 15 -132 15 -180 0 -49 6 -133 14 -188 34 -226 46 -322 46
-358 0 -21 7 -66 15 -100 19 -84 45 -236 45 -269 0 -15 5 -39 10 -54 6 -14 21
-79 35 -143 13 -64 29 -136 35 -161 7 -25 19 -72 27 -105 26 -106 71 -267 88
-315 7 -19 20 -62 30 -95 9 -33 23 -75 31 -93 8 -18 14 -41 14 -50 0 -10 7
-27 15 -38 8 -10 15 -25 15 -33 0 -14 46 -138 77 -211 9 -19 21 -48 28 -65 7
-16 27 -60 44 -97 17 -37 31 -70 31 -73 0 -13 112 -230 160 -310 100 -168 224
-311 312 -364 53 -32 162 -32 213 -1 67 42 128 156 161 305 42 190 44 228 37
773 -6 506 4 941 27 1132 5 41 18 163 30 270 11 107 27 236 35 285 8 50 22
135 30 190 9 55 22 132 30 170 7 39 21 115 30 170 10 55 24 125 31 156 8 31
14 74 14 95 0 21 6 65 14 98 8 34 21 106 30 161 9 55 23 138 31 185 8 47 21
139 30 205 9 66 23 149 30 185 8 36 22 133 30 215 9 83 22 184 30 225 8 41 21
145 30 230 9 85 23 206 31 268 8 62 14 136 14 165 1 29 5 72 11 97 5 25 13
106 19 180 20 295 31 407 44 440 7 19 21 62 30 95 9 33 23 76 30 95 8 19 22
71 31 115 10 44 24 105 32 135 9 37 13 123 13 268 0 215 -6 263 -46 393 -8 26
-14 53 -14 62 0 23 -61 157 -97 213 -46 71 -122 139 -236 209 -54 33 -126 78
-160 100 -52 34 -231 145 -302 188 -11 7 -58 36 -104 66 -205 132 -308 158
-501 126z m293 -168 c46 -24 115 -64 153 -89 38 -25 109 -69 157 -99 48 -30
98 -61 112 -69 74 -47 268 -167 283 -175 58 -32 154 -113 183 -153 54 -75 91
-162 112 -262 63 -300 63 -352 1 -660 -9 -41 -22 -97 -30 -125 -32 -116 -77
-263 -90 -297 -8 -21 -21 -57 -30 -80 -22 -58 -77 -170 -119 -243 -19 -33 -38
-67 -42 -75 -11 -25 -110 -152 -160 -206 -56 -61 -149 -142 -178 -155 -11 -5
-33 -18 -50 -29 -16 -11 -39 -24 -50 -29 -153 -70 -264 -94 -405 -88 -119 5
-174 17 -280 60 -136 56 -319 181 -400 273 -81 93 -190 246 -240 339 -83 154
-172 416 -205 605 -9 52 -21 120 -26 150 -6 30 -17 111 -24 180 -41 365 7 583
162 731 54 51 151 128 198 156 98 59 255 156 323 200 106 69 219 126 307 157
54 19 92 25 162 25 89 1 94 0 176 -42z m831 -2425 c8 -13 -47 -600 -69 -737
-8 -49 -19 -135 -26 -190 -15 -132 -24 -195 -37 -280 -6 -38 -16 -104 -23
-145 -6 -41 -15 -97 -19 -125 -14 -96 -31 -200 -41 -255 -16 -83 -38 -216 -49
-295 -5 -38 -14 -88 -19 -110 -5 -22 -17 -85 -26 -140 -9 -55 -23 -126 -31
-157 -8 -32 -14 -68 -14 -80 0 -22 -13 -101 -46 -281 -8 -42 -14 -96 -14 -119
0 -23 -7 -80 -15 -127 -22 -129 -45 -356 -45 -441 0 -41 -8 -113 -17 -160 -15
-75 -17 -173 -17 -835 -1 -412 -4 -755 -8 -761 -4 -6 -11 -35 -17 -65 -19
-113 -82 -234 -127 -245 -60 -15 -171 82 -275 241 -92 140 -140 228 -214 390
-58 126 -75 166 -75 175 0 5 -6 24 -14 42 -20 47 -71 177 -85 218 -42 120
-111 337 -111 347 0 7 -6 27 -14 45 -13 31 -28 87 -46 168 -4 19 -19 80 -33
135 -13 55 -32 138 -41 185 -22 107 -42 201 -56 265 -6 28 -15 90 -20 138 -5
48 -11 91 -15 96 -7 13 -22 121 -40 304 -8 82 -18 153 -21 159 -4 6 -10 81
-15 167 -5 86 -13 237 -18 336 -6 99 -11 268 -11 375 0 111 -7 247 -15 315 -8
65 -15 176 -15 245 0 134 -24 459 -41 550 -5 30 -14 124 -19 208 -5 84 -11
156 -14 160 -7 12 -11 171 -3 178 9 10 42 -14 164 -119 122 -105 176 -143 282
-199 193 -102 381 -139 581 -114 58 7 116 18 127 25 12 6 31 11 42 11 19 0 42
8 141 53 132 59 334 228 455 381 60 75 69 83 79 68z"/>
</g>
</svg>
