<?xml version="1.0" standalone="no"?>
<!DOCTYPE svg PUBLIC "-//W3C//DTD SVG 20010904//EN"
 "http://www.w3.org/TR/2001/REC-SVG-20010904/DTD/svg10.dtd">
<svg version="1.0" xmlns="http://www.w3.org/2000/svg"
 width="498.000000pt" height="900.000000pt" viewBox="0 0 498.000000 900.000000"
 preserveAspectRatio="xMidYMid meet">
<metadata>
Created by potrace 1.10, written by Peter Selinger 2001-2011
</metadata>
<g transform="translate(0.000000,900.000000) scale(0.100000,-0.100000)"
fill="#f1c232" stroke="none">
<path d="M1828 7765 c-87 -57 -138 -165 -204 -430 -16 -65 -22 -75 -89 -140
-123 -120 -180 -197 -252 -345 -48 -100 -93 -200 -93 -210 0 -5 -6 -24 -14
-42 -38 -88 -136 -466 -136 -525 0 -18 -4 -54 -10 -80 -12 -62 -27 -215 -41
-421 -11 -172 -3 -388 26 -692 8 -85 19 -211 25 -280 5 -69 16 -165 24 -215 8
-49 20 -142 26 -205 6 -63 18 -160 26 -215 38 -260 68 -688 69 -960 0 -306
-12 -398 -61 -465 -78 -105 -111 -159 -141 -230 -49 -115 -95 -254 -123 -366
-4 -18 -11 -37 -14 -43 -12 -19 -35 -201 -35 -271 1 -392 186 -715 539 -942
105 -67 138 -83 290 -138 19 -7 91 -14 160 -17 165 -6 256 18 415 107 80 45
80 45 180 45 96 0 102 -1 145 -32 25 -17 65 -52 90 -78 283 -295 704 -386
1105 -238 332 122 570 411 644 781 36 177 -12 620 -98 917 -27 91 -50 195 -61
270 -4 33 -13 80 -19 105 -5 25 -17 92 -26 150 -9 58 -23 132 -30 165 -8 33
-16 89 -20 125 -6 65 -9 89 -39 270 -8 52 -20 147 -27 210 -6 63 -14 151 -19
195 -29 281 -59 692 -76 1055 -9 184 -22 366 -30 403 -8 38 -14 81 -14 97 0
35 -25 170 -46 255 -9 33 -22 87 -31 120 -8 33 -20 71 -25 85 -6 14 -14 39
-19 55 -23 89 -132 351 -214 515 -140 282 -336 593 -513 815 -237 297 -332
391 -432 428 -29 11 -75 17 -128 17 -46 0 -91 4 -101 9 -9 5 -48 56 -86 112
-80 118 -201 247 -262 278 -62 31 -184 29 -235 -4z m159 -118 c58 -22 158
-129 248 -267 67 -103 65 -93 69 -323 3 -176 7 -224 23 -282 30 -102 69 -222
93 -285 36 -94 70 -203 105 -340 10 -36 23 -85 30 -110 7 -25 20 -83 30 -130
9 -47 23 -113 31 -147 8 -34 14 -80 14 -102 0 -22 6 -73 14 -113 29 -147 38
-259 43 -533 6 -313 -11 -555 -49 -677 -18 -59 -22 -66 -38 -58 -32 17 -66 66
-112 161 -90 184 -122 263 -169 419 -63 211 -100 357 -110 445 -5 39 -16 111
-24 160 -9 50 -20 133 -26 185 -5 52 -14 135 -20 184 -14 111 -28 451 -38 881
-6 317 -8 332 -30 374 -47 89 -114 138 -243 175 -45 13 -59 22 -64 40 -7 30
22 135 58 208 15 31 28 61 28 66 0 16 82 83 100 81 3 0 19 -6 37 -12z m623
-429 c31 -12 196 -178 275 -278 32 -41 62 -77 65 -80 11 -8 189 -249 218 -294
36 -56 50 -78 58 -96 4 -8 26 -41 48 -75 23 -33 51 -78 63 -100 11 -22 35 -65
52 -95 30 -53 111 -216 163 -330 80 -173 165 -426 199 -590 10 -52 26 -126 34
-165 8 -38 15 -92 15 -120 0 -27 6 -89 14 -137 8 -48 22 -244 30 -435 9 -191
23 -422 31 -513 8 -91 22 -248 30 -350 9 -102 22 -225 30 -275 8 -49 21 -153
30 -230 9 -77 23 -173 31 -214 8 -40 14 -94 14 -120 1 -25 7 -75 15 -111 19
-86 19 -130 1 -130 -8 0 -16 4 -18 9 -5 16 -190 161 -248 195 -228 133 -428
186 -705 186 -82 1 -181 5 -220 11 -38 5 -107 14 -151 19 -78 8 -111 13 -266
46 -46 10 -137 14 -291 14 -237 0 -279 -6 -432 -60 -33 -11 -73 -25 -90 -30
-16 -5 -78 -34 -138 -65 -59 -30 -110 -55 -115 -55 -33 1 -35 15 -43 362 -7
335 -19 527 -40 638 -5 30 -14 105 -19 165 -5 61 -16 157 -25 215 -8 58 -20
152 -25 210 -11 111 -36 332 -50 440 -5 36 -14 200 -20 365 -14 368 0 661 41
885 6 30 15 84 20 120 14 96 61 254 105 358 8 18 14 38 14 46 0 13 67 174 80
191 4 6 28 50 54 98 73 139 146 228 223 270 43 24 138 23 195 -3 96 -42 108
-84 108 -384 0 -127 5 -289 11 -361 5 -71 13 -232 18 -356 4 -124 11 -230 14
-236 4 -6 14 -73 22 -149 26 -238 33 -288 44 -317 6 -16 11 -42 11 -59 0 -18
7 -59 16 -92 8 -34 21 -86 29 -116 22 -92 35 -143 45 -175 5 -16 16 -55 24
-85 9 -30 20 -64 25 -75 5 -11 17 -40 26 -65 10 -25 31 -73 47 -108 15 -34 28
-66 28 -70 0 -15 126 -257 172 -329 57 -92 157 -223 174 -230 34 -13 56 43 74
190 5 43 12 83 16 88 10 17 34 306 43 532 14 325 -6 745 -44 927 -8 36 -16 92
-20 125 -3 33 -15 94 -26 135 -11 41 -24 98 -29 125 -4 28 -15 75 -24 105 -8
30 -21 75 -27 100 -11 42 -128 401 -148 452 -10 27 -34 110 -55 194 -24 90
-21 224 5 284 32 75 81 91 169 58z m-365 -4393 c44 -8 109 -15 143 -15 37 0
115 -13 185 -30 108 -28 148 -32 352 -40 248 -10 374 -22 418 -39 16 -6 40
-11 55 -11 15 0 40 -7 56 -15 15 -8 33 -15 38 -15 17 0 145 -68 216 -114 118
-78 285 -254 355 -376 64 -112 127 -264 127 -308 0 -9 6 -34 14 -57 24 -69 49
-312 50 -475 0 -127 -4 -172 -23 -248 -12 -52 -26 -101 -30 -110 -75 -159
-117 -226 -187 -297 -151 -155 -361 -251 -589 -270 -83 -6 -239 8 -313 29
-130 37 -272 126 -413 261 -106 101 -166 128 -292 133 -110 4 -132 -2 -257
-71 -41 -23 -97 -49 -124 -59 -62 -22 -231 -33 -317 -20 -132 20 -342 146
-503 301 -119 115 -168 197 -229 381 -29 88 -32 105 -32 235 0 135 17 248 47
325 6 14 14 39 18 55 21 78 78 223 133 335 44 90 64 117 137 190 107 108 179
156 330 222 117 51 221 82 350 101 123 19 187 20 285 2z"/>
</g>
</svg>
