<?xml version="1.0" standalone="no"?>
<!DOCTYPE svg PUBLIC "-//W3C//DTD SVG 20010904//EN"
 "http://www.w3.org/TR/2001/REC-SVG-20010904/DTD/svg10.dtd">
<svg version="1.0" xmlns="http://www.w3.org/2000/svg"
 width="900.000000pt" height="1242.000000pt" viewBox="0 0 900.000000 1242.000000"
 preserveAspectRatio="xMidYMid meet">
<metadata>
Created by potrace 1.10, written by Peter Selinger 2001-2011
</metadata>
<g transform="translate(0.000000,1242.000000) scale(0.100000,-0.100000)"
fill="#f1c232" stroke="none">
<path d="M7125 11721 c-147 -8 -234 -22 -350 -57 -44 -13 -98 -26 -120 -29
-53 -8 -134 -31 -220 -62 -38 -14 -90 -31 -115 -38 -64 -18 -357 -122 -372
-132 -44 -28 -193 -63 -268 -63 -60 0 -172 23 -240 50 -173 67 -450 150 -501
150 -26 0 -77 6 -115 14 -137 28 -228 38 -356 37 -126 0 -182 -6 -351 -37 -42
-8 -92 -14 -110 -14 -17 0 -102 -23 -187 -50 -85 -27 -159 -50 -163 -50 -4 0
-40 -15 -80 -33 -374 -174 -443 -190 -619 -146 -108 26 -333 37 -409 19 -94
-22 -173 -74 -279 -181 -217 -219 -334 -490 -374 -869 -32 -299 -36 -425 -21
-585 30 -320 50 -425 130 -675 33 -105 53 -155 120 -295 60 -127 93 -254 116
-450 4 -38 13 -101 18 -140 6 -38 10 -107 11 -152 0 -45 9 -151 19 -235 29
-229 61 -851 61 -1185 0 -325 -45 -1101 -66 -1134 -2 -4 -8 -60 -14 -125 -10
-115 -16 -153 -45 -294 -8 -36 -28 -139 -46 -230 -17 -91 -37 -183 -44 -205
-12 -39 -28 -98 -61 -227 -9 -35 -22 -79 -30 -98 -8 -19 -28 -80 -45 -135 -32
-102 -93 -264 -156 -415 -48 -115 -234 -476 -290 -564 -26 -39 -67 -102 -92
-141 -54 -84 -172 -246 -215 -296 -17 -19 -42 -49 -55 -65 -143 -174 -342
-372 -522 -518 -221 -181 -280 -244 -357 -386 -112 -209 -111 -401 5 -530 32
-36 69 -61 138 -94 52 -25 101 -46 109 -46 8 0 43 -8 78 -17 87 -24 502 -24
623 1 44 9 94 16 110 16 28 0 78 14 165 45 19 7 64 22 100 33 137 43 320 132
446 218 55 37 133 90 175 119 96 65 211 157 404 325 49 42 296 284 445 435 93
95 175 189 375 431 188 229 362 462 529 713 168 252 179 270 296 461 45 74 90
147 100 161 17 24 74 124 137 239 14 24 33 56 42 70 10 14 36 61 58 105 49 99
65 125 77 125 14 0 -13 -225 -40 -327 -8 -28 -14 -67 -14 -87 0 -21 -6 -65
-14 -99 -8 -34 -20 -89 -26 -122 -6 -33 -25 -103 -42 -155 -16 -52 -33 -113
-38 -135 -11 -57 -34 -136 -73 -250 -18 -55 -50 -152 -71 -215 -20 -63 -50
-146 -66 -185 -16 -38 -45 -113 -66 -165 -105 -270 -332 -741 -424 -882 -27
-43 -50 -80 -50 -83 0 -3 -23 -36 -50 -72 -99 -131 -237 -389 -291 -543 -77
-224 -94 -315 -87 -474 7 -155 51 -225 168 -270 96 -38 272 -16 420 51 101 46
311 154 376 194 35 21 66 39 69 39 4 0 190 112 249 150 121 78 187 122 239
161 34 25 96 68 137 97 42 28 98 71 126 94 28 24 82 68 119 98 37 30 81 66 96
80 15 14 59 52 98 85 122 105 461 454 612 630 237 277 532 689 659 920 18 33
38 67 44 75 6 8 18 29 27 45 9 17 30 55 46 85 85 155 110 204 159 300 28 58
64 132 79 165 15 33 35 78 45 100 59 128 193 464 219 550 12 39 32 93 45 120
13 28 31 77 41 110 17 58 32 102 82 250 12 38 23 76 23 85 0 8 20 78 45 155
25 77 45 147 45 155 0 8 20 92 44 185 24 94 51 206 61 250 10 44 23 103 30
130 25 96 35 145 41 202 3 32 26 158 50 280 24 123 44 237 44 255 0 42 27 264
42 343 25 135 60 453 83 770 8 110 22 283 30 385 8 102 18 228 21 280 5 78 16
124 61 260 30 90 65 189 78 220 12 30 35 91 49 135 15 44 33 91 40 105 8 14
30 79 50 145 20 66 47 149 60 185 12 36 30 90 39 120 9 30 29 98 46 150 16 52
39 136 50 185 12 50 30 122 41 160 23 78 23 79 46 254 29 215 1 458 -82 716
-55 170 -99 257 -197 385 -150 196 -367 326 -637 380 -111 22 -404 32 -605 21z
m399 -232 c186 -16 239 -31 435 -127 160 -77 349 -318 401 -512 35 -129 62
-288 67 -395 6 -123 1 -169 -37 -345 -11 -52 -27 -126 -35 -165 -7 -38 -21
-92 -30 -120 -9 -27 -20 -63 -25 -80 -51 -180 -72 -251 -93 -310 -13 -38 -38
-115 -56 -170 -17 -55 -38 -116 -45 -135 -8 -19 -23 -64 -35 -100 -77 -243
-127 -356 -181 -410 -46 -46 -98 -55 -250 -40 -608 58 -762 55 -1452 -31 -87
-11 -190 -30 -230 -44 -40 -13 -102 -31 -138 -41 -61 -16 -233 -91 -377 -163
-34 -17 -66 -31 -72 -31 -5 0 -31 -11 -58 -24 -26 -13 -88 -36 -138 -51 -49
-14 -126 -37 -170 -50 -125 -38 -183 -52 -285 -69 -52 -8 -136 -22 -187 -31
-217 -36 -795 -39 -998 -4 -33 6 -94 14 -135 19 -80 8 -138 21 -235 51 -141
43 -203 70 -346 151 -50 28 -217 164 -284 232 -58 59 -175 213 -175 232 0 2
-11 21 -24 42 -13 20 -41 78 -61 127 -20 50 -42 104 -50 120 -39 90 -91 293
-116 455 -26 176 -26 505 1 685 39 262 111 476 215 636 84 130 151 197 253
252 72 39 193 38 307 -2 202 -71 332 -54 610 80 108 52 126 59 285 113 282 96
390 117 646 123 182 4 228 2 330 -16 65 -11 133 -25 149 -30 17 -6 77 -20 135
-32 58 -12 125 -31 150 -43 57 -28 175 -70 271 -96 132 -36 317 -36 434 0 87
27 157 51 173 59 9 4 31 15 47 23 17 8 84 32 150 53 66 20 125 40 130 44 10 7
73 26 180 56 33 9 96 27 140 40 134 40 425 78 640 83 28 1 104 -3 169 -9z m-4
-3134 c208 -18 260 -28 281 -53 10 -14 18 -50 22 -104 8 -101 -9 -605 -23
-668 -5 -25 -9 -65 -9 -90 -1 -25 -7 -92 -16 -150 -24 -169 -43 -327 -56 -445
-6 -60 -24 -189 -41 -285 -16 -96 -33 -206 -38 -245 -11 -87 -27 -173 -45
-245 -23 -95 -44 -191 -65 -300 -11 -58 -31 -145 -43 -195 -13 -49 -32 -126
-42 -170 -10 -44 -28 -112 -41 -151 -13 -39 -33 -106 -45 -150 -47 -183 -162
-534 -231 -704 -16 -41 -36 -91 -43 -110 -25 -66 -118 -285 -150 -355 -18 -38
-51 -113 -73 -165 -39 -90 -145 -303 -162 -325 -8 -10 -93 -163 -158 -285
-113 -211 -428 -657 -670 -947 -83 -100 -512 -530 -627 -629 -137 -119 -288
-234 -524 -402 -60 -43 -240 -163 -266 -177 -11 -6 -85 -50 -165 -97 -220
-130 -347 -198 -369 -198 -6 0 -25 -6 -43 -14 -82 -34 -141 -48 -184 -43 -81
9 -100 48 -82 172 12 83 41 202 63 264 43 119 180 363 350 621 13 19 37 62 54
94 17 33 35 64 40 70 10 11 96 176 161 306 65 129 116 242 149 330 18 47 38
99 46 115 62 142 196 521 255 725 61 206 69 236 80 280 17 67 41 150 55 190 7
19 20 78 29 130 16 87 58 281 92 421 8 31 14 69 14 84 0 15 7 64 15 109 8 44
20 143 26 219 20 248 -19 355 -137 373 -119 18 -188 -26 -253 -160 -23 -47
-41 -89 -41 -94 0 -19 -234 -513 -288 -607 -16 -27 -42 -75 -59 -105 -76 -139
-101 -183 -174 -305 -43 -71 -103 -168 -133 -215 -30 -47 -78 -123 -107 -170
-89 -144 -393 -556 -543 -735 -196 -234 -303 -352 -501 -554 -313 -318 -536
-508 -835 -708 -74 -50 -315 -169 -405 -201 -80 -27 -265 -73 -340 -82 -250
-33 -263 -34 -389 -16 -172 25 -287 62 -339 110 -59 55 -22 183 98 341 69 92
103 125 286 287 351 311 624 634 866 1028 115 187 210 364 298 555 42 92 177
446 195 510 4 17 13 44 18 60 28 83 73 238 87 300 26 115 45 197 60 255 19 77
33 153 45 240 19 140 39 275 60 395 11 66 25 199 30 295 5 96 15 216 21 265
14 116 7 1164 -9 1370 -16 212 -33 521 -39 722 -5 152 -4 173 10 179 22 8 125
-29 187 -67 28 -17 74 -40 103 -51 29 -10 78 -33 111 -49 60 -32 88 -40 291
-90 260 -64 720 -83 1220 -50 177 12 323 34 480 74 44 11 98 23 120 27 41 8
96 26 127 41 10 5 34 13 55 18 107 27 164 46 228 76 39 18 95 43 125 56 30 12
72 33 92 46 21 13 68 34 105 48 38 14 77 29 88 34 55 25 109 41 136 41 17 0
39 5 50 11 11 6 41 14 67 19 26 4 93 17 150 29 90 18 211 28 557 45 133 7 541
-4 705 -19z"/>
</g>
</svg>
