<?xml version="1.0" standalone="no"?>
<!DOCTYPE svg PUBLIC "-//W3C//DTD SVG 20010904//EN"
 "http://www.w3.org/TR/2001/REC-SVG-20010904/DTD/svg10.dtd">
<svg version="1.0" xmlns="http://www.w3.org/2000/svg"
 width="225.000000pt" height="225.000000pt" viewBox="0 0 225.000000 225.000000"
 preserveAspectRatio="xMidYMid meet">
<metadata>
Created by potrace 1.10, written by Peter Selinger 2001-2011
</metadata>
<g transform="translate(0.000000,225.000000) scale(0.100000,-0.100000)"
fill="#ff0000" stroke="none">
<path d="M498 1963 c81 -128 157 -250 316 -508 65 -104 131 -209 147 -233 l30
-43 -298 -447 c-164 -246 -299 -451 -301 -457 -2 -6 43 -9 125 -7 l128 3 61
102 c34 56 134 219 223 362 89 143 165 272 168 288 8 37 21 34 39 -10 9 -21
111 -196 227 -390 l211 -352 128 -3 c70 -2 128 -2 128 -1 0 1 -47 75 -104 165
-57 90 -186 294 -288 455 l-185 292 67 103 c37 57 158 247 270 423 112 176
210 330 218 343 l14 22 -120 0 -120 0 -19 -32 c-26 -43 -146 -240 -213 -348
-135 -219 -200 -331 -206 -354 -8 -33 -30 -33 -38 0 -6 22 -103 194 -289 514
-28 47 -67 114 -87 150 l-38 65 -131 3 -131 3 68 -108z m1212 71 c23 -5 30
-11 27 -23 -3 -14 -136 -227 -242 -391 -188 -291 -265 -418 -265 -441 0 -27 4
-34 150 -264 296 -466 370 -585 370 -594 0 -16 -142 -14 -162 2 -13 10 -340
549 -408 672 -28 50 -49 75 -66 75 -16 0 -44 -37 -103 -135 -26 -44 -65 -108
-87 -142 -21 -34 -95 -153 -163 -263 -69 -111 -134 -208 -145 -214 -14 -9 -43
-11 -90 -7 l-69 6 193 290 c341 512 360 542 360 571 0 29 -14 52 -312 532
-103 166 -188 307 -188 312 0 7 30 10 82 8 l82 -3 45 -75 c24 -41 68 -117 97
-167 30 -51 79 -137 111 -190 31 -54 76 -134 101 -178 49 -87 79 -125 98 -125
19 0 46 39 161 230 231 383 296 486 315 503 21 18 54 21 108 11z"/>
</g>
</svg>
