<?xml version="1.0" standalone="no"?>
<!DOCTYPE svg PUBLIC "-//W3C//DTD SVG 20010904//EN"
 "http://www.w3.org/TR/2001/REC-SVG-20010904/DTD/svg10.dtd">
<svg version="1.0" xmlns="http://www.w3.org/2000/svg"
 width="219.000000pt" height="900.000000pt" viewBox="0 0 219.000000 900.000000"
 preserveAspectRatio="xMidYMid meet">
<metadata>
Created by potrace 1.10, written by Peter Selinger 2001-2011
</metadata>
<g transform="translate(0.000000,900.000000) scale(0.100000,-0.100000)"
fill="#6aa84f" stroke="none">
<path d="M458 8906 c-79 -27 -84 -31 -164 -112 -60 -62 -104 -136 -139 -239
-40 -115 -25 -804 26 -1195 6 -47 15 -116 20 -155 27 -235 61 -471 84 -590 24
-125 33 -189 51 -345 8 -80 22 -183 30 -230 8 -47 14 -106 14 -132 0 -43 7
-99 40 -323 6 -39 14 -125 19 -192 5 -66 11 -125 15 -131 3 -5 10 -59 16 -118
17 -185 38 -375 50 -459 6 -44 20 -177 31 -295 11 -118 24 -246 29 -285 5 -38
17 -158 25 -265 9 -107 20 -224 25 -260 5 -36 14 -135 20 -220 6 -85 18 -229
26 -320 8 -91 21 -266 29 -390 8 -124 19 -279 24 -345 19 -230 33 -603 41
-1095 9 -483 16 -598 46 -710 53 -196 133 -263 265 -219 77 26 211 230 268
409 19 60 27 86 66 220 24 85 44 165 60 250 9 47 23 112 31 146 8 33 14 73 14
88 0 15 7 55 15 89 8 34 21 123 30 197 9 74 22 173 30 220 8 47 21 168 30 270
9 102 22 235 30 295 8 61 17 169 20 240 3 72 10 159 15 195 5 36 10 110 10
165 0 55 5 145 11 200 5 55 14 244 18 420 5 176 14 392 20 480 16 234 32 938
38 1680 l5 650 25 70 c13 39 28 84 32 100 4 17 12 39 18 50 6 11 13 36 16 55
3 19 16 78 27 130 21 98 36 210 67 505 15 142 18 264 18 735 l0 565 -31 65
c-35 75 -85 120 -154 140 -34 9 -197 13 -665 16 l-620 3 -67 -23z m1331 -142
c67 -39 81 -119 88 -504 4 -215 1 -332 -11 -475 -9 -105 -16 -227 -16 -270 -1
-138 -63 -562 -105 -710 -142 -502 -333 -866 -512 -970 -88 -52 -214 -33 -343
52 -103 67 -177 139 -261 252 -151 203 -198 344 -260 776 -6 44 -17 118 -25
165 -8 47 -18 139 -23 205 -5 66 -14 158 -20 205 -19 150 -41 540 -41 730 0
147 4 200 19 256 42 162 134 285 230 305 20 5 309 6 643 4 558 -3 610 -5 637
-21z m-149 -3292 c0 -317 -5 -716 -10 -887 -20 -649 -30 -905 -40 -1040 -5
-77 -17 -275 -25 -440 -9 -165 -23 -349 -31 -410 -8 -60 -14 -143 -14 -184 0
-79 -21 -285 -45 -443 -8 -53 -15 -121 -15 -149 0 -49 -11 -125 -45 -314 -9
-44 -15 -95 -15 -114 0 -19 -6 -60 -14 -90 -8 -31 -21 -99 -30 -151 -9 -52
-23 -117 -31 -145 -8 -27 -21 -81 -30 -120 -10 -38 -23 -88 -30 -110 -7 -22
-21 -67 -30 -100 -46 -153 -163 -340 -208 -333 -28 4 -61 55 -85 131 -18 55
-21 102 -26 392 -4 182 -11 375 -16 430 -5 55 -9 177 -10 270 0 94 -5 222 -11
285 -5 63 -14 223 -19 355 -5 132 -14 281 -19 330 -18 152 -41 466 -41 545 0
41 -7 111 -15 155 -8 44 -14 114 -15 154 0 70 -9 161 -45 456 -8 66 -15 145
-15 175 0 57 -23 272 -41 375 -6 33 -13 103 -15 155 -4 89 -23 258 -44 395 -5
33 -12 105 -15 160 -3 55 -12 136 -20 180 -34 197 -58 585 -36 585 7 0 65 -42
129 -93 189 -151 271 -192 428 -212 67 -9 162 18 234 66 66 45 164 144 216
219 64 94 77 109 86 104 4 -3 8 -265 8 -582z"/>
</g>
</svg>
