<?xml version="1.0" standalone="no"?>
<!DOCTYPE svg PUBLIC "-//W3C//DTD SVG 20010904//EN"
 "http://www.w3.org/TR/2001/REC-SVG-20010904/DTD/svg10.dtd">
<svg version="1.0" xmlns="http://www.w3.org/2000/svg"
 width="210.000000pt" height="900.000000pt" viewBox="0 0 210.000000 900.000000"
 preserveAspectRatio="xMidYMid meet">
<metadata>
Created by potrace 1.10, written by Peter Selinger 2001-2011
</metadata>
<g transform="translate(0.000000,900.000000) scale(0.100000,-0.100000)"
fill="#6aa84f" stroke="none">
<path d="M241 8905 c-101 -37 -149 -97 -170 -211 -14 -76 -14 -868 0 -1079 5
-88 17 -212 25 -276 8 -63 14 -137 14 -165 0 -47 19 -170 42 -264 6 -25 14
-70 18 -100 4 -30 12 -66 18 -80 21 -50 71 -216 81 -270 6 -33 12 -398 16
-910 3 -470 10 -958 15 -1085 5 -126 14 -363 20 -525 17 -506 70 -1337 101
-1610 6 -47 15 -143 20 -215 5 -71 13 -152 18 -180 6 -27 17 -108 26 -180 30
-235 109 -669 150 -820 88 -325 113 -393 195 -535 76 -129 131 -170 229 -170
55 0 63 3 93 33 45 45 92 145 113 242 19 85 27 277 44 1052 5 221 12 407 16
412 3 6 10 113 15 238 5 126 14 262 19 303 6 41 11 120 11 175 0 55 6 143 14
195 8 52 21 208 30 345 9 138 23 302 31 365 25 195 34 280 40 400 3 63 12 162
21 220 8 58 24 193 34 300 11 107 24 236 30 285 5 50 17 160 25 245 9 85 20
174 26 198 5 23 14 102 19 175 5 72 16 179 24 237 8 58 20 150 26 205 6 55 18
150 25 210 8 61 22 175 30 255 9 80 22 168 30 195 7 28 20 97 29 155 9 58 23
146 31 195 8 50 21 149 30 220 9 72 22 180 30 240 8 61 16 164 19 230 3 66 11
149 17 185 6 36 11 206 12 385 1 297 0 325 -20 395 -63 224 -165 343 -333 388
-45 12 -167 15 -670 17 l-615 3 -64 -23z m1349 -143 c92 -43 183 -173 211
-302 25 -117 11 -624 -26 -945 -8 -66 -21 -194 -31 -285 -9 -91 -23 -187 -30
-214 -8 -27 -14 -68 -14 -90 0 -52 -27 -225 -46 -292 -8 -28 -14 -62 -14 -75
0 -54 -83 -259 -143 -354 -23 -37 -125 -170 -150 -195 -125 -129 -295 -230
-385 -230 -66 0 -173 52 -223 106 -28 31 -106 136 -126 169 -29 49 -164 325
-178 365 -26 75 -114 342 -129 395 -61 209 -126 923 -125 1360 0 207 22 488
41 532 21 48 57 71 119 76 30 2 313 3 629 2 561 -2 576 -2 620 -23z m-1089
-2810 c109 -134 210 -231 274 -261 97 -46 239 -50 345 -9 69 26 173 91 243
152 97 83 153 126 165 126 20 0 19 -78 -2 -355 -4 -44 -13 -114 -21 -155 -12
-68 -23 -166 -45 -410 -4 -47 -12 -112 -18 -145 -6 -33 -16 -116 -23 -185 -6
-69 -15 -163 -19 -210 -4 -47 -13 -128 -19 -180 -20 -180 -32 -305 -41 -421
-5 -64 -13 -143 -19 -175 -6 -32 -11 -98 -11 -148 -1 -50 -5 -111 -10 -136
-13 -59 -50 -495 -50 -585 0 -38 -7 -126 -15 -195 -18 -152 -32 -410 -45 -795
-6 -159 -13 -297 -16 -305 -3 -8 -10 -226 -14 -485 -9 -506 -12 -530 -66 -622
-30 -52 -48 -61 -83 -42 -44 25 -130 168 -164 274 -46 142 -77 253 -105 375
-50 219 -60 269 -77 385 -9 61 -22 151 -30 200 -31 196 -35 224 -45 340 -7 66
-13 123 -16 126 -2 4 -9 67 -14 141 -15 205 -40 470 -46 479 -2 5 -9 113 -14
241 -9 240 -22 492 -41 798 -5 96 -14 373 -19 615 -5 242 -14 598 -20 790 -13
403 -5 856 15 849 7 -3 36 -35 66 -72z"/>
</g>
</svg>
