<?xml version="1.0" standalone="no"?>
<!DOCTYPE svg PUBLIC "-//W3C//DTD SVG 20010904//EN"
 "http://www.w3.org/TR/2001/REC-SVG-20010904/DTD/svg10.dtd">
<svg version="1.0" xmlns="http://www.w3.org/2000/svg"
 width="300.000000pt" height="900.000000pt" viewBox="0 0 300.000000 900.000000"
 preserveAspectRatio="xMidYMid meet">
<metadata>
Created by potrace 1.10, written by Peter Selinger 2001-2011
</metadata>
<g transform="translate(0.000000,900.000000) scale(0.100000,-0.100000)"
fill="#6aa84f" stroke="none">
<path d="M740 8882 c-49 -33 -81 -78 -100 -139 -25 -83 -34 -251 -21 -403 11
-122 14 -145 46 -282 8 -37 15 -90 15 -118 0 -28 6 -83 14 -123 29 -151 41
-478 41 -1162 0 -661 -14 -1287 -36 -1560 -6 -77 -15 -306 -19 -510 -4 -203
-11 -381 -14 -395 -6 -25 -16 -272 -36 -890 -10 -311 -20 -397 -54 -475 -37
-83 -61 -161 -91 -295 -9 -41 -23 -96 -31 -121 -8 -26 -14 -60 -14 -77 0 -16
-6 -52 -14 -78 -8 -27 -22 -89 -31 -139 -9 -49 -23 -121 -30 -160 -45 -226
-69 -602 -46 -715 40 -198 49 -226 97 -301 23 -36 161 -154 263 -224 77 -52
176 -119 193 -130 9 -5 49 -32 90 -60 40 -27 80 -53 88 -58 8 -4 29 -16 45
-27 17 -11 37 -23 45 -27 8 -4 58 -32 110 -63 101 -59 134 -76 190 -97 213
-80 506 -53 760 70 106 52 352 308 447 467 126 211 191 417 200 635 7 162 -5
243 -82 595 -33 147 -115 433 -149 520 -35 88 -79 198 -90 225 -19 45 -44 203
-55 350 -6 72 -17 184 -25 250 -8 66 -20 180 -25 253 -6 74 -14 138 -17 143
-3 6 -10 70 -14 142 -5 73 -13 161 -19 197 -18 113 -41 313 -41 360 0 25 -6
88 -14 140 -9 52 -22 156 -31 230 -31 266 -46 382 -95 735 -20 143 -30 211
-55 370 -8 50 -22 135 -30 190 -9 55 -22 128 -30 162 -8 34 -15 74 -15 90 0
15 -13 88 -30 161 -16 74 -30 146 -30 161 0 15 -6 47 -14 72 -8 24 -22 82 -31
129 -9 47 -23 102 -31 123 -8 20 -14 47 -14 60 0 12 -7 42 -15 67 -8 25 -23
81 -34 125 -11 44 -24 94 -30 110 -5 17 -24 77 -41 135 -18 58 -36 116 -42
130 -5 14 -20 56 -33 95 -42 122 -56 160 -66 170 -5 5 -9 15 -9 23 0 19 -141
306 -197 400 -132 222 -368 468 -518 538 -61 29 -147 32 -185 6z m216 -173
c81 -59 216 -197 292 -296 34 -45 62 -84 62 -87 0 -2 17 -31 39 -63 63 -95
143 -259 201 -413 18 -47 38 -98 46 -115 7 -16 21 -55 30 -85 9 -30 23 -71 30
-90 13 -37 68 -217 78 -260 4 -14 23 -86 43 -160 19 -74 39 -153 43 -175 4
-22 12 -58 18 -80 5 -22 18 -76 27 -120 9 -44 21 -98 27 -120 6 -22 14 -65 18
-95 4 -30 12 -75 18 -100 6 -25 19 -90 28 -145 9 -55 23 -127 30 -161 8 -33
14 -73 14 -90 0 -26 23 -164 50 -303 5 -29 10 -75 10 -100 0 -25 5 -62 11 -81
5 -19 14 -71 18 -115 14 -128 31 -254 46 -340 9 -44 15 -101 15 -126 0 -25 6
-86 14 -135 8 -49 22 -161 31 -249 9 -88 23 -200 31 -249 8 -49 14 -115 14
-145 0 -31 6 -99 14 -151 8 -52 22 -169 31 -260 8 -91 22 -221 30 -290 21
-180 27 -338 14 -346 -6 -3 -67 49 -137 118 -224 220 -346 296 -555 349 -98
24 -155 24 -254 0 -106 -26 -136 -38 -223 -90 -104 -61 -139 -89 -268 -215
-89 -88 -115 -107 -125 -97 -9 9 -12 59 -11 184 1 254 21 864 29 876 6 11 15
236 34 891 6 201 16 446 22 545 17 262 23 1347 10 1525 -6 80 -16 237 -21 350
-9 202 -18 279 -46 414 -8 38 -14 86 -14 107 0 21 -5 50 -11 66 -6 15 -17 84
-25 153 -22 196 6 374 63 410 35 21 97 5 159 -41z m654 -5198 c218 -46 419
-201 642 -495 80 -107 112 -160 153 -261 68 -168 101 -256 130 -345 55 -170
62 -191 80 -270 10 -41 24 -92 31 -113 8 -20 14 -49 14 -63 0 -24 12 -84 46
-223 31 -129 28 -406 -5 -515 -6 -17 -19 -62 -31 -99 -60 -198 -196 -405 -382
-582 -69 -66 -114 -100 -171 -128 -42 -20 -83 -37 -92 -37 -9 0 -26 -5 -37
-11 -37 -20 -249 -50 -308 -44 -90 10 -162 25 -205 42 -22 9 -134 73 -248 142
-114 69 -216 131 -225 136 -46 28 -177 116 -257 175 -49 36 -101 73 -115 82
-41 26 -118 107 -135 141 -58 114 -85 297 -67 457 7 58 12 127 12 153 0 25 6
79 14 119 8 40 22 118 31 173 9 55 23 123 31 151 8 28 14 61 14 73 0 13 14 77
30 143 16 65 30 128 30 138 0 10 7 42 16 71 8 30 22 79 31 109 19 70 38 119
74 197 16 35 29 65 29 68 0 15 100 170 164 253 157 204 327 328 502 366 90 19
103 19 204 -3z"/>
</g>
</svg>
