<?xml version="1.0" standalone="no"?>
<!DOCTYPE svg PUBLIC "-//W3C//DTD SVG 20010904//EN"
 "http://www.w3.org/TR/2001/REC-SVG-20010904/DTD/svg10.dtd">
<svg version="1.0" xmlns="http://www.w3.org/2000/svg"
 width="513.000000pt" height="900.000000pt" viewBox="0 0 513.000000 900.000000"
 preserveAspectRatio="xMidYMid meet">
<metadata>
Created by potrace 1.10, written by Peter Selinger 2001-2011
</metadata>
<g transform="translate(0.000000,900.000000) scale(0.100000,-0.100000)"
fill="#6aa84f" stroke="none">
<path d="M4000 8695 c-74 -11 -126 -26 -187 -52 -17 -7 -36 -13 -43 -13 -22 0
-245 -111 -338 -168 -51 -31 -109 -66 -129 -78 -19 -11 -79 -52 -132 -91 -146
-107 -169 -117 -276 -117 -100 -1 -149 15 -250 79 -104 67 -248 133 -385 177
-36 11 -78 26 -95 33 -65 26 -277 71 -401 85 -95 10 -240 -3 -364 -34 -71 -17
-194 -79 -295 -147 -280 -190 -428 -500 -466 -977 -14 -170 -1 -425 27 -537 8
-33 19 -76 24 -95 21 -79 50 -244 50 -280 0 -55 27 -263 44 -340 8 -36 22
-128 31 -205 9 -77 22 -171 30 -210 8 -38 22 -126 30 -195 9 -69 23 -165 31
-215 26 -166 67 -514 86 -725 8 -87 13 -297 13 -525 0 -377 -10 -555 -40 -730
-8 -44 -21 -123 -30 -175 -9 -52 -22 -121 -30 -152 -8 -32 -22 -86 -31 -120
-21 -86 -44 -165 -60 -213 -8 -23 -14 -48 -14 -57 0 -10 -6 -32 -14 -50 -8
-18 -21 -52 -30 -75 -33 -89 -49 -129 -62 -158 -7 -16 -29 -70 -49 -120 -21
-49 -49 -115 -62 -145 -33 -71 -113 -240 -123 -261 -39 -75 -114 -269 -146
-374 -54 -181 -58 -210 -58 -450 0 -194 3 -240 19 -295 53 -186 150 -280 289
-280 72 0 147 30 231 93 93 69 301 274 400 394 44 53 94 112 110 132 45 53 86
108 137 181 24 36 69 101 99 145 30 44 82 124 114 178 33 54 68 110 77 125 10
15 21 34 25 42 4 8 19 33 34 55 14 22 40 66 58 98 34 62 82 149 117 212 27 47
35 62 93 170 24 44 47 85 51 90 4 6 21 36 39 68 66 122 95 174 119 217 13 25
40 73 58 107 19 34 47 83 62 110 16 26 31 55 35 63 4 8 16 29 27 45 11 17 23
37 27 45 4 8 19 33 33 55 14 22 30 49 37 60 85 143 160 244 210 282 33 26 36
26 49 9 25 -35 27 -116 4 -261 -12 -77 -25 -169 -30 -205 -9 -73 -24 -148 -45
-230 -7 -30 -21 -93 -30 -140 -10 -47 -23 -105 -30 -130 -12 -41 -23 -83 -46
-180 -14 -62 -67 -258 -78 -292 -6 -18 -25 -80 -42 -138 -17 -58 -35 -117 -41
-132 -5 -14 -14 -41 -18 -60 -5 -18 -25 -78 -45 -133 -20 -55 -47 -131 -60
-170 -13 -38 -33 -95 -45 -125 -64 -167 -78 -213 -90 -305 -5 -38 -14 -88 -20
-110 -14 -60 -12 -185 5 -241 8 -27 15 -57 15 -67 0 -32 39 -105 74 -140 50
-47 116 -63 204 -47 142 27 259 62 345 105 185 93 527 453 658 693 11 20 28
51 38 67 10 17 37 67 59 110 35 71 55 112 107 230 15 35 71 172 91 228 8 20
21 56 30 80 30 77 53 144 86 247 11 36 32 97 45 135 14 39 28 86 33 105 4 19
19 69 33 110 13 41 32 104 41 140 10 36 22 79 27 95 6 17 19 66 30 110 11 44
24 94 30 110 17 50 40 137 48 185 5 25 19 81 31 125 13 44 26 98 30 120 4 22
17 76 29 120 12 44 26 103 31 130 5 28 18 88 30 135 11 47 25 113 30 147 5 34
14 72 19 85 5 13 16 61 26 108 9 47 22 114 30 150 16 73 38 182 56 280 22 120
38 204 64 335 27 138 44 231 54 295 6 36 17 97 26 135 9 39 20 108 25 155 5
47 16 119 24 160 32 168 44 237 66 385 4 28 12 82 18 120 6 39 19 124 28 190
22 162 50 275 89 360 61 132 75 164 75 177 0 7 6 30 14 53 57 164 91 565 67
790 -7 61 -16 164 -21 230 -5 66 -14 138 -20 160 -33 116 -47 156 -75 215 -89
187 -211 329 -359 417 -102 61 -130 71 -256 88 -121 17 -214 17 -320 0z m322
-149 c159 -41 313 -156 410 -305 41 -63 112 -219 124 -275 47 -207 68 -588 43
-776 -43 -325 -64 -403 -149 -575 -90 -180 -256 -354 -405 -424 -75 -36 -208
-81 -237 -81 -11 0 -44 -7 -73 -16 -44 -12 -96 -14 -272 -11 -120 2 -249 9
-288 16 -102 18 -212 41 -275 58 -35 10 -103 16 -190 16 -130 1 -139 0 -220
-32 -199 -76 -226 -86 -275 -99 -22 -5 -74 -19 -115 -30 -260 -69 -536 -68
-763 2 -167 52 -387 201 -523 353 -156 175 -174 202 -265 395 -4 9 -17 54 -28
101 -19 75 -21 116 -21 363 1 235 4 293 20 369 78 369 273 631 555 745 97 39
161 50 305 50 177 0 278 -18 470 -85 41 -15 89 -30 105 -34 48 -13 265 -120
326 -161 103 -70 188 -99 296 -100 125 0 192 24 336 124 193 134 445 286 471
286 7 0 16 4 21 9 16 14 155 71 215 88 130 36 160 41 252 42 54 1 120 -5 150
-13z m-3300 -2334 c148 -117 210 -164 268 -200 85 -54 246 -133 290 -142 19
-4 80 -20 135 -34 91 -24 117 -26 292 -26 192 0 289 11 409 45 28 8 60 15 72
15 12 0 36 6 54 14 49 20 98 37 142 47 21 5 62 20 90 33 88 40 158 56 252 56
49 0 105 -5 124 -11 19 -5 55 -14 80 -18 25 -5 81 -19 125 -31 73 -21 107 -23
375 -27 319 -5 287 -8 515 52 74 19 227 87 298 132 65 41 71 34 69 -87 -3
-101 -17 -208 -48 -355 -8 -38 -14 -82 -14 -97 0 -15 -7 -62 -15 -105 -9 -43
-22 -109 -30 -148 -7 -38 -16 -95 -20 -125 -3 -30 -10 -71 -15 -90 -10 -39
-29 -138 -59 -310 -12 -63 -25 -133 -30 -155 -11 -45 -31 -148 -41 -215 -4
-25 -12 -65 -18 -90 -10 -41 -16 -71 -42 -205 -4 -22 -12 -60 -18 -85 -6 -25
-18 -81 -27 -125 -9 -44 -22 -105 -30 -135 -7 -30 -21 -91 -30 -135 -9 -44
-23 -102 -30 -130 -7 -27 -21 -86 -30 -130 -9 -44 -21 -93 -27 -110 -5 -16
-14 -48 -18 -70 -9 -50 -28 -126 -45 -185 -7 -25 -20 -74 -29 -110 -10 -36
-23 -87 -31 -115 -7 -27 -21 -79 -30 -115 -10 -36 -23 -83 -30 -105 -7 -22
-20 -67 -30 -100 -9 -33 -23 -76 -30 -95 -7 -19 -21 -64 -30 -100 -9 -36 -23
-81 -30 -100 -7 -19 -21 -60 -30 -90 -10 -30 -22 -66 -27 -80 -6 -14 -21 -56
-34 -95 -12 -38 -33 -95 -44 -125 -12 -30 -25 -66 -30 -80 -4 -14 -24 -63 -44
-110 -148 -342 -267 -551 -409 -715 -205 -236 -362 -364 -504 -408 -29 -10
-74 -24 -100 -32 -27 -8 -73 -15 -104 -15 -79 0 -96 21 -117 142 -15 88 -15
102 2 201 9 59 24 128 33 154 20 64 71 200 89 240 8 17 14 34 14 39 0 4 13 41
29 83 36 97 48 131 72 211 11 36 31 101 46 145 14 44 29 96 34 115 4 19 12 49
17 65 6 17 18 56 26 88 26 94 48 169 62 216 8 25 14 54 14 66 0 12 6 41 14 66
7 24 21 78 30 119 10 41 22 93 28 115 18 68 39 167 47 225 5 30 20 116 34 190
51 264 59 322 60 418 0 82 -3 104 -22 141 -27 52 -34 59 -82 89 -48 29 -125
30 -182 1 -39 -20 -137 -112 -137 -130 0 -4 -19 -36 -43 -71 -24 -35 -46 -70
-50 -78 -4 -8 -16 -28 -27 -45 -11 -16 -23 -37 -27 -45 -4 -8 -19 -33 -34 -55
-15 -22 -37 -58 -48 -80 -12 -22 -26 -47 -31 -55 -18 -28 -96 -165 -103 -180
-4 -8 -23 -42 -41 -75 -19 -33 -45 -80 -57 -105 -13 -25 -33 -61 -45 -80 -20
-34 -46 -81 -140 -255 -24 -44 -48 -87 -54 -95 -5 -8 -21 -37 -35 -65 -14 -27
-30 -57 -35 -65 -16 -25 -95 -164 -103 -180 -4 -8 -16 -28 -27 -45 -11 -16
-23 -37 -27 -45 -42 -89 -355 -567 -427 -651 -8 -10 -38 -48 -68 -85 -169
-217 -371 -413 -493 -479 -41 -22 -58 -26 -99 -21 -59 7 -78 23 -111 92 -87
184 -66 500 53 809 24 62 70 172 82 194 9 17 35 73 131 286 33 72 64 138 69
148 6 9 20 43 31 75 11 31 27 71 34 87 64 144 167 485 206 680 11 55 24 118
29 140 57 235 73 422 78 895 3 325 0 438 -13 570 -27 277 -54 503 -65 545 -5
22 -10 63 -10 91 0 28 -5 76 -11 105 -5 30 -14 86 -19 124 -4 39 -13 97 -19
130 -5 33 -17 114 -26 180 -8 66 -22 165 -30 220 -19 126 -20 295 -2 295 6 0
33 -17 59 -38z"/>
</g>
</svg>
