<?xml version="1.0" standalone="no"?>
<!DOCTYPE svg PUBLIC "-//W3C//DTD SVG 20010904//EN"
 "http://www.w3.org/TR/2001/REC-SVG-20010904/DTD/svg10.dtd">
<svg version="1.0" xmlns="http://www.w3.org/2000/svg"
 width="477.000000pt" height="900.000000pt" viewBox="0 0 477.000000 900.000000"
 preserveAspectRatio="xMidYMid meet">
<metadata>
Created by potrace 1.10, written by Peter Selinger 2001-2011
</metadata>
<g transform="translate(0.000000,900.000000) scale(0.100000,-0.100000)"
fill="#6aa84f" stroke="none">
<path d="M3010 8752 c-34 -9 -126 -58 -157 -82 -131 -103 -325 -327 -419 -483
-16 -27 -34 -56 -39 -65 -75 -124 -193 -284 -205 -277 -5 3 -16 31 -25 63 -36
129 -78 195 -153 240 -41 23 -57 27 -122 26 -51 -1 -93 -8 -130 -22 -58 -23
-194 -108 -268 -169 -23 -19 -66 -50 -94 -69 -212 -143 -423 -364 -551 -576
-53 -88 -145 -269 -175 -343 -57 -141 -82 -209 -82 -221 0 -7 -6 -28 -14 -46
-23 -55 -65 -213 -91 -343 -9 -44 -22 -111 -30 -150 -30 -152 -45 -252 -45
-302 0 -28 -7 -85 -16 -125 -18 -86 -21 -459 -4 -547 12 -66 16 -128 36 -671
12 -291 15 -516 10 -715 -8 -379 -31 -940 -39 -952 -4 -6 -11 -63 -17 -127
-12 -125 -31 -230 -48 -262 -24 -45 -61 -162 -87 -269 -9 -38 -23 -92 -30
-120 -22 -78 -45 -182 -45 -203 0 -11 -6 -42 -14 -68 -34 -116 -49 -275 -49
-539 -1 -267 10 -362 49 -453 8 -18 14 -39 14 -48 0 -26 61 -137 116 -209 50
-66 100 -114 186 -178 41 -31 283 -157 301 -157 7 0 46 -13 87 -29 107 -41
272 -54 435 -36 175 20 250 45 457 149 79 40 209 116 289 169 91 60 157 97
173 97 18 0 54 -26 128 -94 166 -152 289 -228 458 -282 104 -34 106 -34 295
-34 173 0 198 3 280 26 50 14 106 29 125 33 87 21 298 99 375 138 54 28 159
101 201 140 104 96 204 269 243 423 36 141 43 231 31 390 -7 85 -18 180 -26
211 -8 31 -14 73 -14 94 0 38 -21 135 -46 215 -8 25 -14 52 -14 60 0 20 -83
289 -109 350 -5 14 -26 70 -46 125 -31 86 -112 260 -134 290 -18 24 -40 130
-53 250 -18 177 -18 894 1 1115 7 91 19 197 27 235 8 39 14 95 14 125 0 50 5
88 29 220 25 139 33 181 46 240 8 36 21 99 30 140 16 73 46 193 105 410 44
166 82 321 90 375 5 28 18 86 29 130 12 44 23 105 26 135 3 30 12 80 20 110
26 104 45 211 45 254 0 24 6 79 14 122 56 307 56 886 2 1074 -8 25 -23 83 -34
130 -56 234 -152 408 -252 457 -59 29 -132 29 -207 1 -85 -32 -207 -157 -294
-303 -37 -60 -69 -120 -73 -132 -15 -46 -36 -19 -36 45 0 109 -31 329 -75 537
-34 159 -112 289 -202 337 -40 22 -155 33 -203 20z m159 -187 c65 -59 108
-171 137 -360 16 -102 19 -175 18 -490 -1 -380 -15 -571 -48 -655 -8 -19 -21
-53 -29 -75 -8 -22 -29 -74 -45 -115 -17 -41 -45 -113 -62 -160 -17 -47 -38
-98 -46 -113 -8 -16 -14 -33 -14 -39 0 -17 -223 -550 -291 -696 -22 -46 -39
-85 -39 -87 0 -3 -16 -40 -36 -82 -20 -43 -48 -103 -61 -133 -51 -110 -214
-437 -262 -525 -27 -49 -60 -109 -72 -133 -13 -24 -39 -59 -58 -79 l-35 -36
-33 38 c-18 21 -48 70 -67 109 -31 66 -40 88 -80 194 -8 20 -21 64 -30 97 -9
33 -23 80 -31 105 -21 68 -43 187 -49 265 -3 39 -10 102 -16 140 -12 92 -12
552 0 635 6 36 15 108 20 160 9 90 22 166 50 305 7 33 19 94 27 135 8 41 21
92 29 113 8 20 14 47 14 60 1 71 117 329 255 562 39 66 74 127 78 135 8 17 -2
3 152 234 246 369 405 525 537 526 41 0 54 -5 87 -35z m889 -479 c40 -36 113
-171 131 -242 75 -291 84 -351 89 -624 3 -155 -1 -257 -12 -365 -25 -222 -45
-381 -61 -465 -8 -41 -19 -104 -24 -140 -6 -36 -17 -96 -26 -135 -9 -38 -20
-95 -25 -125 -8 -54 -37 -181 -87 -375 -14 -55 -29 -118 -33 -140 -4 -22 -14
-65 -23 -95 -8 -30 -25 -91 -37 -135 -13 -44 -26 -99 -31 -123 -5 -24 -11 -47
-14 -52 -2 -4 -9 -36 -14 -71 -5 -35 -21 -117 -35 -183 -14 -65 -26 -134 -26
-153 0 -37 -23 -192 -41 -278 -20 -99 -33 -449 -34 -917 0 -330 -3 -480 -11
-488 -8 -8 -48 5 -145 46 -156 65 -185 76 -259 97 -30 8 -80 22 -111 31 -31 9
-71 16 -90 16 -19 0 -74 7 -124 17 -129 23 -465 23 -597 0 -58 -11 -150 -18
-235 -18 -121 -1 -145 2 -193 21 -65 27 -147 53 -250 82 -105 28 -414 31 -505
3 -198 -59 -297 -106 -464 -220 -149 -102 -191 -126 -202 -119 -14 8 -6 481
11 704 12 166 13 631 0 817 -6 81 -15 256 -20 388 -6 132 -15 285 -21 340 -6
55 -11 199 -12 320 -1 213 8 317 45 530 5 33 14 90 18 126 5 37 14 86 20 110
14 53 33 131 56 224 25 103 97 318 136 405 74 165 102 221 166 328 66 109 166
248 211 293 9 8 30 31 46 50 49 55 173 159 298 250 64 46 134 96 154 111 54
39 100 62 165 82 51 16 59 16 86 2 53 -27 71 -70 81 -197 12 -140 -5 -314 -42
-439 -14 -47 -30 -105 -36 -130 -7 -25 -16 -58 -20 -75 -5 -16 -16 -57 -26
-90 -39 -140 -65 -268 -75 -380 -6 -66 -15 -158 -20 -205 -29 -297 -32 -366
-26 -535 7 -200 29 -425 45 -468 6 -16 11 -43 11 -60 0 -51 69 -314 101 -386
10 -24 19 -49 19 -56 0 -22 124 -296 173 -380 33 -57 91 -125 106 -125 9 0 24
6 33 12 16 13 175 276 217 358 12 25 45 86 72 135 71 131 359 716 359 730 0 3
13 33 29 68 53 113 81 176 81 183 0 4 13 36 30 71 16 34 30 66 30 69 0 3 16
45 36 92 20 48 49 119 64 157 15 39 49 122 75 185 26 63 54 133 62 155 8 22
21 56 29 75 25 65 65 185 73 216 5 18 12 38 17 45 10 15 21 46 59 154 67 192
86 247 118 335 19 52 49 133 66 180 18 47 35 94 39 105 14 49 121 204 170 248
34 31 85 56 114 56 18 1 41 -11 66 -33z m-2473 -4937 c111 -15 198 -36 280
-68 185 -74 252 -86 380 -66 213 33 257 36 490 36 208 1 254 -2 345 -21 58
-12 134 -28 170 -35 102 -21 266 -92 386 -167 34 -21 96 -74 138 -118 60 -63
86 -100 126 -183 27 -56 50 -110 50 -119 0 -9 4 -19 9 -22 5 -3 19 -38 31 -78
12 -40 28 -89 35 -108 32 -86 101 -328 120 -420 10 -47 21 -99 26 -115 5 -17
14 -78 19 -135 5 -58 13 -127 16 -153 8 -60 -13 -284 -33 -357 -36 -131 -84
-215 -178 -318 -95 -102 -211 -165 -450 -244 -240 -79 -419 -108 -541 -89
-256 40 -437 151 -650 396 -61 69 -62 70 -110 69 -62 -1 -92 -17 -236 -125
-64 -49 -134 -98 -155 -110 -21 -11 -51 -29 -68 -39 -16 -10 -70 -39 -120 -63
-79 -39 -113 -55 -223 -98 -49 -19 -204 -49 -256 -49 -64 0 -234 32 -291 55
-22 9 -49 19 -60 24 -181 72 -354 188 -432 288 -111 143 -162 328 -163 583 0
152 10 274 34 400 8 41 22 116 31 165 9 50 23 113 30 140 7 28 19 75 25 105 7
30 20 82 30 115 10 33 26 87 35 120 23 78 93 228 141 300 52 79 185 218 258
270 184 130 343 199 521 226 39 6 72 13 74 15 8 7 85 4 166 -7z"/>
</g>
</svg>
